<svg xmlns="http://www.w3.org/2000/svg" xmlns:xlink="http://www.w3.org/1999/xlink" width="399" height="122" viewBox="0 0 399 122" version="1.1">
    <!-- Generator: Sketch 50.2 (55047) - http://www.bohemiancoding.com/sketch -->
    <title>bank_transfer</title>
    <desc>Created with Sketch.</desc>
    <defs>
        <polygon id="path-1" points="0.795020833 0.189187029 114.207353 0.189187029 114.207353 40.7456513 0.795020833 40.7456513"/>
        <polygon id="path-3" points="0 0.498216789 129.267267 0.498216789 129.267267 6.11868265 0 6.11868265"/>
    </defs>
    <g id="Page-1" stroke="none" stroke-width="1" fill="none" fill-rule="evenodd">
        <g id="bank_transfer" transform="translate(0.800000, 0.386712)">
            <g id="Group-3" transform="translate(7.138463, 0.030593)">
                <mask id="mask-2" fill="white">
                    <use xlink:href="#path-1"/>
                </mask>
                <g id="Clip-2"/>
                <path d="M57.311253,0.188983073 C76.3209802,8.21465515 95.1553052,16.719624 114.143617,24.7962851 C114.245595,30.1093413 114.194606,35.4223974 114.194606,40.7456513 C76.4321362,40.7252557 38.6594687,40.7354535 0.886801073,40.7354535 C0.825614246,35.4631886 0.907196682,30.2011215 0.795020833,24.9288566 C19.600792,16.6380416 38.4249192,8.29623759 57.311253,0.188983073" id="Fill-1" fill="#006E90" mask="url(#mask-2)"/>
            </g>
            <path d="M215.122276,36.7280223 C217.601363,36.7280223 220.088607,36.7178245 222.577891,36.7076266 C227.115914,44.5395404 231.397972,52.5142235 236.00738,60.3053461 C235.957411,52.4326411 235.998202,44.5701339 235.966589,36.7076266 C238.067336,36.7178245 240.158906,36.7280223 242.249456,36.7280223 C242.299425,47.9354093 242.239258,59.1427964 242.290247,70.3501834 C239.882546,70.3399856 237.475864,70.31959 235.07938,70.2991944 C230.622939,62.2531267 226.023729,54.2784437 221.434717,46.3037606 C221.536695,54.3192349 221.444915,62.3245114 221.526498,70.3399856 L215.081485,70.3399856 C215.133494,59.1427964 215.071287,47.9354093 215.122276,36.7280223" id="Fill-4" fill="#00AFD8"/>
            <path d="M248.897507,36.7280223 C251.232804,36.7280223 253.568101,36.7178245 255.913596,36.7178245 C255.884022,41.4292101 255.8932,46.1507935 255.8932,50.8621792 C260.166081,46.0998045 264.58173,41.4700013 268.927014,36.7688135 C271.913951,36.7280223 274.901908,36.7076266 277.900062,36.7076266 C273.393653,41.2558474 268.140764,45.4777385 264.143224,50.4440692 C268.71286,57.0726421 273.616985,63.4972589 278.319192,70.0442493 C275.433214,69.8606888 271.87316,70.4011725 269.170742,69.5751503 C265.581115,64.9555449 262.480982,59.9076317 259.116726,55.1248614 C257.942959,56.2568177 256.771231,57.3989718 255.597464,58.5309281 C255.556673,62.344907 255.556673,66.1588858 255.588286,69.9830625 C253.353947,69.9728647 251.121648,69.9626669 248.897507,69.9626669 C248.908724,58.8878513 248.887309,47.8028379 248.897507,36.7280223" id="Fill-6" fill="#00AFD8"/>
            <path d="M14.4605887,44.9778421 C22.680019,45.0594245 30.8994494,44.9574465 39.1086819,45.0390289 C39.1188797,47.0072052 39.1188797,48.9753814 39.1280578,50.9537555 C37.6809893,50.9843489 36.2329011,51.0149423 34.7848129,51.0455357 C34.7440217,65.9751214 34.7644173,80.8945093 34.7746151,95.8240949 C36.2125055,95.8444905 37.6605937,95.8648862 39.0984841,95.8852818 L39.1280578,101.42269 C30.9096472,101.51447 22.680019,101.412492 14.4605887,101.483876 C14.4707865,99.576887 14.4707865,97.6596997 14.4707865,95.7425125 C15.9902593,95.7935015 17.5097322,95.8342927 19.0190072,95.875084 C19.0394028,80.9047071 19.0281853,65.9343302 19.0281853,50.9639533 C17.5097322,50.9843489 15.9902593,51.0047445 14.4707865,51.0251401 C14.4707865,49.0059748 14.4707865,46.9970074 14.4605887,44.9778421" id="Fill-8" fill="#006E90"/>
            <path d="M52.4782075,45.089916 C60.6058576,44.8451686 68.7641012,45.1205094 76.9009293,44.9777401 C76.9009293,46.9867076 76.9121469,49.0058729 76.9121469,51.0148403 C75.5252455,51.0046425 74.1271265,50.9842469 72.7412449,50.9740491 C72.6800581,65.944426 72.7810163,80.9148029 72.6800581,95.8851798 C74.0965331,95.8341908 75.5048499,95.7832017 76.9121469,95.7322127 L76.9121469,101.493972 C68.732488,101.442983 60.5650664,101.453181 52.3966251,101.483774 C52.3966251,99.6073784 52.3966251,97.7309824 52.3854075,95.8545864 C53.7825067,95.8443886 55.1704279,95.8341908 56.5675271,95.8341908 C56.5981205,80.9046051 56.5359139,65.9648216 56.5981205,51.0352359 C55.2010213,51.0250381 53.8141199,51.0046425 52.4160009,50.9944447 C52.3966251,49.0262685 52.3344185,47.0478944 52.4782075,45.089916" id="Fill-10" fill="#006E90"/>
            <path d="M89.893442,45.0087414 C98.1954746,44.9883458 106.48629,45.0495326 114.776085,44.9679502 C114.786283,46.9871155 114.786283,49.0062808 114.786283,51.025446 C113.317799,51.0152482 111.859513,50.9948526 110.392049,50.9846548 C110.392049,65.9448339 110.380831,80.905013 110.392049,95.8753899 C111.859513,95.8345987 113.327997,95.7938075 114.79648,95.7530162 C114.786283,97.6702035 114.786283,99.5873907 114.776085,101.49438 C106.48629,101.433193 98.184257,101.443391 89.893442,101.484182 C89.8832442,99.5873907 89.8730464,97.6804013 89.8628486,95.7734119 C91.4027171,95.8040053 92.9323878,95.8345987 94.4722562,95.8651921 C94.4120892,80.8948152 94.4620584,65.9346361 94.4416628,50.974457 C92.92219,50.9846548 91.3925193,51.0050504 89.8730464,51.025446 C89.8730464,49.0164786 89.8832442,47.0177089 89.893442,45.0087414" id="Fill-12" fill="#006E90"/>
            <path d="M190.271043,57.5413332 C191.433593,54.2066511 192.60532,50.8719691 193.717901,47.5168914 C194.105417,46.3451637 194.502112,45.1713964 194.889628,43.9986489 C196.378508,48.4958807 197.71544,53.0441014 199.20432,57.5413332 L190.271043,57.5413332 Z M198.735221,36.7174165 C196.13478,36.7072187 193.492529,36.5950429 190.913505,36.849988 C186.66102,47.7208475 183.070373,58.9996192 179.063656,69.9826546 C181.449942,69.9724568 183.835208,69.9418634 186.221495,69.9112699 C186.945539,67.6779508 187.669583,65.4446316 188.383429,63.2113124 C192.595122,63.1909168 196.796618,63.1909168 201.008311,63.171541 C201.66199,65.5670053 202.31465,67.9532915 202.987705,70.3497755 C205.474949,70.3395777 207.973412,70.3293799 210.472893,70.3395777 C206.453939,59.1729819 202.629762,47.9248036 198.735221,36.7174165 Z" id="Fill-14" fill="#00AFD8"/>
            <path d="M165.255625,63.854284 C161.696591,64.9046579 157.556282,64.3539764 153.864677,64.4151632 C153.844281,61.2946351 153.834084,58.1843047 153.844281,55.0739744 C157.943799,55.2371393 163.297646,54.4825017 166.999449,56.4914692 C169.008417,58.6839972 168.141603,62.7835145 165.255625,63.854284 M165.27602,42.8977959 C168.161999,43.8665873 167.886658,48.5677752 165.133251,49.4243907 C161.553822,50.3217975 157.545065,49.934281 153.874875,49.9648744 C153.85346,47.4970057 153.844281,45.0189392 153.844281,42.5510706 C157.585856,42.6428508 161.604811,42.1227628 165.27602,42.8977959 M170.272944,52.1879957 C173.322088,49.6487424 174.494835,47.792742 173.923758,43.6524334 C173.332286,38.9614434 168.721858,36.8199045 164.480592,36.4731791 C158.738208,36.1366516 152.956053,36.4425857 147.195313,36.3406077 C147.327884,47.5479947 147.246302,58.7553818 147.246302,69.9627689 C153.283402,69.8913842 159.340898,70.1361315 165.366781,69.8607908 C168.060021,69.748615 170.487098,68.9225928 172.241121,66.8014495 C176.074475,62.5285694 175.738968,54.992392 170.272944,52.1879957" id="Fill-16" fill="#00AFD8"/>
            <path d="M300.284855,79.1509906 C303.23202,81.1701559 303.894878,84.1071236 304.680109,87.3806188 C302.507976,87.3908166 300.335844,87.3908166 298.163712,87.370421 C297.132714,85.6062008 296.622823,83.7807938 294.532274,83.0159585 C292.299974,82.3531012 289.57716,82.2511232 287.353019,83.0057607 C285.008544,84.035739 283.896983,86.6973659 285.486821,88.8898939 C290.575525,91.6738945 297.235711,91.6331033 302.272407,94.4884885 C305.79065,96.7014121 306.045595,101.178248 305.169603,104.83926 C304.078438,108.398294 301.028275,110.488844 297.582437,111.437239 C292.115394,112.87513 285.549028,112.293855 280.970213,108.734821 C278.348358,106.634074 278.042424,103.839875 277.441773,100.760138 C279.695488,100.74994 281.949203,100.74994 284.19272,100.780534 C284.998346,102.483567 285.272667,104.737282 287.230646,105.512315 C290.116624,106.256755 293.726647,106.562689 296.571834,105.491919 C299.030525,104.298776 299.958525,101.015083 297.510032,99.31205 C292.850656,96.6402252 285.079929,97.3234781 280.674477,93.6522685 C276.24863,89.7261138 277.635531,81.1599581 282.958785,78.559518 C287.894523,75.8265064 295.643834,75.7755174 300.284855,79.1509906" id="Fill-18" fill="#00AFD8"/>
            <path d="M146.063051,77.3354755 C155.251273,77.1315194 164.449692,77.2844865 173.648112,77.2538931 C173.648112,79.2322671 173.648112,81.2106412 173.659329,83.1890153 C170.262441,83.148224 166.87677,83.1380262 163.480901,83.1380262 C163.470703,92.4282261 163.491099,101.718426 163.480901,111.008626 L156.169075,111.008626 C156.158877,101.718426 156.169075,92.4282261 156.169075,83.1278284 C152.763008,83.148224 149.356942,83.148224 145.950875,83.148224 C145.991666,81.2106412 146.02226,79.2730584 146.063051,77.3354755" id="Fill-20" fill="#00AFD8"/>
            <path d="M245.460745,77.2537911 C247.939831,77.2435933 250.416878,77.2435933 252.884746,77.2333955 C257.321811,85.0551115 261.634462,92.9482121 266.204099,100.688346 C266.325452,92.8768275 266.214296,85.0551115 266.264266,77.2435933 L272.587924,77.2435933 C272.6073,88.5019694 272.6073,99.7501477 272.597102,111.008524 C270.231212,111.008524 267.875519,111.008524 265.519826,111.018722 C260.942031,103.013445 256.464176,94.9571796 251.813977,86.9926943 C251.682425,94.9979708 251.732394,103.003247 251.783383,111.008524 L245.431171,111.008524 C245.501536,99.7603455 245.440349,88.5121672 245.460745,77.2537911" id="Fill-22" fill="#00AFD8"/>
            <path d="M310.726693,77.2537911 C318.629991,77.2231977 326.523092,77.2537911 334.42639,77.2333955 C334.458004,79.2117696 334.477379,81.1901436 334.507973,83.1685177 C328.827796,83.1277265 323.148638,83.1481221 317.477639,83.1379243 C317.467442,85.7179688 317.467442,88.2878155 317.458264,90.8576622 C322.372586,90.86786 327.287927,90.86786 332.204289,90.8474644 C332.204289,92.7544538 332.194091,94.6512455 332.194091,96.5582349 C327.298125,96.446059 322.403179,96.4562568 317.508233,96.5276415 C317.458264,101.218632 317.467442,105.919819 317.477639,110.610809 C315.213727,110.610809 312.960012,110.610809 310.706297,110.621007 C310.757286,99.4952026 310.706297,88.3795957 310.726693,77.2537911" id="Fill-24" fill="#00AFD8"/>
            <path d="M339.525497,77.2537911 C347.673542,77.2333955 355.831786,77.2537911 363.979832,77.2333955 C363.990029,79.2117696 363.990029,81.1799458 364.000227,83.1583199 C358.065105,83.1379243 352.120805,83.1379243 346.175485,83.1583199 C346.184663,85.6057929 346.184663,88.0430682 346.184663,90.4905412 C351.63029,90.4395522 357.086116,90.4395522 362.532763,90.4599478 L362.532763,96.1401249 C357.075918,96.1401249 351.620093,96.1197293 346.164267,96.1503227 C346.175485,99.0668948 346.175485,101.993665 346.164267,104.910237 C352.37575,104.879643 358.585193,104.889841 364.795656,104.889841 C364.805854,106.929402 364.805854,108.968963 364.816052,111.008524 L339.494903,111.008524 C339.535694,99.7603455 339.494903,88.5019694 339.525497,77.2537911" id="Fill-26" fill="#00AFD8"/>
            <path d="M195.584099,92.1426875 C192.055659,92.7851492 188.251878,92.3364458 184.66225,92.4180283 C184.672448,89.3382913 184.682646,86.2483566 184.682646,83.1686196 C188.068317,83.1992131 191.626331,82.8524877 194.962033,83.4439604 C198.011176,85.0552135 198.939177,90.3580718 195.584099,92.1426875 M202.997903,97.9656339 C202.171881,96.7928864 200.794157,95.9668642 199.673419,95.0796552 C204.904892,92.6525778 206.188796,86.1565763 203.079485,81.5369709 C201.029727,78.3144647 197.62366,77.5394316 194.043211,77.3252777 C188.679166,77.0907282 183.294725,77.3150799 177.921502,77.2334975 C177.748139,88.4918736 177.962293,99.7502496 177.799128,111.008626 L184.732615,111.008626 C184.66225,106.572581 184.66225,102.136536 184.691824,97.700491 C187.832748,98.0676119 194.389936,96.4767544 196.267352,99.6176782 C197.357497,103.105327 196.796618,107.347614 197.164759,111.008626 C199.855959,110.998428 202.54818,111.008626 205.24142,111.069813 C203.007081,106.725548 204.986475,102.218118 202.997903,97.9656339" id="Fill-28" fill="#00AFD8"/>
            <path d="M388.352482,92.2348757 C384.854635,92.6937769 381.225237,92.377645 377.695777,92.4184362 C377.685579,89.3386992 377.685579,86.2589623 377.695777,83.1792254 C381.173228,83.2200166 385.160569,82.7101264 388.496271,83.821687 C391.269054,85.3105665 391.748351,91.1641062 388.352482,92.2348757 M396.07222,98.5575144 C395.56233,96.7423052 393.777714,95.8448985 392.421406,94.7027444 C393.910286,93.6013815 395.531736,92.7549637 396.408748,91.0621282 C398.499298,87.054391 397.102198,81.4965876 393.289239,79.0185212 C390.310461,77.2135098 387.099172,76.9891581 383.693105,76.9687625 C379.205052,76.9687625 374.729235,77.0095537 370.241181,76.9891581 C370.241181,88.1965451 370.292171,99.41413 370.210588,110.621517 C372.464303,110.611319 374.718018,110.601121 376.972752,110.590924 C376.920743,106.134483 376.920743,101.667845 376.951337,97.2114043 C380.245228,97.4765472 385.355347,96.4159755 388.097537,98.4861298 C389.944359,101.841207 388.984746,106.807538 389.720008,110.601121 C392.421406,110.601121 395.113626,110.621517 397.816045,110.7031 C396.022251,106.695362 397.205196,102.625419 396.07222,98.5575144" id="Fill-30" fill="#00AFD8"/>
            <path d="M220.639391,98.1592902 C222.22005,93.9373991 223.392798,89.562541 225.136622,85.4018368 C227.349546,89.1648267 227.951216,94.0801684 229.552272,98.169488 C226.574513,98.1592902 223.606952,98.1592902 220.639391,98.1592902 M228.90981,77.2028021 C226.462337,77.2129999 223.98427,77.1212196 221.548015,77.3557691 C220.69038,78.2939672 220.333456,79.7318576 219.864357,80.9046051 C216.437895,90.9698381 212.980839,101.024873 209.330025,111.018722 C211.72651,111.008524 214.122994,111.008524 216.519478,111.008524 C217.284313,108.714018 218.060366,106.42971 218.844577,104.135204 C223.025677,104.125006 227.206777,104.125006 231.387876,104.135204 C232.030338,106.419512 232.6728,108.70382 233.316281,110.998326 C235.813724,111.008524 238.312186,111.008524 240.810648,111.018722 C236.71113,99.7909389 233.039921,88.4203869 228.90981,77.2028021" id="Fill-32" fill="#00AFD8"/>
            <path d="M7.99528262,106.052697 C45.778148,106.103686 83.5610134,106.062895 121.342859,106.073092 C121.342859,107.969884 121.342859,109.876873 121.354077,111.773665 C83.5701914,111.743072 45.7883458,111.763467 8.00548043,111.763467 C7.99528262,109.856478 7.99528262,107.959686 7.99528262,106.052697" id="Fill-34" fill="#006E90"/>
            <g id="Group-38" transform="translate(0.000000, 115.485564)">
                <mask id="mask-4" fill="white">
                    <use xlink:href="#path-3"/>
                </mask>
                <g id="Clip-37"/>
                <path d="M0.0202936308,0.509992199 C43.1060173,0.499794395 86.191741,0.48959659 129.267267,0.509992199 L129.267267,6.10858683 C86.1815432,6.10858683 43.0856217,6.06779561 -0.000101978044,6.11878463 C0.0100958264,4.25258642 0.0202936308,2.37619041 0.0202936308,0.509992199" id="Fill-36" fill="#006E90" mask="url(#mask-4)"/>
            </g>
        </g>
    </g>
</svg>