<svg xmlns="http://www.w3.org/2000/svg" xmlns:xlink="http://www.w3.org/1999/xlink" width="537.539" height="398.24" viewBox="0 0 537.539 398.24">
  <defs>
    <linearGradient id="linear-gradient" y1="0.5" x2="1" y2="0.5" gradientUnits="objectBoundingBox">
      <stop offset="0.007" stop-color="#0062c1"/>
      <stop offset="0.347" stop-color="#004bb2"/>
      <stop offset="0.736" stop-color="#0037a6"/>
      <stop offset="1" stop-color="#0030a2"/>
    </linearGradient>
    <linearGradient id="linear-gradient-2" y1="0.5" x2="1" y2="0.5" gradientUnits="objectBoundingBox">
      <stop offset="0" stop-color="#d4ebff"/>
      <stop offset="0.507" stop-color="#d5ebff"/>
      <stop offset="0.708" stop-color="#dcefff"/>
      <stop offset="0.855" stop-color="#e9f4ff"/>
      <stop offset="0.975" stop-color="#fafcff"/>
      <stop offset="1" stop-color="#fff"/>
    </linearGradient>
  </defs>
  <g id="Group_959" data-name="Group 959" transform="translate(-2491.281 -1406.928)">
    <g id="Smartphone" transform="translate(2491.281 1472.474)">
      <g id="Group_850" data-name="Group 850" transform="translate(0 0)">
        <path id="Path_1778" data-name="Path 1778" d="M2637.882,1853l-140.354-81.052a12.5,12.5,0,0,1,.058-21.678l352.33-200.963a34.776,34.776,0,0,1,34.644.106l138.021,79.849a12.5,12.5,0,0,1-.008,21.639L2672.666,1853A34.774,34.774,0,0,1,2637.882,1853Z" transform="translate(-2491.281 -1544.736)" fill="#002e80"/>
        <path id="Path_1779" data-name="Path 1779" d="M3028.815,1699.655a12.372,12.372,0,0,1-6.242,10.653l-349.908,202.1a34.774,34.774,0,0,1-34.783,0l-140.354-81.052a12.38,12.38,0,0,1-6.243-10.991l0,0v18.666a14.33,14.33,0,0,0,7.15,12.4l139.451,80.744a34.775,34.775,0,0,0,34.783,0L3019.5,1731.886a18.632,18.632,0,0,0,9.315-16.136l0-16.093Z" transform="translate(-2491.281 -1604.145)" fill="url(#linear-gradient)"/>
        <path id="Path_1780" data-name="Path 1780" d="M3016.128,1641.559l-24.063-13.95-10.878,6.257a14.6,14.6,0,0,1-14.6,0l-61.554-35.36c-3.509-2.026-2.931-4.6.589-6.6l12.549-7.137-21.334-12.369a29.2,29.2,0,0,0-29.092-.089l-335.625,190.886c-7.038,4.014-8.194,9.157-1.177,13.209l123.108,70.72a29.2,29.2,0,0,0,29.21,0L3017.1,1655.081C3024.089,1651.043,3023.117,1645.6,3016.128,1641.559Z" transform="translate(-2504.679 -1553.838)" fill="url(#linear-gradient-2)"/>
      </g>
      <path id="Path_1781" data-name="Path 1781" d="M3174.67,1822.713l19.986-11.695a1.344,1.344,0,0,1,2.022,1.164l-.016,4.523a3.2,3.2,0,0,1-1.583,2.749l-19.954,11.676a1.344,1.344,0,0,1-2.022-1.155l-.017-4.491A3.2,3.2,0,0,1,3174.67,1822.713Z" transform="translate(-2752.744 -1646.781)" fill="url(#linear-gradient-2)"/>
      <path id="Path_1782" data-name="Path 1782" d="M3194.309,1810.744l-19.986,11.695a3.2,3.2,0,0,0-1.583,2.772l.017,4.491a1.326,1.326,0,0,0,.6,1.112,2.032,2.032,0,0,1-1.186-1.563l-.017-4.491a3.2,3.2,0,0,1,1.583-2.772l19.986-11.694a1.94,1.94,0,0,1,2.459,1A1.344,1.344,0,0,0,3194.309,1810.744Z" transform="translate(-2752.387 -1646.513)" fill="#002e80"/>
      <path id="Path_1783" data-name="Path 1783" d="M3222.7,1794.606l19.986-11.7a1.344,1.344,0,0,1,2.022,1.165l-.015,4.523a3.2,3.2,0,0,1-1.583,2.749l-19.955,11.676a1.343,1.343,0,0,1-2.021-1.155l-.017-4.49A3.2,3.2,0,0,1,3222.7,1794.606Z" transform="translate(-2771.165 -1636.002)" fill="url(#linear-gradient-2)"/>
      <path id="Path_1784" data-name="Path 1784" d="M3242.344,1782.637l-19.986,11.695a3.2,3.2,0,0,0-1.583,2.772l.017,4.49a1.327,1.327,0,0,0,.6,1.112,2.033,2.033,0,0,1-1.186-1.563l-.017-4.49a3.2,3.2,0,0,1,1.583-2.772l19.986-11.695a1.941,1.941,0,0,1,2.459,1A1.344,1.344,0,0,0,3242.344,1782.637Z" transform="translate(-2770.807 -1635.734)" fill="#5959b2"/>
    </g>
    <g id="Coin" transform="translate(2539.271 1632.798)">
      <ellipse id="Ellipse_544" data-name="Ellipse 544" cx="23.105" cy="11.922" rx="23.105" ry="11.922" transform="translate(48.916 15.233)" fill="url(#linear-gradient)"/>
      <ellipse id="Ellipse_545" data-name="Ellipse 545" cx="24.657" cy="12.722" rx="24.657" ry="12.722" transform="translate(1.11 29.023)" fill="url(#linear-gradient)"/>
      <g id="Group_856" data-name="Group 856" transform="translate(50.692 4.613)">
        <ellipse id="Ellipse_546" data-name="Ellipse 546" cx="21.329" cy="12.279" rx="21.329" ry="12.279" transform="translate(0)" fill="#ff9e26"/>
        <g id="Group_851" data-name="Group 851" transform="translate(0 12.106)">
          <path id="Path_1785" data-name="Path 1785" d="M2651.35,1832.036h0v.063C2651.348,1832.079,2651.349,1832.058,2651.35,1832.036Z" transform="translate(-2651.347 -1831.954)" fill="#f3aa66"/>
          <path id="Path_1786" data-name="Path 1786" d="M2720.534,1831.981v-.078h0C2720.533,1831.929,2720.533,1831.956,2720.534,1831.981Z" transform="translate(-2677.879 -1831.903)" fill="#f3aa66"/>
          <path id="Path_1787" data-name="Path 1787" d="M2694,1832.289c-.084,6.74-9.6,12.189-21.326,12.189-11.764,0-21.3-5.483-21.328-12.251,0,.64,0,3.811,0,5.843,0,6.781,9.549,12.279,21.329,12.279s21.328-5.5,21.328-12.279C2694,1835.942,2694,1833.146,2694,1832.289Z" transform="translate(-2651.347 -1832.027)" fill="#ef6100"/>
        </g>
        <ellipse id="Ellipse_547" data-name="Ellipse 547" cx="15.786" cy="8.602" rx="15.786" ry="8.602" transform="translate(5.543 4.162)" fill="#ff7e27"/>
        <path id="Path_1788" data-name="Path 1788" d="M2688.883,1832.37l-1.958,1.128-1.14-.654a37.6,37.6,0,0,1-4.592,1.661l-3.278-1.909s6.274-1.254,6.915-2.586-2.689-.707-3.567-.5c-2.132.49-6.209,2.243-8.645-.39-1.793-1.938.281-3.964.281-3.964l-1.167-.608,1.858-1.023,1.12.616a11.724,11.724,0,0,1,4.938-1.686l2.91,1.6s-8.009,1.525-6.553,3.161c0,0,.93.8,3.542-.218,2.467-.639,6.7-1.972,9.219.914a2.482,2.482,0,0,1,.219,2.6,2.377,2.377,0,0,1-1.188,1.191Z" transform="translate(-2659.165 -1816.173)" fill="#ef6100"/>
        <path id="Path_1789" data-name="Path 1789" d="M2676.124,1818.414c8.573,0,15.55,3.724,15.78,8.366,0-.083.006-.166.006-.25,0-5.019-7.068-9.088-15.786-9.088s-15.787,4.069-15.787,9.088c0,.084,0,.167.006.25C2660.573,1822.138,2667.55,1818.414,2676.124,1818.414Z" transform="translate(-2654.794 -1814.252)" fill="#ef6100"/>
        <g id="Group_852" data-name="Group 852" transform="translate(0.21 13.999)">
          <path id="Path_1790" data-name="Path 1790" d="M2652.76,1843.314v-5.858a8.315,8.315,0,0,1-1.073-2.483v5.858A8.31,8.31,0,0,0,2652.76,1843.314Z" transform="translate(-2651.687 -1834.973)" fill="#ff9e26"/>
        </g>
        <g id="Group_853" data-name="Group 853" transform="translate(2.362 17.899)">
          <path id="Path_1791" data-name="Path 1791" d="M2656.251,1848.223v-5.86a13.076,13.076,0,0,1-1.073-1.063v5.86A13.273,13.273,0,0,0,2656.251,1848.223Z" transform="translate(-2655.178 -1841.3)" fill="#ff9e26"/>
        </g>
        <path id="Path_1792" data-name="Path 1792" d="M2659.743,1851.027v-5.86q-.561-.352-1.074-.73v5.859Q2659.181,1850.673,2659.743,1851.027Z" transform="translate(-2654.155 -1824.604)" fill="#ff9e26"/>
        <path id="Path_1793" data-name="Path 1793" d="M2663.234,1853.053v-5.859q-.553-.263-1.073-.548v5.86Q2662.681,1852.79,2663.234,1853.053Z" transform="translate(-2655.494 -1825.451)" fill="#ff9e26"/>
        <path id="Path_1794" data-name="Path 1794" d="M2666.725,1854.594v-5.86q-.548-.2-1.073-.421v5.859Q2666.177,1854.393,2666.725,1854.594Z" transform="translate(-2656.833 -1826.09)" fill="#ff9e26"/>
        <path id="Path_1795" data-name="Path 1795" d="M2670.217,1855.778v-5.86q-.546-.152-1.073-.322v5.859Q2669.671,1855.625,2670.217,1855.778Z" transform="translate(-2658.172 -1826.582)" fill="#ff9e26"/>
        <path id="Path_1796" data-name="Path 1796" d="M2673.708,1856.669v-5.86q-.543-.111-1.074-.238v5.86Q2673.164,1856.558,2673.708,1856.669Z" transform="translate(-2659.51 -1826.956)" fill="#ff9e26"/>
        <path id="Path_1797" data-name="Path 1797" d="M2677.2,1857.309v-5.86q-.542-.074-1.073-.165v5.86Q2676.657,1857.235,2677.2,1857.309Z" transform="translate(-2660.849 -1827.229)" fill="#ff9e26"/>
        <path id="Path_1798" data-name="Path 1798" d="M2680.69,1857.724v-5.859q-.541-.041-1.073-.1v5.859Q2680.15,1857.683,2680.69,1857.724Z" transform="translate(-2662.188 -1827.414)" fill="#ff9e26"/>
        <path id="Path_1799" data-name="Path 1799" d="M2684.181,1857.927v-5.86q-.54-.009-1.073-.035v5.86Q2683.642,1857.917,2684.181,1857.927Z" transform="translate(-2663.527 -1827.516)" fill="#ff9e26"/>
        <path id="Path_1800" data-name="Path 1800" d="M2687.674,1857.91v-5.859q-.534.02-1.073.026v5.86Q2687.14,1857.932,2687.674,1857.91Z" transform="translate(-2664.866 -1827.524)" fill="#ff9e26"/>
        <path id="Path_1801" data-name="Path 1801" d="M2691.165,1857.67v-5.859q-.533.052-1.073.089v5.86Q2690.632,1857.723,2691.165,1857.67Z" transform="translate(-2666.205 -1827.432)" fill="#ff9e26"/>
        <path id="Path_1802" data-name="Path 1802" d="M2694.655,1857.218v-5.86q-.53.086-1.073.156v5.86Q2694.125,1857.3,2694.655,1857.218Z" transform="translate(-2667.544 -1827.258)" fill="#ff9e26"/>
        <path id="Path_1803" data-name="Path 1803" d="M2698.147,1856.533v-5.859q-.531.122-1.074.229v5.86Q2697.617,1856.656,2698.147,1856.533Z" transform="translate(-2668.882 -1826.996)" fill="#ff9e26"/>
        <path id="Path_1804" data-name="Path 1804" d="M2701.638,1855.594v-5.86q-.528.164-1.073.309v5.86Q2701.11,1855.757,2701.638,1855.594Z" transform="translate(-2670.221 -1826.635)" fill="#ff9e26"/>
        <path id="Path_1805" data-name="Path 1805" d="M2705.189,1854.328v-5.863q-.526.212-1.074.406v5.864Q2704.663,1854.54,2705.189,1854.328Z" transform="translate(-2671.582 -1826.148)" fill="#ff9e26"/>
        <path id="Path_1806" data-name="Path 1806" d="M2708.621,1852.739v-5.859q-.52.274-1.073.528v5.859Q2708.1,1853.014,2708.621,1852.739Z" transform="translate(-2672.899 -1825.541)" fill="#ff9e26"/>
        <path id="Path_1807" data-name="Path 1807" d="M2712.112,1850.609v-5.859q-.514.363-1.074.7v5.859Q2711.6,1850.973,2712.112,1850.609Z" transform="translate(-2674.238 -1824.724)" fill="#ff9e26"/>
        <g id="Group_854" data-name="Group 854" transform="translate(38.953 18.19)">
          <path id="Path_1808" data-name="Path 1808" d="M2715.6,1847.63v-5.859a13.7,13.7,0,0,1-1.073,1.005v5.86A13.618,13.618,0,0,0,2715.6,1847.63Z" transform="translate(-2714.53 -1841.771)" fill="#ff9e26"/>
        </g>
        <g id="Group_855" data-name="Group 855" transform="translate(41.105 14.872)">
          <path id="Path_1809" data-name="Path 1809" d="M2719.095,1842.248v-5.858a8.917,8.917,0,0,1-1.074,2.01v5.859A8.91,8.91,0,0,0,2719.095,1842.248Z" transform="translate(-2718.021 -1836.39)" fill="#ff9e26"/>
        </g>
      </g>
      <g id="Group_862" data-name="Group 862" transform="translate(4.438 20.123)">
        <ellipse id="Ellipse_548" data-name="Ellipse 548" cx="21.328" cy="12.279" rx="21.328" ry="12.279" fill="#ff9e26"/>
        <g id="Group_857" data-name="Group 857" transform="translate(0 12.106)">
          <path id="Path_1810" data-name="Path 1810" d="M2576.324,1857.194h0v.063C2576.323,1857.236,2576.324,1857.216,2576.324,1857.194Z" transform="translate(-2576.322 -1857.112)" fill="#f3aa66"/>
          <path id="Path_1811" data-name="Path 1811" d="M2645.508,1857.139v-.078h0C2645.508,1857.087,2645.508,1857.113,2645.508,1857.139Z" transform="translate(-2602.854 -1857.061)" fill="#f3aa66"/>
          <path id="Path_1812" data-name="Path 1812" d="M2618.977,1857.447c-.084,6.74-9.6,12.189-21.327,12.189-11.764,0-21.3-5.483-21.328-12.251,0,.64,0,3.811,0,5.843,0,6.781,9.549,12.279,21.328,12.279s21.329-5.5,21.329-12.279C2618.979,1861.1,2618.977,1858.3,2618.977,1857.447Z" transform="translate(-2576.322 -1857.185)" fill="#ef6100"/>
        </g>
        <ellipse id="Ellipse_549" data-name="Ellipse 549" cx="15.786" cy="8.602" rx="15.786" ry="8.602" transform="translate(5.542 4.163)" fill="#ff7e27"/>
        <path id="Path_1813" data-name="Path 1813" d="M2613.858,1857.528l-1.958,1.129-1.141-.655a37.615,37.615,0,0,1-4.592,1.661l-3.278-1.909s6.273-1.254,6.914-2.586-2.689-.707-3.567-.5c-2.132.49-6.209,2.243-8.645-.39-1.793-1.938.281-3.964.281-3.964l-1.167-.608,1.857-1.024,1.121.617a11.724,11.724,0,0,1,4.937-1.686l2.911,1.6s-8.01,1.526-6.553,3.161c0,0,.929.8,3.542-.218,2.467-.639,6.7-1.972,9.218.914a2.482,2.482,0,0,1,.219,2.6,2.381,2.381,0,0,1-1.189,1.191Z" transform="translate(-2584.14 -1841.33)" fill="#dd905b"/>
        <path id="Path_1814" data-name="Path 1814" d="M2601.1,1843.572c8.574,0,15.55,3.724,15.78,8.365,0-.083.006-.166.006-.25,0-5.019-7.068-9.088-15.786-9.088s-15.786,4.069-15.786,9.088c0,.083,0,.167.006.25C2585.548,1847.3,2592.525,1843.572,2601.1,1843.572Z" transform="translate(-2579.77 -1839.41)" fill="#dd905b"/>
        <g id="Group_858" data-name="Group 858" transform="translate(0.21 13.999)">
          <path id="Path_1815" data-name="Path 1815" d="M2577.736,1868.472v-5.859a8.312,8.312,0,0,1-1.074-2.483v5.857A8.319,8.319,0,0,0,2577.736,1868.472Z" transform="translate(-2576.662 -1860.131)" fill="#ff9e26"/>
        </g>
        <g id="Group_859" data-name="Group 859" transform="translate(2.362 17.899)">
          <path id="Path_1816" data-name="Path 1816" d="M2581.227,1873.38v-5.859a13.017,13.017,0,0,1-1.073-1.063v5.859A13.056,13.056,0,0,0,2581.227,1873.38Z" transform="translate(-2580.153 -1866.458)" fill="#ff9e26"/>
        </g>
        <path id="Path_1817" data-name="Path 1817" d="M2584.718,1876.185v-5.86q-.56-.352-1.073-.731v5.859Q2584.156,1875.831,2584.718,1876.185Z" transform="translate(-2579.13 -1849.761)" fill="#ff9e26"/>
        <path id="Path_1818" data-name="Path 1818" d="M2588.209,1878.211v-5.859q-.553-.264-1.074-.547v5.86Q2587.655,1877.948,2588.209,1878.211Z" transform="translate(-2580.469 -1850.609)" fill="#ff9e26"/>
        <path id="Path_1819" data-name="Path 1819" d="M2591.7,1879.753v-5.86q-.548-.2-1.073-.42v5.859C2590.977,1879.478,2591.335,1879.619,2591.7,1879.753Z" transform="translate(-2581.808 -1851.249)" fill="#ff9e26"/>
        <path id="Path_1820" data-name="Path 1820" d="M2595.191,1880.935v-5.859q-.546-.152-1.073-.322v5.859Q2594.646,1880.783,2595.191,1880.935Z" transform="translate(-2583.146 -1851.74)" fill="#ff9e26"/>
        <path id="Path_1821" data-name="Path 1821" d="M2598.683,1881.827v-5.86c-.362-.074-.721-.153-1.074-.238v5.86C2597.962,1881.673,2598.321,1881.753,2598.683,1881.827Z" transform="translate(-2584.485 -1852.114)" fill="#ff9e26"/>
        <path id="Path_1822" data-name="Path 1822" d="M2602.174,1882.467v-5.86q-.542-.074-1.074-.165v5.86Q2601.632,1882.393,2602.174,1882.467Z" transform="translate(-2585.824 -1852.387)" fill="#ff9e26"/>
        <path id="Path_1823" data-name="Path 1823" d="M2605.666,1882.881v-5.859c-.361-.028-.719-.06-1.073-.1v5.859C2604.947,1882.822,2605.305,1882.854,2605.666,1882.881Z" transform="translate(-2587.163 -1852.572)" fill="#ff9e26"/>
        <path id="Path_1824" data-name="Path 1824" d="M2609.157,1883.084v-5.86q-.54-.01-1.073-.035v5.86Q2608.616,1883.075,2609.157,1883.084Z" transform="translate(-2588.502 -1852.674)" fill="#ff9e26"/>
        <path id="Path_1825" data-name="Path 1825" d="M2612.648,1883.069v-5.86q-.533.021-1.074.027v5.86Q2612.115,1883.09,2612.648,1883.069Z" transform="translate(-2589.841 -1852.682)" fill="#ff9e26"/>
        <path id="Path_1826" data-name="Path 1826" d="M2616.139,1882.828v-5.86q-.533.053-1.073.09v5.86Q2615.607,1882.881,2616.139,1882.828Z" transform="translate(-2591.18 -1852.589)" fill="#ff9e26"/>
        <path id="Path_1827" data-name="Path 1827" d="M2619.631,1882.375v-5.859q-.531.086-1.074.156v5.86Q2619.1,1882.461,2619.631,1882.375Z" transform="translate(-2592.519 -1852.416)" fill="#ff9e26"/>
        <path id="Path_1828" data-name="Path 1828" d="M2623.122,1881.691v-5.859c-.353.081-.711.159-1.073.229v5.86Q2622.592,1881.814,2623.122,1881.691Z" transform="translate(-2593.857 -1852.153)" fill="#ff9e26"/>
        <path id="Path_1829" data-name="Path 1829" d="M2626.613,1880.752v-5.86q-.528.164-1.074.309v5.86Q2626.085,1880.914,2626.613,1880.752Z" transform="translate(-2595.197 -1851.793)" fill="#ff9e26"/>
        <path id="Path_1830" data-name="Path 1830" d="M2630.163,1879.486v-5.863q-.526.212-1.073.406v5.864C2629.455,1879.764,2629.813,1879.628,2630.163,1879.486Z" transform="translate(-2596.558 -1851.306)" fill="#ff9e26"/>
        <path id="Path_1831" data-name="Path 1831" d="M2633.6,1877.9v-5.859q-.52.275-1.073.528v5.859Q2633.074,1878.172,2633.6,1877.9Z" transform="translate(-2597.874 -1850.699)" fill="#ff9e26"/>
        <path id="Path_1832" data-name="Path 1832" d="M2637.087,1875.767v-5.859q-.514.363-1.074.7v5.859Q2636.573,1876.131,2637.087,1875.767Z" transform="translate(-2599.212 -1849.882)" fill="#ff9e26"/>
        <g id="Group_860" data-name="Group 860" transform="translate(38.953 18.189)">
          <path id="Path_1833" data-name="Path 1833" d="M2640.578,1872.788v-5.86a13.544,13.544,0,0,1-1.074,1.005v5.86A13.568,13.568,0,0,0,2640.578,1872.788Z" transform="translate(-2639.504 -1866.928)" fill="#ff9e26"/>
        </g>
        <g id="Group_861" data-name="Group 861" transform="translate(41.105 14.872)">
          <path id="Path_1834" data-name="Path 1834" d="M2644.069,1867.406v-5.858a8.981,8.981,0,0,1-1.073,2.01v5.859A8.989,8.989,0,0,0,2644.069,1867.406Z" transform="translate(-2642.996 -1861.548)" fill="#ff9e26"/>
        </g>
      </g>
      <g id="Group_868" data-name="Group 868" transform="translate(7.131 9.232)">
        <ellipse id="Ellipse_550" data-name="Ellipse 550" cx="21.328" cy="12.279" rx="21.328" ry="12.279" fill="#ff9e26"/>
        <g id="Group_863" data-name="Group 863" transform="translate(0 12.106)">
          <path id="Path_1835" data-name="Path 1835" d="M2580.692,1839.529h0v.063C2580.691,1839.571,2580.692,1839.55,2580.692,1839.529Z" transform="translate(-2580.69 -1839.447)" fill="#f3aa66"/>
          <path id="Path_1836" data-name="Path 1836" d="M2649.876,1839.474v-.078h0C2649.875,1839.422,2649.876,1839.448,2649.876,1839.474Z" transform="translate(-2607.221 -1839.396)" fill="#f3aa66"/>
          <path id="Path_1837" data-name="Path 1837" d="M2623.345,1839.782c-.084,6.74-9.6,12.189-21.326,12.189-11.764,0-21.3-5.483-21.328-12.252,0,.64,0,3.811,0,5.843,0,6.782,9.549,12.279,21.328,12.279s21.328-5.5,21.328-12.279C2623.346,1843.434,2623.345,1840.638,2623.345,1839.782Z" transform="translate(-2580.69 -1839.52)" fill="#ef6100"/>
        </g>
        <ellipse id="Ellipse_551" data-name="Ellipse 551" cx="15.786" cy="8.602" rx="15.786" ry="8.602" transform="translate(5.542 4.163)" fill="#ff7e27"/>
        <path id="Path_1838" data-name="Path 1838" d="M2618.226,1839.862l-1.959,1.128-1.14-.654a37.615,37.615,0,0,1-4.591,1.661l-3.278-1.909s6.273-1.255,6.914-2.586-2.689-.707-3.567-.5c-2.132.491-6.209,2.243-8.644-.389-1.794-1.937.28-3.964.28-3.964l-1.167-.608,1.857-1.023,1.121.616a11.72,11.72,0,0,1,4.938-1.686l2.91,1.6s-8.009,1.525-6.554,3.161c0,0,.93.8,3.543-.218,2.467-.638,6.7-1.971,9.219.914a2.48,2.48,0,0,1,.219,2.6,2.384,2.384,0,0,1-1.189,1.192Z" transform="translate(-2588.507 -1823.665)" fill="#dd905b"/>
        <path id="Path_1839" data-name="Path 1839" d="M2605.466,1825.907c8.573,0,15.551,3.724,15.781,8.365,0-.083.006-.166.006-.249,0-5.019-7.068-9.088-15.787-9.088s-15.786,4.069-15.786,9.088c0,.083,0,.167.006.249C2589.916,1829.631,2596.893,1825.907,2605.466,1825.907Z" transform="translate(-2584.137 -1821.744)" fill="#e55c00"/>
        <g id="Group_864" data-name="Group 864" transform="translate(0.209 13.999)">
          <path id="Path_1840" data-name="Path 1840" d="M2582.1,1850.808v-5.859a8.335,8.335,0,0,1-1.074-2.483v5.858A8.334,8.334,0,0,0,2582.1,1850.808Z" transform="translate(-2581.029 -1842.466)" fill="#ff9e26"/>
        </g>
        <g id="Group_865" data-name="Group 865" transform="translate(2.362 17.9)">
          <path id="Path_1841" data-name="Path 1841" d="M2585.594,1855.715v-5.859a13.071,13.071,0,0,1-1.073-1.063v5.859A13.032,13.032,0,0,0,2585.594,1855.715Z" transform="translate(-2584.521 -1848.793)" fill="#ff9e26"/>
        </g>
        <path id="Path_1842" data-name="Path 1842" d="M2589.085,1858.519v-5.859q-.561-.353-1.073-.731v5.859Q2588.524,1858.166,2589.085,1858.519Z" transform="translate(-2583.498 -1832.096)" fill="#ff9e26"/>
        <path id="Path_1843" data-name="Path 1843" d="M2592.576,1860.546v-5.859q-.553-.264-1.073-.547V1860Q2592.024,1860.282,2592.576,1860.546Z" transform="translate(-2584.837 -1832.944)" fill="#ff9e26"/>
        <path id="Path_1844" data-name="Path 1844" d="M2596.068,1862.087v-5.86q-.549-.2-1.074-.421v5.86Q2595.519,1861.885,2596.068,1862.087Z" transform="translate(-2586.175 -1833.583)" fill="#ff9e26"/>
        <path id="Path_1845" data-name="Path 1845" d="M2599.559,1863.27v-5.859q-.545-.153-1.073-.323v5.86Q2599.014,1863.117,2599.559,1863.27Z" transform="translate(-2587.514 -1834.074)" fill="#ff9e26"/>
        <path id="Path_1846" data-name="Path 1846" d="M2603.05,1864.161V1858.3q-.543-.111-1.073-.238v5.86Q2602.507,1864.051,2603.05,1864.161Z" transform="translate(-2588.853 -1834.449)" fill="#ff9e26"/>
        <path id="Path_1847" data-name="Path 1847" d="M2606.541,1864.8v-5.859q-.542-.075-1.073-.165v5.859Q2606,1864.727,2606.541,1864.8Z" transform="translate(-2590.192 -1834.722)" fill="#ff9e26"/>
        <path id="Path_1848" data-name="Path 1848" d="M2610.033,1865.216v-5.86c-.36-.027-.719-.06-1.073-.1v5.86C2609.314,1865.156,2609.673,1865.188,2610.033,1865.216Z" transform="translate(-2591.531 -1834.907)" fill="#ff9e26"/>
        <path id="Path_1849" data-name="Path 1849" d="M2613.524,1865.419v-5.859c-.36-.007-.718-.018-1.073-.035v5.859C2612.806,1865.4,2613.165,1865.413,2613.524,1865.419Z" transform="translate(-2592.87 -1835.009)" fill="#ff9e26"/>
        <path id="Path_1850" data-name="Path 1850" d="M2617.015,1865.4v-5.86q-.533.022-1.073.027v5.86Q2616.482,1865.424,2617.015,1865.4Z" transform="translate(-2594.208 -1835.016)" fill="#ff9e26"/>
        <path id="Path_1851" data-name="Path 1851" d="M2620.507,1865.163v-5.86q-.533.053-1.074.09v5.859Q2619.974,1865.215,2620.507,1865.163Z" transform="translate(-2595.547 -1834.924)" fill="#ff9e26"/>
        <path id="Path_1852" data-name="Path 1852" d="M2624,1864.71v-5.86q-.532.086-1.073.157v5.859Q2623.467,1864.8,2624,1864.71Z" transform="translate(-2596.886 -1834.75)" fill="#ff9e26"/>
        <path id="Path_1853" data-name="Path 1853" d="M2627.49,1864.026v-5.86q-.53.123-1.073.229v5.86C2626.779,1864.185,2627.136,1864.107,2627.49,1864.026Z" transform="translate(-2598.225 -1834.488)" fill="#ff9e26"/>
        <path id="Path_1854" data-name="Path 1854" d="M2630.98,1863.086v-5.859q-.527.163-1.073.309v5.86Q2630.453,1863.25,2630.98,1863.086Z" transform="translate(-2599.564 -1834.128)" fill="#ff9e26"/>
        <path id="Path_1855" data-name="Path 1855" d="M2634.531,1861.82v-5.863q-.526.213-1.073.407v5.864Q2634.005,1862.033,2634.531,1861.82Z" transform="translate(-2600.926 -1833.641)" fill="#ff9e26"/>
        <path id="Path_1856" data-name="Path 1856" d="M2637.964,1860.232v-5.859q-.521.274-1.073.528v5.859Q2637.442,1860.507,2637.964,1860.232Z" transform="translate(-2602.242 -1833.033)" fill="#ff9e26"/>
        <path id="Path_1857" data-name="Path 1857" d="M2641.455,1858.1v-5.859q-.514.364-1.073.7v5.859Q2640.941,1858.465,2641.455,1858.1Z" transform="translate(-2603.581 -1832.216)" fill="#ff9e26"/>
        <g id="Group_866" data-name="Group 866" transform="translate(38.953 18.189)">
          <path id="Path_1858" data-name="Path 1858" d="M2644.945,1855.122v-5.859a13.58,13.58,0,0,1-1.074,1.006v5.86A13.7,13.7,0,0,0,2644.945,1855.122Z" transform="translate(-2643.872 -1849.263)" fill="#ff9e26"/>
        </g>
        <g id="Group_867" data-name="Group 867" transform="translate(41.105 14.872)">
          <path id="Path_1859" data-name="Path 1859" d="M2648.437,1849.74v-5.858a8.932,8.932,0,0,1-1.074,2.011v5.859A8.946,8.946,0,0,0,2648.437,1849.74Z" transform="translate(-2647.363 -1843.882)" fill="#ff9e26"/>
        </g>
      </g>
      <g id="Group_874" data-name="Group 874" transform="translate(0)">
        <ellipse id="Ellipse_552" data-name="Ellipse 552" cx="21.329" cy="12.279" rx="21.329" ry="12.279" fill="#ff9e26"/>
        <g id="Group_869" data-name="Group 869" transform="translate(0 12.106)">
          <path id="Path_1860" data-name="Path 1860" d="M2569.125,1824.554h0v.063C2569.124,1824.6,2569.125,1824.576,2569.125,1824.554Z" transform="translate(-2569.123 -1824.472)" fill="#f3aa66"/>
          <path id="Path_1861" data-name="Path 1861" d="M2638.309,1824.5v-.078h0C2638.308,1824.447,2638.309,1824.473,2638.309,1824.5Z" transform="translate(-2595.655 -1824.421)" fill="#f3aa66"/>
          <path id="Path_1862" data-name="Path 1862" d="M2611.778,1824.807c-.084,6.74-9.6,12.189-21.326,12.189-11.764,0-21.3-5.482-21.328-12.251,0,.64,0,3.811,0,5.844,0,6.781,9.549,12.279,21.328,12.279s21.328-5.5,21.328-12.279C2611.78,1828.46,2611.778,1825.664,2611.778,1824.807Z" transform="translate(-2569.123 -1824.545)" fill="#ef6100"/>
        </g>
        <ellipse id="Ellipse_553" data-name="Ellipse 553" cx="15.786" cy="8.602" rx="15.786" ry="8.602" transform="translate(5.542 4.163)" fill="#ff7e27"/>
        <path id="Path_1863" data-name="Path 1863" d="M2606.659,1824.888l-1.959,1.128-1.139-.654a37.594,37.594,0,0,1-4.592,1.662l-3.278-1.909s6.274-1.254,6.914-2.586-2.689-.706-3.567-.5c-2.132.49-6.209,2.243-8.645-.39-1.793-1.938.28-3.964.28-3.964l-1.167-.608,1.857-1.023,1.121.617a11.729,11.729,0,0,1,4.938-1.686l2.911,1.6s-8.01,1.525-6.554,3.161c0,0,.929.8,3.542-.218,2.467-.639,6.7-1.972,9.218.914a2.482,2.482,0,0,1,.219,2.6,2.382,2.382,0,0,1-1.188,1.191Z" transform="translate(-2576.94 -1808.691)" fill="#ef6100"/>
        <path id="Path_1864" data-name="Path 1864" d="M2593.9,1810.932c8.573,0,15.55,3.724,15.78,8.366,0-.083.006-.166.006-.25,0-5.019-7.068-9.088-15.786-9.088s-15.786,4.069-15.786,9.088c0,.084,0,.166.006.25C2578.349,1814.657,2585.326,1810.932,2593.9,1810.932Z" transform="translate(-2572.571 -1806.77)" fill="#ef6100"/>
        <g id="Group_870" data-name="Group 870" transform="translate(0.209 13.999)">
          <path id="Path_1865" data-name="Path 1865" d="M2570.536,1835.832v-5.858a8.336,8.336,0,0,1-1.074-2.483v5.858A8.307,8.307,0,0,0,2570.536,1835.832Z" transform="translate(-2569.462 -1827.491)" fill="#ff9e26"/>
        </g>
        <g id="Group_871" data-name="Group 871" transform="translate(2.362 17.899)">
          <path id="Path_1866" data-name="Path 1866" d="M2574.028,1840.741v-5.86a13.092,13.092,0,0,1-1.073-1.063v5.86A13.273,13.273,0,0,0,2574.028,1840.741Z" transform="translate(-2572.954 -1833.818)" fill="#ff9e26"/>
        </g>
        <path id="Path_1867" data-name="Path 1867" d="M2577.518,1843.545v-5.86q-.561-.352-1.073-.73v5.859Q2576.958,1843.191,2577.518,1843.545Z" transform="translate(-2571.931 -1817.122)" fill="#ff9e26"/>
        <path id="Path_1868" data-name="Path 1868" d="M2581.01,1845.571v-5.859q-.552-.263-1.073-.547v5.86Q2580.457,1845.308,2581.01,1845.571Z" transform="translate(-2573.27 -1817.969)" fill="#ff9e26"/>
        <path id="Path_1869" data-name="Path 1869" d="M2584.5,1847.112v-5.86q-.549-.2-1.074-.42v5.859Q2583.953,1846.912,2584.5,1847.112Z" transform="translate(-2574.609 -1818.609)" fill="#ff9e26"/>
        <path id="Path_1870" data-name="Path 1870" d="M2587.992,1848.3v-5.86q-.545-.152-1.073-.322v5.859Q2587.447,1848.143,2587.992,1848.3Z" transform="translate(-2575.948 -1819.1)" fill="#ff9e26"/>
        <path id="Path_1871" data-name="Path 1871" d="M2591.483,1849.187v-5.86q-.544-.111-1.073-.238v5.86Q2590.94,1849.075,2591.483,1849.187Z" transform="translate(-2577.286 -1819.474)" fill="#ff9e26"/>
        <path id="Path_1872" data-name="Path 1872" d="M2594.975,1849.827v-5.86q-.543-.074-1.074-.165v5.86Q2594.433,1849.753,2594.975,1849.827Z" transform="translate(-2578.625 -1819.747)" fill="#ff9e26"/>
        <path id="Path_1873" data-name="Path 1873" d="M2598.467,1850.242v-5.859q-.541-.041-1.074-.1v5.859Q2597.925,1850.2,2598.467,1850.242Z" transform="translate(-2579.964 -1819.933)" fill="#ff9e26"/>
        <path id="Path_1874" data-name="Path 1874" d="M2601.958,1850.445v-5.86q-.54-.009-1.074-.035v5.86C2601.239,1850.427,2601.6,1850.438,2601.958,1850.445Z" transform="translate(-2581.303 -1820.034)" fill="#ff9e26"/>
        <path id="Path_1875" data-name="Path 1875" d="M2605.448,1850.428v-5.859c-.355.013-.714.022-1.073.026v5.86C2604.735,1850.452,2605.094,1850.442,2605.448,1850.428Z" transform="translate(-2582.642 -1820.042)" fill="#ff9e26"/>
        <path id="Path_1876" data-name="Path 1876" d="M2608.94,1850.188v-5.859q-.532.052-1.074.089v5.86Q2608.407,1850.241,2608.94,1850.188Z" transform="translate(-2583.98 -1819.949)" fill="#ff9e26"/>
        <path id="Path_1877" data-name="Path 1877" d="M2612.431,1849.735v-5.859q-.532.086-1.073.156v5.86Q2611.9,1849.822,2612.431,1849.735Z" transform="translate(-2585.32 -1819.776)" fill="#ff9e26"/>
        <path id="Path_1878" data-name="Path 1878" d="M2615.923,1849.052v-5.86q-.53.122-1.073.229v5.859Q2615.393,1849.174,2615.923,1849.052Z" transform="translate(-2586.658 -1819.513)" fill="#ff9e26"/>
        <path id="Path_1879" data-name="Path 1879" d="M2619.414,1848.112v-5.86q-.527.164-1.073.31v5.86Q2618.886,1848.276,2619.414,1848.112Z" transform="translate(-2587.997 -1819.153)" fill="#ff9e26"/>
        <path id="Path_1880" data-name="Path 1880" d="M2622.965,1846.846v-5.863q-.525.212-1.073.406v5.865Q2622.439,1847.058,2622.965,1846.846Z" transform="translate(-2589.359 -1818.667)" fill="#ff9e26"/>
        <path id="Path_1881" data-name="Path 1881" d="M2626.4,1845.257V1839.4c-.347.183-.706.359-1.073.528v5.859Q2625.874,1845.531,2626.4,1845.257Z" transform="translate(-2590.675 -1818.059)" fill="#ff9e26"/>
        <path id="Path_1882" data-name="Path 1882" d="M2629.887,1843.127v-5.859q-.514.363-1.073.7v5.859Q2629.374,1843.491,2629.887,1843.127Z" transform="translate(-2592.014 -1817.242)" fill="#ff9e26"/>
        <g id="Group_872" data-name="Group 872" transform="translate(38.953 18.19)">
          <path id="Path_1883" data-name="Path 1883" d="M2633.379,1840.148v-5.859a13.751,13.751,0,0,1-1.073,1.005v5.86A13.618,13.618,0,0,0,2633.379,1840.148Z" transform="translate(-2632.305 -1834.289)" fill="#ff9e26"/>
        </g>
        <g id="Group_873" data-name="Group 873" transform="translate(41.105 14.872)">
          <path id="Path_1884" data-name="Path 1884" d="M2636.87,1834.766v-5.858a8.939,8.939,0,0,1-1.074,2.01v5.859A8.948,8.948,0,0,0,2636.87,1834.766Z" transform="translate(-2635.796 -1828.908)" fill="#ff9e26"/>
        </g>
      </g>
    </g>
    <g id="Credit_Card" data-name="Credit Card" transform="translate(2677.924 1486.008)">
      <path id="Path_1971" data-name="Path 1971" d="M2800.33,1567.1l78.821,45.49a5.729,5.729,0,0,1,2.865,4.959l.022,59.121a2.3,2.3,0,0,1-3.453,2l-79.955-46.129a5.729,5.729,0,0,1-2.866-4.961l0-57.835A3.048,3.048,0,0,1,2800.33,1567.1Z" transform="translate(-2794.688 -1566.689)" fill="#7070cc"/>
      <path id="Path_1972" data-name="Path 1972" d="M2798.592,1568.112l78.82,45.489a5.729,5.729,0,0,1,2.865,4.959l.022,59.121a2.3,2.3,0,0,1-3.453,1.995l-79.955-46.129a5.729,5.729,0,0,1-2.865-4.961l-.006-57.835A3.048,3.048,0,0,1,2798.592,1568.112Z" transform="translate(-2794.021 -1567.077)" fill="url(#linear-gradient)"/>
      <path id="Path_1973" data-name="Path 1973" d="M2885.114,1629.184l0,6.907,23.229,13.427,0-6.914Z" transform="translate(-2828.954 -1590.655)" fill="#fff"/>
      <path id="Path_1974" data-name="Path 1974" d="M2803.843,1600.463l0,10.467a1.578,1.578,0,0,0,.782,1.363l10.077,5.891a1.58,1.58,0,0,0,2.377-1.364l0-10.474a1.579,1.579,0,0,0-.783-1.363l-10.077-5.885A1.58,1.58,0,0,0,2803.843,1600.463Z" transform="translate(-2797.788 -1579.034)" fill="#ff9e26"/>
      <path id="Path_1975" data-name="Path 1975" d="M2897.717,1686.629l0,4.6,15.459,8.936,0-4.6Z" transform="translate(-2833.787 -1612.684)" fill="#fff"/>
      <path id="Path_1976" data-name="Path 1976" d="M2866.133,1668.234v4.6l15.459,8.936v-4.6Z" transform="translate(-2821.675 -1605.63)" fill="#fff"/>
      <path id="Path_1977" data-name="Path 1977" d="M2834.62,1649.991l0,4.6,15.459,8.936,0-4.6Z" transform="translate(-2809.59 -1598.634)" fill="#fff"/>
      <path id="Path_1978" data-name="Path 1978" d="M2803.843,1632.539l0,4.6,15.459,8.936,0-4.6Z" transform="translate(-2797.788 -1591.941)" fill="#fff"/>
      <path id="Path_1979" data-name="Path 1979" d="M2810.225,1659.675c.288,3.054-1.164,5.689-3.243,5.885s-4-2.121-4.286-5.175,1.164-5.688,3.244-5.885S2809.938,1656.621,2810.225,1659.675Z" transform="translate(-2797.334 -1600.359)" fill="#fc5d9d"/>
      <path id="Path_1980" data-name="Path 1980" d="M2817.919,1663.207c.288,3.054-1.164,5.689-3.243,5.884s-4-2.12-4.286-5.175,1.164-5.689,3.243-5.885S2817.631,1660.153,2817.919,1663.207Z" transform="translate(-2800.285 -1601.713)" fill="#ff9e26"/>
    </g>
    <g id="Credit_Card-2" data-name="Credit Card" transform="translate(2677.924 1406.928)">
      <path id="Path_1981" data-name="Path 1981" d="M2800.33,1438.831l78.821,45.49a5.73,5.73,0,0,1,2.865,4.959l.022,59.121a2.3,2.3,0,0,1-3.453,2l-79.955-46.129a5.729,5.729,0,0,1-2.866-4.961l0-57.835A3.048,3.048,0,0,1,2800.33,1438.831Z" transform="translate(-2794.688 -1438.419)" fill="#ef6100"/>
      <path id="Path_1982" data-name="Path 1982" d="M2798.592,1439.842l78.82,45.49a5.729,5.729,0,0,1,2.865,4.959l.022,59.121a2.3,2.3,0,0,1-3.453,2l-79.955-46.129a5.729,5.729,0,0,1-2.865-4.961l-.006-57.835A3.048,3.048,0,0,1,2798.592,1439.842Z" transform="translate(-2794.021 -1438.807)" fill="#ff9e26"/>
      <path id="Path_1983" data-name="Path 1983" d="M2885.114,1500.914l0,6.907,23.229,13.427,0-6.914Z" transform="translate(-2828.954 -1462.385)" fill="#fff"/>
      <path id="Path_1984" data-name="Path 1984" d="M2803.843,1472.193l0,10.467a1.578,1.578,0,0,0,.782,1.363l10.077,5.891a1.58,1.58,0,0,0,2.377-1.364l0-10.473a1.58,1.58,0,0,0-.783-1.364l-10.077-5.885A1.58,1.58,0,0,0,2803.843,1472.193Z" transform="translate(-2797.788 -1450.764)" fill="#ef6100"/>
      <path id="Path_1985" data-name="Path 1985" d="M2897.717,1558.359l0,4.6,15.459,8.936,0-4.6Z" transform="translate(-2833.787 -1484.414)" fill="#fff"/>
      <path id="Path_1986" data-name="Path 1986" d="M2866.133,1539.965v4.6l15.459,8.936v-4.6Z" transform="translate(-2821.675 -1477.36)" fill="#fff"/>
      <path id="Path_1987" data-name="Path 1987" d="M2834.62,1521.721l0,4.6,15.459,8.936,0-4.6Z" transform="translate(-2809.59 -1470.364)" fill="#fff"/>
      <path id="Path_1988" data-name="Path 1988" d="M2803.843,1504.269l0,4.6,15.459,8.936,0-4.6Z" transform="translate(-2797.788 -1463.672)" fill="#fff"/>
      <path id="Path_1989" data-name="Path 1989" d="M2810.225,1531.405c.288,3.054-1.164,5.689-3.243,5.885s-4-2.121-4.286-5.174,1.164-5.689,3.244-5.884S2809.938,1528.352,2810.225,1531.405Z" transform="translate(-2797.334 -1472.089)" fill="#171755"/>
      <path id="Path_1990" data-name="Path 1990" d="M2817.919,1534.937c.288,3.054-1.164,5.688-3.243,5.885s-4-2.121-4.286-5.175,1.164-5.689,3.243-5.884S2817.631,1531.883,2817.919,1534.937Z" transform="translate(-2800.285 -1473.443)" fill="url(#linear-gradient-2)"/>
    </g>
    <g id="Man" transform="translate(2597.106 1474.718)">
      <path id="Path_1991" data-name="Path 1991" d="M2764.939,1602.177l-11,18.543a2.72,2.72,0,0,0,.949,3.726l6.456,3.833a2.721,2.721,0,0,0,3.733-.955l10.987-18.606a2.72,2.72,0,0,0-.955-3.723l-6.448-3.769A2.721,2.721,0,0,0,2764.939,1602.177Z" transform="translate(-2697.688 -1568.497)" fill="#262668"/>
      <path id="Path_1992" data-name="Path 1992" d="M2766.365,1604.355l-10.213,17.378a2.371,2.371,0,0,0,.827,3.248l5.052,2.96a2.371,2.371,0,0,0,3.253-.832l10.205-17.434a2.371,2.371,0,0,0-.833-3.246l-5.044-2.905A2.371,2.371,0,0,0,2766.365,1604.355Z" transform="translate(-2698.553 -1569.398)" fill="#c4bef3"/>
      <path id="Path_1993" data-name="Path 1993" d="M2750.466,1630.238l1.865-2.716c2.562-1.21,3.974-3.667,4.879-4.949a.645.645,0,0,0-.236-.948c-1.548-.778-3.4,1.43-3.4,1.43l3.156-5.514s-9.128-4.934-9.479,7.116l-.554.835q.853,1.079,1.581,2.1C2749.045,1628.442,2749.775,1629.334,2750.466,1630.238Z" transform="translate(-2695.056 -1574.516)" fill="#fbaa78"/>
      <ellipse id="Ellipse_559" data-name="Ellipse 559" cx="39.22" cy="20.236" rx="39.22" ry="20.236" transform="translate(0 216.034)" fill="url(#linear-gradient)"/>
      <path id="Path_1994" data-name="Path 1994" d="M2745.025,1665.618c-25.773-30.6-12.66-35.393-12.66-35.393,11.024-10.493,25.582,19.748,25.582,19.748l5.641,9.508,15.69-13.6,5.622,5.2s-17.912,29.6-25.981,25.038C2750.777,1671.524,2743.787,1664.3,2745.025,1665.618Z" transform="translate(-2688.28 -1578.916)" fill="#ef6100"/>
      <path id="Path_1995" data-name="Path 1995" d="M2729.2,1728.9v125.8s-12.92,6-21.686.994c-.313-1.879-1.37-98.616-1.37-98.616l-1.355,85.88s-12.132,8.375-20.663-.47c-.313-1.565,1.644-123.035,1.644-123.035S2693.818,1734.441,2729.2,1728.9Z" transform="translate(-2671.046 -1613.985)" fill="url(#linear-gradient)"/>
      <path id="Path_1996" data-name="Path 1996" d="M2725.019,1691.082a52.854,52.854,0,0,1-13.7,2.488,54.332,54.332,0,0,1-6.9-.1c-16.21-1.556-20.989-5.645-20.25-15.823.779-10.738-1.556-34.7-1.556-34.7-6.077-42.784,17.217-32.489,17.217-32.489.069-.169,1.371.591,2.869,1.538a21.649,21.649,0,0,0,8.884,3.173,24.45,24.45,0,0,1,15.171,8.291c22.053,25.031,1.706,30.789,1.888,34.392.187,3.678-.1,5.791-.194,10.5a59.3,59.3,0,0,0,.431,9.427s.79,6.675.015,9.869C2728.5,1689.252,2726.582,1690.555,2725.019,1691.082Z" transform="translate(-2670.09 -1571.766)" fill="#ef6100"/>
      <rect id="Rectangle_307" data-name="Rectangle 307" width="0.344" height="99.526" transform="translate(50.632 136.891)" fill="#fff"/>
      <rect id="Rectangle_308" data-name="Rectangle 308" width="88.502" height="0.344" transform="translate(26.595 227.615) rotate(-88.824)" fill="#fff"/>
      <path id="Path_1997" data-name="Path 1997" d="M2732.341,1573.535c.482.178,3.359,25.548-8.548,22.7a12.775,12.775,0,0,0,1.038,4.885s-8.45,3.039-13.545-1.154a2.811,2.811,0,0,1-.873-3.066c.357-1.063.878-2.588,1.513-4.361C2713.6,1587.844,2709.452,1565.082,2732.341,1573.535Z" transform="translate(-2681.084 -1557.31)" fill="#fbaa78"/>
      <path id="Path_1998" data-name="Path 1998" d="M2815.711,1653.821l-4.182-3.716,1.873-4.835a2.2,2.2,0,0,1,1.693-1.372l3.435-.565,5.853-6.2s1.385.127.75,1-4.776,6.381-4.776,6.381,3.571,3.96,1.342,6.033a7.19,7.19,0,0,1-2.9,1.68,3.845,3.845,0,0,0-1.349.694Z" transform="translate(-2719.917 -1582.414)" fill="#fbaa78"/>
      <path id="Path_1999" data-name="Path 1999" d="M2725.367,1616.389l-1.165-1.752s-9.637,2.632-13.409-3.507c0,0-3.031,4.164,4.545,5.874C2722.667,1618.49,2725.367,1616.389,2725.367,1616.389Z" transform="translate(-2681.057 -1572.442)" fill="#d83205"/>
      <path id="Path_2000" data-name="Path 2000" d="M2746.121,1675.945c-.069-.061-.037-.025.107.128l-.107-.128c.159.143.858.813,1.959,1.793-.067,4.052-.313,9.017-.27,11.042a37.85,37.85,0,0,1-15.536-33.5C2734.446,1660.318,2738.63,1667.033,2746.121,1675.945Z" transform="translate(-2689.482 -1589.371)" fill="#d83205"/>
      <g id="Group_882" data-name="Group 882" transform="translate(6.063 38.909)">
        <path id="Path_2001" data-name="Path 2001" d="M2693.445,1611.488l0,0,.005,0Z" transform="translate(-2680.695 -1611.487)" fill="#333"/>
        <path id="Path_2002" data-name="Path 2002" d="M2672.777,1653.306l.46-10.543c.228-18.048,6.436-26.065,10.6-29.369-4.242,3.644-7.295,12.183-4.609,31.093,0,0,2.167,14.854,1.992,25.631l-6.739-10.507A10.8,10.8,0,0,1,2672.777,1653.306Z" transform="translate(-2672.766 -1612.219)" fill="#ef6100"/>
      </g>
      <path id="Path_2003" data-name="Path 2003" d="M2681.655,1651.2h0c.16,2.377.432,4.963.833,7.783,0,0,1.463,10.032,1.887,19.588h0C2679.8,1669.983,2681.655,1651.2,2681.655,1651.2Z" transform="translate(-2669.969 -1587.809)" fill="#d83205"/>
      <path id="Path_2004" data-name="Path 2004" d="M2702.248,1739.577c1.255.179,2.67.223,4.1.361a54.311,54.311,0,0,0,6.9.1,52.832,52.832,0,0,0,13.7-2.488,7.261,7.261,0,0,0,3.229-2.169v5.494s-38.406,9.239-43.545-10.331h0c1.423,4.549,5.471,7.131,13.512,8.569Z" transform="translate(-2672.021 -1618.236)" fill="#101047"/>
      <g id="Group_883" data-name="Group 883" transform="translate(13.043 217.37)">
        <path id="Path_2005" data-name="Path 2005" d="M2704.785,1912.567l.177-11.191,1.354-.362s.263-.008.728-.058c.083,5.918.164,11.187.236,15.3-1.553.573-3.233,1.181-5.029,1.853v1.763s-12.421,7.134-18.163-1.568v-8.435c0,1.339.011,2.115.034,2.231C2692.654,1920.942,2704.785,1912.567,2704.785,1912.567Z" transform="translate(-2684.088 -1900.956)" fill="#232323"/>
        <path id="Path_2006" data-name="Path 2006" d="M2684.1,1910.671c-.007,1.153-.011,2.134-.011,2.92v-2.918Z" transform="translate(-2684.088 -1904.682)" fill="#191919"/>
      </g>
      <path id="Path_2007" data-name="Path 2007" d="M2721.944,1930.345c8.766,5.009,21.686-1,21.686-1v-10.458l.324-.086a20.662,20.662,0,0,0,4.928-.944,6.025,6.025,0,0,1,7.665,4.243c.018.075.16,2.263.175,2.339,1.13,5.49-5.616,7.263-16.834,11.454v1.763s-12.421,7.134-18.163-1.569v-11.352l.052-.014C2721.845,1928.049,2721.9,1930.087,2721.944,1930.345Z" transform="translate(-2685.479 -1689.962)" fill="#232323"/>
      <g id="Group_884" data-name="Group 884" transform="translate(36.247 236.271)">
        <path id="Path_2008" data-name="Path 2008" d="M2751.187,1941.276c9.9-3.7,16.315-5.515,16.911-9.663.667,5.135-6.01,6.925-16.911,11Z" transform="translate(-2733.024 -1931.613)" fill="#ebedf6"/>
        <path id="Path_2009" data-name="Path 2009" d="M2739.889,1949.171v1.334s-12.421,7.134-18.163-1.568V1947.6C2727.468,1956.3,2739.889,1949.171,2739.889,1949.171Z" transform="translate(-2721.726 -1937.745)" fill="#ebedf6"/>
      </g>
      <path id="Path_2010" data-name="Path 2010" d="M2702.269,1930.6v1.335s-12.422,7.133-18.163-1.569v-1.334C2689.848,1937.731,2702.269,1930.6,2702.269,1930.6Z" transform="translate(-2671.052 -1694.351)" fill="#ebedf6"/>
      <path id="Path_2011" data-name="Path 2011" d="M2718.609,1927.042c-1.557.574-3.241,1.184-5.042,1.857v-1.334c1.792-.67,3.469-1.278,5.018-1.849Q2718.6,1926.4,2718.609,1927.042Z" transform="translate(-2682.35 -1693.081)" fill="#ebedf6"/>
      <path id="Path_2012" data-name="Path 2012" d="M2722.2,1577.491c-.844.15-.761-9.779-5.168,2.521s-11.193,5.034-10.492,3.5-3.363-6.708-3.357-7.313-9.138-8.734.128-20.124c4.042-4.968,20.416-4.456,22.844-7.347s12.142,12.98-1.968,18.328C2724.189,1567.053,2724.949,1577,2722.2,1577.491Z" transform="translate(-2676.826 -1548.376)" fill="#171755"/>
    </g>
    <g id="Edc_machine" data-name="Edc machine" transform="translate(2672.74 1619.911)">
      <path id="Path_2013" data-name="Path 2013" d="M2859.333,1923.165l64.785-37.795-1.717-8.409a2.8,2.8,0,0,0-4.375-1.71l-51.37,37a16.657,16.657,0,0,0-5.5,6.793Z" transform="translate(-2813.882 -1818.717)" fill="#171755"/>
      <g id="Group_885" data-name="Group 885" transform="translate(44.098 55.265)">
        <path id="Path_2014" data-name="Path 2014" d="M2961.174,1877.1v0l-.008-.011Z" transform="translate(-2897.032 -1874.887)" fill="none" stroke="#171755" stroke-miterlimit="10" stroke-width="1"/>
        <path id="Path_2015" data-name="Path 2015" d="M2865.814,1911.791l51.37-37a2.79,2.79,0,0,1,3.312.031c-1.383-1.2-3.666-1.787-5.051-.8l-50.983,36.721a16.65,16.65,0,0,0-5.5,6.794l-1.817,4.121,1.352,1.047,1.817-4.121A16.653,16.653,0,0,1,2865.814,1911.791Z" transform="translate(-2857.14 -1873.523)" fill="#7070cc"/>
      </g>
      <path id="Path_2016" data-name="Path 2016" d="M2855.621,1950.305l-2.442-1.743.793-.339,1.965,1.365Z" transform="translate(-2811.522 -1846.905)" fill="#7070cc"/>
      <g id="Group_886" data-name="Group 886" transform="translate(4.114 21.662)">
        <path id="Path_2017" data-name="Path 2017" d="M2890.63,1844.1a12.313,12.313,0,0,1,9.255-1.362h0l-33.488-22.381a7.972,7.972,0,0,0-9.089.161l-59.425,42.826a13.563,13.563,0,0,0-5.566,9.656l-.034.348,29.8,21.2.059-.04a2.484,2.484,0,0,1-.007-.4c0-.014,0-.026,0-.04,0-.049.009-.1.017-.146a1.525,1.525,0,0,1,.041-.18l.032-.113a9.771,9.771,0,0,1,3.808-5.31l61.787-42.992a7.049,7.049,0,0,1,2.851-1.243Z" transform="translate(-2792.284 -1819.018)" fill="#bdbdff"/>
        <path id="Path_2018" data-name="Path 2018" d="M2957.846,1860.723l.184.093Z" transform="translate(-2855.775 -1835.011)" fill="#bdbdff"/>
        <path id="Path_2019" data-name="Path 2019" d="M2956.974,1860.332l.185.077Z" transform="translate(-2855.44 -1834.862)" fill="#bdbdff"/>
        <path id="Path_2020" data-name="Path 2020" d="M2957.41,1860.518c.06.027.121.055.183.084C2957.531,1860.573,2957.47,1860.545,2957.41,1860.518Z" transform="translate(-2855.608 -1834.933)" fill="#bdbdff"/>
        <path id="Path_2021" data-name="Path 2021" d="M2956.539,1860.166l.191.071Z" transform="translate(-2855.273 -1834.798)" fill="#bdbdff"/>
        <path id="Path_2022" data-name="Path 2022" d="M2959.635,1861.759c.063.042.128.086.192.131C2959.764,1861.845,2959.7,1861.8,2959.635,1861.759Z" transform="translate(-2856.461 -1835.409)" fill="#bdbdff"/>
        <path id="Path_2023" data-name="Path 2023" d="M2958.286,1860.95c.062.032.123.066.185.1C2958.409,1861.016,2958.347,1860.983,2958.286,1860.95Z" transform="translate(-2855.943 -1835.099)" fill="#bdbdff"/>
        <path id="Path_2024" data-name="Path 2024" d="M2959.181,1861.467c.063.039.126.079.189.12C2959.307,1861.546,2959.244,1861.507,2959.181,1861.467Z" transform="translate(-2856.287 -1835.297)" fill="#bdbdff"/>
        <path id="Path_2025" data-name="Path 2025" d="M2958.731,1861.2c.063.036.124.072.186.11C2958.855,1861.27,2958.793,1861.234,2958.731,1861.2Z" transform="translate(-2856.114 -1835.194)" fill="#bdbdff"/>
        <path id="Path_2026" data-name="Path 2026" d="M2956.093,1860.016c.068.021.137.044.206.068C2956.23,1860.06,2956.162,1860.038,2956.093,1860.016Z" transform="translate(-2855.103 -1834.74)" fill="#bdbdff"/>
        <path id="Path_2027" data-name="Path 2027" d="M2952.85,1859.586l.107,0Z" transform="translate(-2853.859 -1834.574)" fill="#bdbdff"/>
        <path id="Path_2028" data-name="Path 2028" d="M2952.474,1859.612l.1-.009Z" transform="translate(-2853.715 -1834.582)" fill="#bdbdff"/>
        <path id="Path_2029" data-name="Path 2029" d="M2953.23,1859.577h0Z" transform="translate(-2854.005 -1834.572)" fill="#bdbdff"/>
        <path id="Path_2030" data-name="Path 2030" d="M2952.1,1859.654l.1-.013Z" transform="translate(-2853.572 -1834.597)" fill="#bdbdff"/>
        <path id="Path_2031" data-name="Path 2031" d="M2953.614,1859.582l.118.006Z" transform="translate(-2854.152 -1834.574)" fill="#bdbdff"/>
        <path id="Path_2032" data-name="Path 2032" d="M2954.788,1859.7c.062.01.125.023.187.036C2954.913,1859.724,2954.85,1859.712,2954.788,1859.7Z" transform="translate(-2854.602 -1834.62)" fill="#bdbdff"/>
        <path id="Path_2033" data-name="Path 2033" d="M2954.392,1859.643l.146.021Z" transform="translate(-2854.45 -1834.597)" fill="#bdbdff"/>
        <path id="Path_2034" data-name="Path 2034" d="M2954.131,1859.616l-.13-.012Z" transform="translate(-2854.3 -1834.582)" fill="#bdbdff"/>
        <path id="Path_2035" data-name="Path 2035" d="M2955.188,1859.778c.167.035.337.079.508.131C2955.525,1859.857,2955.355,1859.813,2955.188,1859.778Z" transform="translate(-2854.755 -1834.649)" fill="#bdbdff"/>
      </g>
      <path id="Path_2036" data-name="Path 2036" d="M2857.931,1941.78a16.647,16.647,0,0,1,3.448-5.041v0a9.154,9.154,0,0,0-6.914,7.081l1.966,1.364Z" transform="translate(-2812.016 -1842.5)" fill="#262668"/>
      <path id="Path_2037" data-name="Path 2037" d="M2877.71,1867.688l30.033-20.9a8.285,8.285,0,0,1,1.565-.87l.119-.082-33.355-23.034-30.365,21.883a3.593,3.593,0,0,0-.011,5.822l23.045,16.742A8.2,8.2,0,0,0,2877.71,1867.688Z" transform="translate(-2808.084 -1798.808)" fill="#262668"/>
      <path id="Path_2038" data-name="Path 2038" d="M2856.178,1844.551l29.851,21.615,21.611-15.616-30.574-21.282Z" transform="translate(-2812.672 -1801.287)" fill="#4893e9"/>
      <path id="Path_2039" data-name="Path 2039" d="M2855.775,1818.342h0a5.679,5.679,0,0,0-7.31-.47l-57.4,42.455a13.2,13.2,0,0,0-5.284,9.3l-.173,1.737,2.559,1.929.146-1.507a13.422,13.422,0,0,1,5.54-9.705Z" transform="translate(-2785.611 -1796.49)" fill="#7070cc"/>
      <path id="Path_2040" data-name="Path 2040" d="M2791.317,1873.471l.034-.348a13.563,13.563,0,0,1,5.565-9.655l59.425-42.826a7.992,7.992,0,0,1,1.512-.855l-.487-.459-61.918,43.739a13.422,13.422,0,0,0-5.54,9.705l-.146,1.507,1.555-.808Z" transform="translate(-2787.203 -1797.474)" fill="#9b94fd"/>
      <path id="Path_2041" data-name="Path 2041" d="M2921.126,1874.866l.212-4.159a6.4,6.4,0,0,0-10.047-5.561l-61.787,42.993a9.77,9.77,0,0,0-3.808,5.309l-.032.113a2.718,2.718,0,0,0,3.645,3.263l1.74-.909a9.158,9.158,0,0,1,6.914-7.078h0a16.686,16.686,0,0,1,2.058-1.754L2911,1870.365c1.385-.987,3.667-.4,5.051.8a2.759,2.759,0,0,1,.778.9l.007.011v0a2.8,2.8,0,0,1,.278.771l1.515,7.417A7.973,7.973,0,0,0,2921.126,1874.866Z" transform="translate(-2808.598 -1814.601)" fill="#9b94fd"/>
      <path id="Path_2042" data-name="Path 2042" d="M2845.081,1914.985a2.8,2.8,0,0,1-.523-.385l-.017-.016c-.046-.043-.09-.088-.132-.134l-.021-.023c-.043-.048-.085-.1-.125-.149l-.011-.013a2.8,2.8,0,0,1-.235-.36l-.012-.024c-.028-.052-.054-.107-.079-.161-.007-.016-.014-.033-.021-.049-.02-.047-.04-.1-.057-.145l-.02-.057c-.017-.05-.032-.1-.046-.153l-.014-.051a2.764,2.764,0,0,1-.067-.422c0-.02,0-.041,0-.062,0-.051-.005-.1-.005-.155,0-.026,0-.052,0-.078,0-.048,0-.1.009-.145,0-.027,0-.054.008-.081.006-.051.014-.1.024-.154,0-.024.007-.048.012-.072.015-.075.033-.151.055-.227l.032-.113c.04-.139.084-.276.13-.412.01-.032.023-.062.033-.093.037-.105.074-.211.115-.315.011-.029.024-.057.035-.086.042-.107.086-.213.132-.318.009-.021.02-.042.029-.063q.075-.168.156-.333l.021-.041q.089-.176.184-.348l.011-.02c.068-.122.137-.241.21-.36l0-.005a9.8,9.8,0,0,1,.973-1.322h0c.137-.157.28-.31.427-.458l0,0h0c.1-.1.211-.208.32-.307l.013-.012q.166-.152.339-.3l.006,0,.007-.005c.106-.088.215-.174.324-.258s.222-.165.336-.243l25.656-17.853h0l36.13-25.14a6.388,6.388,0,0,1,8.233.768c-4.784-5.4-8.168-5.488-11.267-3.331l-61.787,42.992a9.775,9.775,0,0,0-3.808,5.31l-.032.113c-.558,1.932,2.467,5.9,4.312,5.68Z" transform="translate(-2806.738 -1812.909)" fill="#7070cc"/>
      <path id="Path_2043" data-name="Path 2043" d="M2962.791,1858.613c-3.364-2.417-7.955-2.248-12.059,0,2.383-.42,5.072.737,8.466,4.566a6.263,6.263,0,0,1,1.814,4.793l-.212,4.159a7.973,7.973,0,0,1-2.5,5.395l.2.993-9.5,5.542c4.836,1.059,10.713-1.508,14.5-6.784C2968.262,1870.67,2967.939,1862.313,2962.791,1858.613Z" transform="translate(-2848.271 -1811.869)" fill="#262668"/>
      <path id="Path_2044" data-name="Path 2044" d="M2820.76,1928.4l-29.873-21.252-2.247,1.23,33.3,23.6.531-.282A6.825,6.825,0,0,1,2820.76,1928.4Z" transform="translate(-2786.772 -1831.153)" fill="#9b94fd"/>
      <path id="Path_2045" data-name="Path 2045" d="M2788.6,1909.144l-.059.592,33.25,23.571.995-.47-.351-.37-.531.282Z" transform="translate(-2786.736 -1831.918)" fill="#262668"/>
      <g id="Group_887" data-name="Group 887" transform="translate(37.308 44.152)">
        <path id="Path_2046" data-name="Path 2046" d="M2875.476,1874.682a2.14,2.14,0,0,1,.135.969c-.187,1.865-2.893,3.122-6.043,2.807a9.3,9.3,0,0,1-2.091-.451l11.332,8.223a6.521,6.521,0,0,0,7.563.068l2.62-1.829Z" transform="translate(-2854.313 -1862.854)" fill="#9b94fd"/>
        <path id="Path_2047" data-name="Path 2047" d="M2856.01,1867.155c.186-1.866,2.892-3.122,6.043-2.807a9.512,9.512,0,0,1,1.5.271l-12.6-9.121-3.994,2.918a2.037,2.037,0,0,0,.006,3.293l9.351,6.785A2.242,2.242,0,0,1,2856.01,1867.155Z" transform="translate(-2846.125 -1855.497)" fill="#9b94fd"/>
      </g>
      <path id="Path_2048" data-name="Path 2048" d="M2869.145,1871.448c-2.22-.221-4.127.664-4.259,1.978s1.563,2.56,3.784,2.782,4.128-.664,4.259-1.978S2871.367,1871.67,2869.145,1871.448Z" transform="translate(-2816.009 -1817.449)" fill="#9b94fd"/>
      <path id="Path_2049" data-name="Path 2049" d="M2866.346,1892.872l2.5-1.777a.748.748,0,0,1,.869,0l6.135,4.4a.746.746,0,0,1-.01,1.22l-2.6,1.8a.746.746,0,0,1-.867-.011l-6.035-4.426A.747.747,0,0,1,2866.346,1892.872Z" transform="translate(-2816.452 -1824.944)" fill="#7070cc"/>
      <path id="Path_2050" data-name="Path 2050" d="M2851.008,1881.915l2.5-1.776a.747.747,0,0,1,.869,0l6.135,4.4a.747.747,0,0,1-.011,1.22l-2.6,1.8a.747.747,0,0,1-.867-.012l-6.035-4.425A.748.748,0,0,1,2851.008,1881.915Z" transform="translate(-2810.57 -1820.742)" fill="#7070cc"/>
      <path id="Path_2051" data-name="Path 2051" d="M2835.487,1870.647l2.5-1.777a.747.747,0,0,1,.869,0l6.135,4.4a.747.747,0,0,1-.01,1.221l-2.6,1.8a.749.749,0,0,1-.867-.012l-6.035-4.426A.747.747,0,0,1,2835.487,1870.647Z" transform="translate(-2804.618 -1816.42)" fill="#7070cc"/>
      <path id="Path_2052" data-name="Path 2052" d="M2857.834,1898.987l2.5-1.777a.747.747,0,0,1,.868,0l6.135,4.4a.747.747,0,0,1-.01,1.221l-2.6,1.8a.746.746,0,0,1-.867-.012l-6.035-4.425A.747.747,0,0,1,2857.834,1898.987Z" transform="translate(-2813.188 -1827.288)" fill="#7070cc"/>
      <path id="Path_2053" data-name="Path 2053" d="M2842.5,1888.031l2.5-1.777a.745.745,0,0,1,.868,0l6.135,4.4a.747.747,0,0,1-.01,1.221l-2.6,1.8a.748.748,0,0,1-.868-.012l-6.035-4.425A.747.747,0,0,1,2842.5,1888.031Z" transform="translate(-2807.305 -1823.087)" fill="#7070cc"/>
      <path id="Path_2054" data-name="Path 2054" d="M2826.976,1876.762l2.5-1.777a.747.747,0,0,1,.868,0l6.135,4.4a.747.747,0,0,1-.01,1.221l-2.6,1.8a.748.748,0,0,1-.867-.012l-6.034-4.426A.747.747,0,0,1,2826.976,1876.762Z" transform="translate(-2801.354 -1818.766)" fill="#7070cc"/>
      <path id="Path_2055" data-name="Path 2055" d="M2848.9,1905.115l2.5-1.776a.745.745,0,0,1,.868,0l6.135,4.4a.747.747,0,0,1-.01,1.221l-2.6,1.8a.748.748,0,0,1-.867-.012l-6.034-4.425A.748.748,0,0,1,2848.9,1905.115Z" transform="translate(-2809.76 -1829.639)" fill="#7070cc"/>
      <path id="Path_2056" data-name="Path 2056" d="M2833.561,1894.159l2.5-1.777a.748.748,0,0,1,.869,0l6.135,4.4a.747.747,0,0,1-.01,1.221l-2.6,1.8a.748.748,0,0,1-.867-.012l-6.034-4.426A.747.747,0,0,1,2833.561,1894.159Z" transform="translate(-2803.879 -1825.437)" fill="#7070cc"/>
      <path id="Path_2057" data-name="Path 2057" d="M2818.04,1882.891l2.5-1.777a.747.747,0,0,1,.869,0l6.134,4.4a.746.746,0,0,1-.01,1.221l-2.6,1.8a.745.745,0,0,1-.866-.012l-6.035-4.425A.746.746,0,0,1,2818.04,1882.891Z" transform="translate(-2797.927 -1821.116)" fill="#7070cc"/>
      <path id="Path_2058" data-name="Path 2058" d="M2840.118,1911.854l2.5-1.777a.747.747,0,0,1,.869,0l6.135,4.4a.747.747,0,0,1-.01,1.221l-2.6,1.8a.748.748,0,0,1-.867-.012l-6.035-4.426A.746.746,0,0,1,2840.118,1911.854Z" transform="translate(-2806.393 -1832.223)" fill="#7070cc"/>
      <path id="Path_2059" data-name="Path 2059" d="M2824.78,1900.9l2.5-1.777a.747.747,0,0,1,.869,0l6.135,4.4a.747.747,0,0,1-.01,1.221l-2.6,1.8a.748.748,0,0,1-.867-.011l-6.035-4.426A.747.747,0,0,1,2824.78,1900.9Z" transform="translate(-2800.511 -1828.021)" fill="#7070cc"/>
      <path id="Path_2060" data-name="Path 2060" d="M2809.259,1889.629l2.5-1.777a.748.748,0,0,1,.869,0l6.134,4.4a.748.748,0,0,1-.01,1.221l-2.6,1.8a.747.747,0,0,1-.867-.012l-6.035-4.425A.748.748,0,0,1,2809.259,1889.629Z" transform="translate(-2794.559 -1823.7)" fill="#7070cc"/>
      <path id="Path_2061" data-name="Path 2061" d="M2831.013,1918.6l2.5-1.777a.747.747,0,0,1,.869,0l6.135,4.4a.747.747,0,0,1-.01,1.221l-2.6,1.8a.748.748,0,0,1-.868-.012l-6.035-4.425A.747.747,0,0,1,2831.013,1918.6Z" transform="translate(-2802.902 -1834.811)" fill="#4893e9"/>
      <path id="Path_2062" data-name="Path 2062" d="M2815.675,1907.647l2.5-1.777a.747.747,0,0,1,.868,0l6.135,4.4a.747.747,0,0,1-.01,1.221l-2.6,1.8a.748.748,0,0,1-.867-.012l-6.035-4.426A.747.747,0,0,1,2815.675,1907.647Z" transform="translate(-2797.02 -1830.61)" fill="#ff9e26"/>
      <path id="Path_2063" data-name="Path 2063" d="M2800.154,1896.378l2.5-1.776a.746.746,0,0,1,.869,0l6.135,4.4a.747.747,0,0,1-.01,1.221l-2.6,1.8a.748.748,0,0,1-.868-.012l-6.035-4.425A.748.748,0,0,1,2800.154,1896.378Z" transform="translate(-2791.068 -1826.288)" fill="#e2428a"/>
      <path id="Path_2064" data-name="Path 2064" d="M2899.674,1809.491l27.4,18.947s4.355-27.08,21.581-25.018l-23.485-17.9a7.942,7.942,0,0,0-7.409-1.2C2912.269,1786.216,2903.28,1792.488,2899.674,1809.491Z" transform="translate(-2829.353 -1783.882)" fill="#dbd6ff"/>
      <g id="Group_888" data-name="Group 888" transform="translate(105.649 19.426)">
        <path id="Path_2065" data-name="Path 2065" d="M2979.62,1830.924c-1.283-12.4-8.987-15.421-8.987-15.421-5.988-.717-10.42,2.088-13.656,6.052a13.343,13.343,0,0,0,1.846,2.681l26.366,19.225a19.063,19.063,0,0,1-4.585-7.813A22.4,22.4,0,0,1,2979.62,1830.924Z" transform="translate(-2956.977 -1815.391)" fill="#aeabdd"/>
      </g>
      <path id="Path_2066" data-name="Path 2066" d="M2990.924,1807.336c-.226-.022-4.811,8.4-4.631,8.606h0c1.964,2.347,3.967,6.094,4.567,11.893a22.389,22.389,0,0,0,.984,4.724,19.063,19.063,0,0,0,4.585,7.813c12.829,9.9,21.3-14.523,21.3-14.523S2991.15,1807.359,2990.924,1807.336Z" transform="translate(-2862.568 -1792.876)" fill="#dbd6ff"/>
      <rect id="Rectangle_309" data-name="Rectangle 309" width="0.746" height="8.104" transform="matrix(0.567, -0.823, 0.823, 0.567, 74.194, 22.583)" fill="#171755"/>
      <rect id="Rectangle_310" data-name="Rectangle 310" width="0.746" height="8.104" transform="matrix(0.567, -0.823, 0.823, 0.567, 89.09, 33.458)" fill="#171755"/>
      <rect id="Rectangle_311" data-name="Rectangle 311" width="0.746" height="8.104" transform="matrix(0.567, -0.823, 0.823, 0.567, 94.304, 21.505)" fill="#171755"/>
      <rect id="Rectangle_312" data-name="Rectangle 312" width="0.746" height="8.104" transform="translate(104.135 13.379) rotate(-55.429)" fill="#171755"/>
      <rect id="Rectangle_313" data-name="Rectangle 313" width="0.746" height="12.428" transform="matrix(0.567, -0.823, 0.823, 0.567, 75.059, 20.204)" fill="#171755"/>
      <rect id="Rectangle_314" data-name="Rectangle 314" width="0.746" height="8.105" transform="translate(80.344 11.673) rotate(-55.429)" fill="#171755"/>
      <rect id="Rectangle_315" data-name="Rectangle 315" width="0.746" height="8.104" transform="translate(143.51 29.546) rotate(-55.429)" fill="#171755"/>
      <rect id="Rectangle_316" data-name="Rectangle 316" width="0.746" height="8.105" transform="matrix(0.567, -0.823, 0.823, 0.567, 84.33, 7.469)" fill="#171755"/>
      <rect id="Rectangle_317" data-name="Rectangle 317" width="0.746" height="8.105" transform="translate(96.199 3.972) rotate(-55.429)" fill="#171755"/>
      <rect id="Rectangle_318" data-name="Rectangle 318" width="0.746" height="12.428" transform="matrix(0.567, -0.823, 0.823, 0.567, 82.227, 9.481)" fill="#171755"/>
      <rect id="Rectangle_319" data-name="Rectangle 319" width="0.746" height="12.428" transform="matrix(0.567, -0.823, 0.823, 0.567, 91.01, 4.072)" fill="#171755"/>
      <rect id="Rectangle_320" data-name="Rectangle 320" width="0.746" height="8.104" transform="translate(127.038 27.901) rotate(-55.429)" fill="#171755"/>
      <rect id="Rectangle_321" data-name="Rectangle 321" width="0.746" height="12.428" transform="matrix(0.567, -0.823, 0.823, 0.567, 128.277, 25.094)" fill="#171755"/>
      <rect id="Rectangle_322" data-name="Rectangle 322" width="0.746" height="12.428" transform="translate(131.79 37.385) rotate(-55.429)" fill="#171755"/>
      <rect id="Rectangle_323" data-name="Rectangle 323" width="0.746" height="12.428" transform="matrix(0.567, -0.823, 0.823, 0.567, 129.881, 40.209)" fill="#171755"/>
      <rect id="Rectangle_324" data-name="Rectangle 324" width="0.746" height="12.428" transform="translate(130.871 20.859) rotate(-55.429)" fill="#171755"/>
      <rect id="Rectangle_325" data-name="Rectangle 325" width="0.746" height="12.428" transform="matrix(0.567, -0.823, 0.823, 0.567, 76.338, 17.773)" fill="#171755"/>
      <rect id="Rectangle_326" data-name="Rectangle 326" width="0.746" height="12.428" transform="translate(63.538 31.621) rotate(-55.429)" fill="#fff"/>
      <rect id="Rectangle_327" data-name="Rectangle 327" width="0.746" height="12.428" transform="translate(60.255 34.244) rotate(-55.429)" fill="#fff"/>
      <rect id="Rectangle_328" data-name="Rectangle 328" width="0.746" height="12.428" transform="translate(48.954 41.755) rotate(-55.429)" fill="#fff"/>
      <rect id="Rectangle_329" data-name="Rectangle 329" width="0.746" height="12.428" transform="translate(78.925 42.55) rotate(-55.429)" fill="#fff"/>
      <path id="Path_2067" data-name="Path 2067" d="M2889.653,1859.316c.154.145,1.318,5.851,1.443,5.841s20.031.7,20.031.7l-22.375,2.472Z" transform="translate(-2825.165 -1812.81)" fill="#fff"/>
    </g>
  </g>
</svg>
