<svg xmlns="http://www.w3.org/2000/svg" xmlns:xlink="http://www.w3.org/1999/xlink" width="670.032" height="527.562" viewBox="0 0 670.032 527.562">
  <defs>
    <linearGradient id="linear-gradient" y1="0.5" x2="1" y2="0.5" gradientUnits="objectBoundingBox">
      <stop offset="0" stop-color="#d4ebff"/>
      <stop offset="0.507" stop-color="#d5ebff"/>
      <stop offset="0.708" stop-color="#dcefff"/>
      <stop offset="0.855" stop-color="#e9f4ff"/>
      <stop offset="0.975" stop-color="#fafcff"/>
      <stop offset="1" stop-color="#fff"/>
    </linearGradient>
    <linearGradient id="linear-gradient-2" y1="0.5" x2="1" y2="0.5" gradientUnits="objectBoundingBox">
      <stop offset="0" stop-color="#0030a2"/>
      <stop offset="0.264" stop-color="#0037a6"/>
      <stop offset="0.653" stop-color="#004bb2"/>
      <stop offset="0.993" stop-color="#0062c1"/>
    </linearGradient>
    <linearGradient id="linear-gradient-3" y1="0.5" x2="1" y2="0.5" gradientUnits="objectBoundingBox">
      <stop offset="0.007" stop-color="#0062c1"/>
      <stop offset="0.347" stop-color="#004bb2"/>
      <stop offset="0.736" stop-color="#0037a6"/>
      <stop offset="1" stop-color="#0030a2"/>
    </linearGradient>
    <linearGradient id="linear-gradient-27" x1="0" x2="1" xlink:href="#linear-gradient-2"/>
    <linearGradient id="linear-gradient-35" x1="0" x2="1" xlink:href="#linear-gradient-2"/>
    <linearGradient id="linear-gradient-37" x1="0" x2="1" xlink:href="#linear-gradient-2"/>
    <linearGradient id="linear-gradient-39" x1="0" x2="1" xlink:href="#linear-gradient-2"/>
    <radialGradient id="radial-gradient" cx="0.5" cy="0.5" r="5.367" gradientTransform="translate(0.676 0.433) scale(0.098 0.07)" gradientUnits="objectBoundingBox">
      <stop offset="0" stop-color="#97c7f1"/>
      <stop offset="0.184" stop-color="#a3cdf2"/>
      <stop offset="0.522" stop-color="#c5e0f7"/>
      <stop offset="0.975" stop-color="#fbfdfe"/>
      <stop offset="1" stop-color="#fff"/>
    </radialGradient>
    <radialGradient id="radial-gradient-2" cx="0.5" cy="0.5" r="5.367" gradientTransform="translate(1.032 0.433) scale(0.098 0.07)" xlink:href="#radial-gradient"/>
  </defs>
  <g id="Group_849" data-name="Group 849" transform="translate(-1339.993 -338.307)">
    <path id="Path_1673" data-name="Path 1673" d="M1980.19,372.953l-580.255-34.541c-36.7-2.185-65.717,30.187-58.96,65.784l73.6,387.791c5.641,29.719,34.339,49.568,64.637,44.707L1980.19,756.33Z" fill="url(#linear-gradient)"/>
    <g id="Group_848" data-name="Group 848" transform="translate(1415.315 390.408)">
      <g id="Group_826" data-name="Group 826" transform="translate(206.4 299.776)">
        <path id="Rectangle_297" data-name="Rectangle 297" d="M3,0H73.715a0,0,0,0,1,0,0V147.794a0,0,0,0,1,0,0H3a3,3,0,0,1-3-3V3A3,3,0,0,1,3,0Z" transform="translate(200.224 147.794) rotate(180)" fill="#e4dfea"/>
        <rect id="Rectangle_298" data-name="Rectangle 298" width="147.794" height="147.794" rx="3" transform="translate(0 0)" fill="#b8b5bc"/>
        <g id="Group_825" data-name="Group 825" transform="translate(52.515 44.487)">
          <path id="Path_1674" data-name="Path 1674" d="M1854.427,919.031a21.382,21.382,0,1,0-28.283,20.222v23.224a5.936,5.936,0,0,0,5.936,5.936h1.932a5.936,5.936,0,0,0,5.936-5.936V939.253A21.376,21.376,0,0,0,1854.427,919.031Z" transform="translate(-1811.663 -897.649)" fill="#fff"/>
        </g>
        <path id="Path_1675" data-name="Path 1675" d="M1835.467,968.223a5.749,5.749,0,0,1-1.456.181h-1.921a5.923,5.923,0,0,1-5.943-5.923V939.253a21.375,21.375,0,0,1,6.893-41.605,19.168,19.168,0,0,1,2.426.141,21.372,21.372,0,0,0-4.488,41.464v23.228A5.9,5.9,0,0,0,1835.467,968.223Z" transform="translate(-1759.151 -853.162)" fill="#e4dfea"/>
      </g>
      <g id="Group_829" data-name="Group 829" transform="translate(406.966 29.96)">
        <path id="Rectangle_299" data-name="Rectangle 299" d="M3,0H22.437a0,0,0,0,1,0,0V44.985a0,0,0,0,1,0,0H3a3,3,0,0,1-3-3V3A3,3,0,0,1,3,0Z" transform="translate(148.562 44.985) rotate(180)" fill="url(#linear-gradient-2)" style="mix-blend-mode: screen;isolation: isolate"/>
        <rect id="Rectangle_300" data-name="Rectangle 300" width="44.984" height="44.984" rx="3" transform="translate(87.618)" fill="url(#linear-gradient-3)"/>
        <path id="Path_1676" data-name="Path 1676" d="M2179.809,479.727a6.508,6.508,0,1,0-8.608,6.155v7.069a1.806,1.806,0,0,0,1.806,1.806h.588a1.807,1.807,0,0,0,1.807-1.806v-7.069A6.506,6.506,0,0,0,2179.809,479.727Z" transform="translate(-2063.19 -459.678)" fill="#ffe821"/>
        <path id="Path_1677" data-name="Path 1677" d="M2174.038,494.7a1.747,1.747,0,0,1-.443.055h-.585a1.8,1.8,0,0,1-1.809-1.8v-7.07a6.506,6.506,0,0,1,2.1-12.664,5.724,5.724,0,0,1,.738.043,6.505,6.505,0,0,0-1.366,12.621v7.07A1.8,1.8,0,0,0,2174.038,494.7Z" transform="translate(-2063.191 -459.678)" fill="#ff9d45"/>
        <g id="Group_827" data-name="Group 827" transform="translate(0 27.077)">
          <path id="Path_1678" data-name="Path 1678" d="M2021.639,635.522a1.715,1.715,0,0,1-.914-2.248c.892-2.115,1.815-4.248,2.746-6.341a1.716,1.716,0,1,1,3.136,1.395c-.921,2.073-1.837,4.186-2.72,6.281a1.718,1.718,0,0,1-1.735,1.042A1.693,1.693,0,0,1,2021.639,635.522Z" transform="translate(-2020.59 -531.246)" fill="url(#linear-gradient-2)"/>
          <path id="Path_1679" data-name="Path 1679" d="M2029.468,617.81a1.715,1.715,0,0,1-.826-2.282c.976-2.083,1.986-4.178,3-6.227a1.716,1.716,0,0,1,3.076,1.524c-1.005,2.027-2,4.1-2.97,6.161a1.716,1.716,0,0,1-1.708.981A1.687,1.687,0,0,1,2029.468,617.81Z" transform="translate(-2022.889 -526.128)" fill="url(#linear-gradient-2)"/>
          <path id="Path_1680" data-name="Path 1680" d="M2038.018,600.45a1.716,1.716,0,0,1-.724-2.316c1.076-2.053,2.181-4.1,3.284-6.088a1.716,1.716,0,0,1,3,1.666c-1.091,1.963-2.182,3.987-3.245,6.014a1.713,1.713,0,0,1-2.317.724Z" transform="translate(-2025.4 -521.121)" fill="url(#linear-gradient-2)"/>
          <path id="Path_1681" data-name="Path 1681" d="M2047.366,583.519a1.716,1.716,0,0,1-.607-2.349c1.181-2,2.391-4,3.593-5.915a1.716,1.716,0,0,1,2.909,1.822c-1.187,1.893-2.379,3.857-3.546,5.836a1.715,1.715,0,0,1-2.35.607Z" transform="translate(-2028.146 -516.251)" fill="url(#linear-gradient-2)"/>
          <path id="Path_1682" data-name="Path 1682" d="M2057.59,567.12a1.715,1.715,0,0,1-.474-2.38c1.285-1.925,2.608-3.844,3.934-5.7a1.716,1.716,0,1,1,2.793,1.993c-1.3,1.83-2.608,3.718-3.874,5.614a1.714,1.714,0,0,1-2.38.475Z" transform="translate(-2031.149 -511.551)" fill="url(#linear-gradient-2)"/>
          <path id="Path_1683" data-name="Path 1683" d="M2068.771,551.378a1.716,1.716,0,0,1-.323-2.406c1.415-1.85,2.862-3.679,4.3-5.437a1.716,1.716,0,1,1,2.652,2.178c-1.417,1.726-2.839,3.523-4.229,5.342a1.714,1.714,0,0,1-2.405.322Z" transform="translate(-2034.432 -507.061)" fill="url(#linear-gradient-2)"/>
          <path id="Path_1684" data-name="Path 1684" d="M2080.988,536.446a1.715,1.715,0,0,1-.147-2.422c1.548-1.748,3.129-3.466,4.7-5.106a1.716,1.716,0,1,1,2.478,2.374c-1.54,1.608-3.091,3.293-4.609,5.008a1.716,1.716,0,0,1-2.422.147Z" transform="translate(-2038.02 -502.83)" fill="url(#linear-gradient-2)"/>
          <path id="Path_1685" data-name="Path 1685" d="M2094.309,522.515a1.716,1.716,0,0,1,.049-2.426c1.678-1.611,3.4-3.193,5.116-4.7a1.716,1.716,0,1,1,2.265,2.578c-1.679,1.475-3.362,3.023-5,4.6a1.715,1.715,0,0,1-2.426-.05Z" transform="translate(-2041.93 -498.917)" fill="url(#linear-gradient-2)"/>
          <path id="Path_1686" data-name="Path 1686" d="M2108.778,509.8a1.716,1.716,0,0,1,.269-2.412c1.815-1.451,3.678-2.869,5.537-4.211a1.716,1.716,0,1,1,2.01,2.781c-1.814,1.31-3.632,2.693-5.4,4.11a1.717,1.717,0,0,1-2.412-.269Z" transform="translate(-2046.177 -495.391)" fill="url(#linear-gradient-2)"/>
          <path id="Path_1687" data-name="Path 1687" d="M2124.4,498.553a1.716,1.716,0,0,1,.507-2.373c1.95-1.263,3.949-2.484,5.942-3.63a1.716,1.716,0,0,1,1.711,2.976c-1.941,1.116-3.888,2.305-5.787,3.535a1.715,1.715,0,0,1-2.373-.507Z" transform="translate(-2050.757 -492.321)" fill="url(#linear-gradient-2)"/>
        </g>
        <path id="Path_1688" data-name="Path 1688" d="M2220.426,486.271a3.01,3.01,0,1,1-3.009-3.01A3.01,3.01,0,0,1,2220.426,486.271Z" transform="translate(-2077.063 -462.604)" fill="#ffe821"/>
        <g id="Group_828" data-name="Group 828" transform="translate(138.597 22.073)">
          <path id="Path_1689" data-name="Path 1689" d="M2280.636,507.5a1.711,1.711,0,0,1-1.549.019c-2.056-1.008-4.131-1.977-6.167-2.879a1.716,1.716,0,1,1,1.389-3.138c2.077.92,4.192,1.908,6.289,2.936a1.716,1.716,0,0,1,.038,3.062Z" transform="translate(-2232.412 -489.948)" fill="url(#linear-gradient-2)"/>
          <path id="Path_1690" data-name="Path 1690" d="M2262.808,499.866a1.71,1.71,0,0,1-1.421.074c-2.118-.834-4.264-1.625-6.377-2.351a1.716,1.716,0,1,1,1.115-3.246c2.161.743,4.355,1.551,6.519,2.4a1.716,1.716,0,0,1,.164,3.119Z" transform="translate(-2227.153 -487.879)" fill="url(#linear-gradient-2)"/>
          <path id="Path_1691" data-name="Path 1691" d="M2244.386,493.822a1.711,1.711,0,0,1-1.273.125c-2.177-.637-4.385-1.225-6.561-1.747a1.716,1.716,0,0,1,.8-3.337c2.23.536,4.492,1.138,6.722,1.79a1.716,1.716,0,0,1,.31,3.17Z" transform="translate(-2221.73 -486.295)" fill="url(#linear-gradient-2)"/>
          <path id="Path_1692" data-name="Path 1692" d="M2225.469,489.582a1.71,1.71,0,0,1-1.106.164c-2.224-.416-4.477-.776-6.7-1.07a1.716,1.716,0,1,1,.451-3.4c2.28.3,4.593.672,6.876,1.1a1.716,1.716,0,0,1,.475,3.209Z" transform="translate(-2216.176 -485.259)" fill="url(#linear-gradient-2)"/>
        </g>
        <path id="Path_1693" data-name="Path 1693" d="M2167.165,454.11l-22.931,22.931v-8.61l14.321-14.321Z" transform="translate(-2056.617 -454.11)" fill="url(#linear-gradient-2)" style="mix-blend-mode: screen;isolation: isolate"/>
        <path id="Path_1694" data-name="Path 1694" d="M2154.127,454.11,2144.234,464v-4.308l5.584-5.584Z" transform="translate(-2056.617 -454.11)" fill="url(#linear-gradient-2)" style="mix-blend-mode: screen;isolation: isolate"/>
      </g>
      <g id="Group_830" data-name="Group 830" transform="translate(0 105.989)">
        <path id="Path_1695" data-name="Path 1695" d="M1904.838,642.031q-2.07-3.455-7.279-5.746a13.92,13.92,0,0,0,7.611-2.092,9.172,9.172,0,0,0,3.571-5.837q1.231-5.678-2.254-9.3a18.819,18.819,0,0,0-7.987-4.42l1.4-6.472-6.346-1.375-1.365,6.3-6-1.3,1.366-6.3-6.346-1.375-1.366,6.3L1868.7,608l-1.1,5.058,2.611.565q2.969.643,3.535,1.5t-.028,3.6l-5.721,26.4q-.594,2.741-1.464,3.287t-3.839-.1l-2.61-.566-1.1,5.09,11.137,2.414-1.365,6.3,6.346,1.375,1.365-6.3,6,1.3-1.365,6.3,6.346,1.375,1.408-6.5q6.774.9,10.512-.452,5.079-1.838,6.5-8.4A10.96,10.96,0,0,0,1904.838,642.031Zm-5.726-14.8q-.805,3.72-3.506,4.826t-8.149-.075l-6.429-1.392,3.012-13.9,7.146,1.549q5.122,1.11,6.927,3.192T1899.113,627.226Zm-6.594,25.7q-2.843,1.3-8.587.052l-7.408-1.6,3.387-15.631,6.82,1.478q6.167,1.336,8.311,3.663t1.232,6.536Q1895.363,651.627,1892.519,652.924Z" transform="translate(-1566.537 -573.845)" fill="url(#linear-gradient)"/>
        <path id="Path_1696" data-name="Path 1696" d="M2237.6,947.72a11.633,11.633,0,0,0-4.977-5.014,10.6,10.6,0,0,0,5.948-.882,6.986,6.986,0,0,0,3.237-4.086,7.359,7.359,0,0,0-.849-7.242,14.335,14.335,0,0,0-5.634-4.076l1.655-4.766-4.673-1.623-1.611,4.638-4.42-1.536,1.612-4.638-4.673-1.623-1.611,4.638-8.2-2.849-1.294,3.724,1.922.668q2.187.759,2.536,1.459t-.352,2.719l-6.753,19.438q-.7,2.019-1.41,2.351t-2.894-.427l-1.923-.668-1.3,3.749,8.2,2.849-1.611,4.638,4.673,1.623,1.611-4.638,4.42,1.536-1.612,4.637,4.673,1.623,1.663-4.784q5.039,1.3,7.991.625,4.008-.923,5.687-5.752A8.353,8.353,0,0,0,2237.6,947.72ZM2234.635,936a4.683,4.683,0,0,1-3.095,3.328q-2.144.588-6.156-.806l-4.734-1.645,3.557-10.235,5.261,1.828q3.771,1.311,4.945,3.051A4.864,4.864,0,0,1,2234.635,936Zm-7.349,18.827q-2.269.721-6.5-.75l-5.454-1.895,4-11.509,5.022,1.745q4.541,1.577,5.948,3.535t.33,5.055Q2229.556,954.105,2227.286,954.824Z" transform="translate(-1666.464 -664.975)" fill="url(#linear-gradient)"/>
        <path id="Path_1697" data-name="Path 1697" d="M1546.193,947.346a11.641,11.641,0,0,0-4.977-5.014,10.6,10.6,0,0,0,5.948-.881,6.991,6.991,0,0,0,3.237-4.086,7.358,7.358,0,0,0-.85-7.242,14.332,14.332,0,0,0-5.634-4.077l1.656-4.765-4.673-1.623-1.611,4.637-4.419-1.535,1.611-4.638-4.673-1.623-1.611,4.638-8.2-2.849-1.294,3.725,1.922.667q2.186.76,2.536,1.46t-.351,2.719l-6.753,19.437q-.7,2.019-1.409,2.351t-2.895-.427l-1.922-.668-1.3,3.748,8.2,2.849-1.611,4.637,4.673,1.623,1.611-4.637,4.419,1.535-1.611,4.638,4.673,1.623,1.662-4.784q5.04,1.3,7.991.625,4.009-.924,5.687-5.753A8.348,8.348,0,0,0,1546.193,947.346Zm-2.969-11.721a4.685,4.685,0,0,1-3.1,3.328q-2.143.588-6.156-.806l-4.733-1.644,3.556-10.235,5.262,1.828q3.771,1.311,4.945,3.051A4.864,4.864,0,0,1,1543.224,935.625Zm-7.349,18.827q-2.269.72-6.5-.75l-5.454-1.895,4-11.509,5.021,1.745q4.541,1.577,5.948,3.534t.33,5.056Q1538.145,953.732,1535.875,954.451Z" transform="translate(-1465.004 -664.867)" fill="url(#linear-gradient)"/>
        <path id="Path_1698" data-name="Path 1698" d="M2238.3,635.161a11.636,11.636,0,0,0-7-.945,10.6,10.6,0,0,0,4.18-4.323,6.992,6.992,0,0,0,.078-5.212,7.36,7.36,0,0,0-5.085-5.226,14.337,14.337,0,0,0-6.951.2l-1.589-4.787-4.7,1.559,1.548,4.659-4.44,1.475-1.547-4.66-4.7,1.559,1.548,4.66-8.239,2.735,1.242,3.741,1.931-.641q2.2-.729,2.9-.386t1.377,2.37l6.485,19.529q.673,2.028.314,2.723t-2.554,1.425l-1.932.641,1.251,3.766,8.239-2.736,1.547,4.66,4.694-1.559-1.547-4.66,4.44-1.474,1.547,4.659,4.695-1.559-1.6-4.807q4.79-2.039,6.718-4.372,2.617-3.174,1.007-8.026A8.349,8.349,0,0,0,2238.3,635.161Zm-9.494-7.487a4.682,4.682,0,0,1-.428,4.524q-1.341,1.772-5.373,3.111l-4.755,1.579-3.414-10.284,5.286-1.755q3.789-1.259,5.78-.592A4.864,4.864,0,0,1,2228.8,627.674Zm5.64,19.407q-1.361,1.954-5.61,3.364l-5.479,1.82-3.84-11.563,5.045-1.675q4.562-1.515,6.87-.821t3.342,3.809Q2235.8,645.128,2234.441,647.081Z" transform="translate(-1666.309 -576.979)" fill="url(#linear-gradient)"/>
        <path id="Path_1699" data-name="Path 1699" d="M1483.176,581.7a11.63,11.63,0,0,0-7-.945,10.6,10.6,0,0,0,4.18-4.323,6.989,6.989,0,0,0,.078-5.212,7.358,7.358,0,0,0-5.085-5.226,14.333,14.333,0,0,0-6.951.2l-1.589-4.787-4.7,1.559,1.548,4.66-4.44,1.474-1.547-4.659-4.7,1.559,1.548,4.659-8.238,2.736,1.242,3.742,1.931-.641q2.2-.729,2.9-.387t1.377,2.37L1460.221,598q.673,2.028.314,2.723t-2.555,1.424l-1.931.641,1.251,3.766,8.238-2.735,1.547,4.659,4.695-1.559-1.547-4.659,4.44-1.475,1.547,4.66,4.695-1.559-1.6-4.807q4.79-2.039,6.718-4.372,2.617-3.174,1.007-8.026A8.35,8.35,0,0,0,1483.176,581.7Zm-9.495-7.488a4.683,4.683,0,0,1-.427,4.525q-1.342,1.772-5.373,3.11l-4.756,1.58-3.414-10.284,5.286-1.755q3.789-1.258,5.78-.593A4.864,4.864,0,0,1,1473.681,574.207Zm5.641,19.408q-1.362,1.953-5.61,3.363l-5.48,1.82-3.839-11.563,5.045-1.675q4.562-1.515,6.87-.821t3.342,3.808Q1480.683,591.662,1479.321,593.615Z" transform="translate(-1446.286 -561.4)" fill="url(#linear-gradient)"/>
      </g>
      <g id="Group_832" data-name="Group 832" transform="translate(348.528 11.375)">
        <path id="Path_1700" data-name="Path 1700" d="M2131.491,531.416l6.191,2.827a15.226,15.226,0,0,1,8.694,16.387c-1.971,11.69-6.51,29.573-16.68,41.627,0,0-6.795-10.383-19.193-14.2l6.5-16.013Z" transform="translate(-1988.35 -458.049)" fill="#ebf1ff"/>
        <rect id="Rectangle_301" data-name="Rectangle 301" width="38.462" height="49.885" rx="1" transform="translate(0 226.627) rotate(-62.156)" fill="#e4dfea"/>
        <path id="Path_1701" data-name="Path 1701" d="M2022.4,520.65h-4.546a2.434,2.434,0,0,0-2.042,1.108l-1.866,2.871a1.957,1.957,0,0,0-.258,1.543l.849,3.4,3.4,7.629,7.863-5.4-1.878-7.277Z" transform="translate(-1960.124 -454.912)" fill="#ce9d80"/>
        <path id="Path_1702" data-name="Path 1702" d="M2036.613,545.495l28.17,42.724,20.861-21.362,14.45,22.823-21.448,23.767a14.374,14.374,0,0,1-23.693-3.544l-26.79-57.319Z" transform="translate(-1964.358 -462.152)" fill="#ffd0a4"/>
        <path id="Path_1703" data-name="Path 1703" d="M2031.883,534.395l-1.878-12.207L2013.1,507.4v1.718a2.9,2.9,0,0,0,.728,1.923l4.671,5.28,3.051,4.007.593,4.353a3.459,3.459,0,0,1-2.911,3.887l-1.736.262a1.368,1.368,0,0,1-1.492-.889l-.1-.441a5.782,5.782,0,0,0-3.01-3.917h0a.684.684,0,0,0-.974.62v5.5l3.991,6.573,7.511,5.211h6.1Z" transform="translate(-1959.628 -451.051)" fill="#ffd0a4"/>
        <path id="Path_1704" data-name="Path 1704" d="M2047.312,453.674s-9.2,2.725-13.726-7.068L2061.1,430.39a18.105,18.105,0,0,1,18.932.334l5.042,3.217h0a10.777,10.777,0,0,1,11.413,12.049l-2.582,21.34c-1,8.236-3.161,13.234-8.274,19.224l-3.43,1.673h0l-7.236-.667Z" transform="translate(-1965.939 -427.882)" fill="#966039"/>
        <path id="Path_1705" data-name="Path 1705" d="M2052.948,463.506s-1.309,36.91,17.8,34.554v8.622a10.957,10.957,0,0,0,12.462,10.853h0c6.285-.872,10.752-3.14,9.454-9.351l-1.4-11.8a17.622,17.622,0,0,0-10.666.21l-2.9-9.954s5.307-5.206,1.969-11.193c-3.635-6.518-8.444,2.116-8.444,2.116l-6.548-15.94Z" transform="translate(-1971.575 -437.714)" fill="#ffd0a4"/>
        <path id="Path_1706" data-name="Path 1706" d="M2078.076,511.4s1.075.406,5.288-4c0,0-.218,3.549-5.288,8.329Z" transform="translate(-1978.902 -451.051)" fill="#ce9d80"/>
        <g id="Group_831" data-name="Group 831" transform="translate(89.595 50.228)">
          <path id="Path_1707" data-name="Path 1707" d="M2066.011,502.582a7.59,7.59,0,0,0,5.435-2.655.718.718,0,0,0-1.122-.895,6.042,6.042,0,0,1-4.979,2.09.718.718,0,1,0-.138,1.429A6.767,6.767,0,0,0,2066.011,502.582Z" transform="translate(-2064.558 -498.763)" fill="#966039"/>
        </g>
        <path id="Path_1708" data-name="Path 1708" d="M2111.641,995.232l3.886,14.824,5.564,6.963h8.662l.644-6.963-1.376-14.3-5.989-2.89Z" transform="translate(-1988.682 -592.505)" fill="#ffd0a4"/>
        <path id="Path_1709" data-name="Path 1709" d="M2121.024,1017.123l3.933,10.5a6.943,6.943,0,0,1-6.839,8.141h-35.455a3.187,3.187,0,0,1-2.933-4.435h0a6.819,6.819,0,0,1,3.4-3.515l23.022-10.695S2115.081,1025.257,2121.024,1017.123Z" transform="translate(-1979.308 -599.572)" fill="#110c35"/>
        <path id="Path_1710" data-name="Path 1710" d="M2027.549,992.356l.474,15.218,5.564,6.963h8.662l.644-6.963,3.022-15.027-2.091-8.2Z" transform="translate(-1964.18 -590.023)" fill="#ffd0a4"/>
        <path id="Path_1711" data-name="Path 1711" d="M2039.24,711.7l-9.257,107.363-2.434,93.428,18.366.191,14.543-92.7,28.389-93.278L2074.738,698.1Z" transform="translate(-1964.18 -506.616)" fill="#002e80"/>
        <path id="Path_1712" data-name="Path 1712" d="M2125.956,713.376l-7.484,109.613L2120.3,917l-17.459.269-13.918-90.8L2081.5,713.376Z" transform="translate(-1979.899 -511.068)" fill="#002e80"/>
        <path id="Path_1713" data-name="Path 1713" d="M2032.116,1017.123l3.934,10.5a6.944,6.944,0,0,1-6.84,8.141h-35.455a3.188,3.188,0,0,1-2.933-4.435h0a6.82,6.82,0,0,1,3.4-3.515l23.023-10.695S2026.174,1025.257,2032.116,1017.123Z" transform="translate(-1953.403 -599.572)" fill="#110c35"/>
        <path id="Path_1714" data-name="Path 1714" d="M2089.816,522.046l22.312,6.64,1.129,46.722,1.787,82.22c-38.009,11.1-57.609,8.875-71,2.777l3.259-93.981,2.085-39.41,17.838-4.739Z" transform="translate(-1968.987 -455.319)" fill="#ebf1ff"/>
        <path id="Path_1715" data-name="Path 1715" d="M2009.286,606.175l-3.663,15.933-14.484,54.75-3.774.686a4.591,4.591,0,0,0-3.5,2.958l-5.958,16.49a1.382,1.382,0,0,0,.739,1.74,34.166,34.166,0,0,0,11.582,2.771,4.525,4.525,0,0,0,4.384-2.753l7.377-17.369,29.053-62.749-.411-12.457-17.574-2.607Z" transform="translate(-1949.692 -479.073)" fill="#ffd0a4"/>
        <path id="Path_1716" data-name="Path 1716" d="M2043.031,529.056l-4.6,1.512a10.317,10.317,0,0,0-6.888,7.756l-9.327,46.14s14.225,1.884,24.223,7.106l3.255-22.652Z" transform="translate(-1962.627 -457.362)" fill="#ebf1ff"/>
        <path id="Path_1717" data-name="Path 1717" d="M1942.559,745.133l3.869,2.1a1.352,1.352,0,0,0,1.778-.449l1.76-2.7a1.352,1.352,0,0,0-.512-1.94l-4.05-2.093a1.352,1.352,0,0,0-1.786.517l-1.578,2.688A1.352,1.352,0,0,0,1942.559,745.133Z" transform="translate(-1939.21 -518.798)" fill="#b8b5bc"/>
        <path id="Path_1718" data-name="Path 1718" d="M2074.5,521.307l2.534-4.042h21.07l2.264,4.042S2091.134,524.137,2074.5,521.307Z" transform="translate(-1977.86 -453.926)" fill="#2d206d"/>
      </g>
      <g id="Group_842" data-name="Group 842" transform="translate(16.234 26.807)">
        <g id="Group_835" data-name="Group 835" transform="translate(15.32)">
          <path id="Rectangle_302" data-name="Rectangle 302" d="M3,0H22.437a0,0,0,0,1,0,0V44.985a0,0,0,0,1,0,0H3a3,3,0,0,1-3-3V3A3,3,0,0,1,3,0Z" transform="translate(60.943 44.987) rotate(180)" fill="url(#linear-gradient-2)" style="mix-blend-mode: screen;isolation: isolate"/>
          <path id="Path_1719" data-name="Path 1719" d="M1535.8,451.786v40.739a2.128,2.128,0,0,1-2.126,2.126H1492.94a2.128,2.128,0,0,1-2.126-2.126V451.786a2.128,2.128,0,0,1,2.126-2.126h40.732A2.128,2.128,0,0,1,1535.8,451.786Z" transform="translate(-1490.814 -449.66)" fill="url(#linear-gradient-3)"/>
          <path id="Path_1720" data-name="Path 1720" d="M1526.387,475.28a6.508,6.508,0,1,0-8.609,6.155V488.5a1.807,1.807,0,0,0,1.807,1.807h.588a1.807,1.807,0,0,0,1.807-1.807v-7.069A6.506,6.506,0,0,0,1526.387,475.28Z" transform="translate(-1497.386 -455.229)" fill="#ffe821"/>
          <path id="Path_1721" data-name="Path 1721" d="M1520.616,490.253a1.751,1.751,0,0,1-.443.055h-.584a1.8,1.8,0,0,1-1.809-1.8v-7.07a6.506,6.506,0,0,1,2.1-12.664,5.868,5.868,0,0,1,.738.043,6.5,6.5,0,0,0-1.366,12.621v7.07A1.8,1.8,0,0,0,1520.616,490.253Z" transform="translate(-1497.387 -455.228)" fill="#ff9d45"/>
          <path id="Path_1722" data-name="Path 1722" d="M1568.029,482.088a3.009,3.009,0,1,1-3.009-3.01A3.009,3.009,0,0,1,1568.029,482.088Z" transform="translate(-1511.559 -458.232)" fill="#ffe821"/>
          <g id="Group_834" data-name="Group 834" transform="translate(52.081 16.385)">
            <g id="Group_833" data-name="Group 833" transform="translate(0 5.076)">
              <path id="Path_1723" data-name="Path 1723" d="M1565.363,483.271a1.3,1.3,0,0,1-.174-2.5c.037-.013.92-.312,2.541-.775a1.3,1.3,0,0,1,.712,2.5c-1.552.442-2.409.732-2.418.736A1.3,1.3,0,0,1,1565.363,483.271Z" transform="translate(-1564.31 -479.945)" fill="url(#linear-gradient-27)"/>
            </g>
            <path id="Path_1724" data-name="Path 1724" d="M1678.518,500.9a1.292,1.292,0,0,1-.635-.322c-1.254-1.161-2.55-2.3-3.853-3.376a1.3,1.3,0,0,1,1.653-2c1.341,1.11,2.674,2.278,3.962,3.472a1.3,1.3,0,0,1-1.127,2.225Zm-102.557-21.777a1.3,1.3,0,0,1-.052-2.537c1.673-.394,3.4-.765,5.134-1.1a1.3,1.3,0,1,1,.5,2.545c-1.7.332-3.4.7-5.037,1.083A1.3,1.3,0,0,1,1575.961,479.128Zm94.556,15.155a1.3,1.3,0,0,1-.524-.229c-1.367-1.008-2.783-1.99-4.208-2.92a1.3,1.3,0,0,1,1.417-2.173c1.467.957,2.924,1.967,4.33,3a1.3,1.3,0,0,1-1.015,2.318Zm-84.349-17.154a1.3,1.3,0,0,1,.042-2.555c1.721-.272,3.469-.517,5.2-.728a1.3,1.3,0,0,1,.314,2.574c-1.7.208-3.416.448-5.1.716A1.3,1.3,0,0,1,1586.168,477.129Zm75.649,11.48a1.3,1.3,0,0,1-.4-.15c-1.472-.844-2.99-1.66-4.514-2.423a1.3,1.3,0,0,1,1.161-2.319c1.567.785,3.129,1.624,4.643,2.493a1.3,1.3,0,0,1-.89,2.4Zm-65.326-12.741a1.3,1.3,0,0,1,.135-2.566c1.738-.15,3.5-.269,5.236-.354a1.3,1.3,0,1,1,.128,2.591c-1.705.084-3.435.2-5.142.347A1.293,1.293,0,0,1,1596.492,475.868Zm10.386-.507a1.3,1.3,0,0,1,.232-2.571c1.752-.019,3.518,0,5.251.044a1.3,1.3,0,0,1-.072,2.593c-1.7-.048-3.432-.062-5.15-.043A1.318,1.318,0,0,1,1606.877,475.361Zm45.653,8.593a1.279,1.279,0,0,1-.271-.084c-1.557-.674-3.158-1.317-4.758-1.91a1.3,1.3,0,0,1,.9-2.433c1.645.61,3.289,1.271,4.888,1.964a1.3,1.3,0,0,1-.76,2.464Zm-35.26-8.3a1.3,1.3,0,0,1,.336-2.568c1.75.122,3.511.281,5.233.473a1.3,1.3,0,0,1-.289,2.578c-1.686-.188-3.409-.344-5.123-.463A1.287,1.287,0,0,1,1617.271,475.655Zm25.517,4.684a1.131,1.131,0,0,1-.143-.035c-1.616-.5-3.277-.976-4.938-1.4a1.3,1.3,0,0,1,.647-2.512c1.7.439,3.406.923,5.064,1.439a1.3,1.3,0,0,1-.63,2.512Zm-15.184-3.522a1.3,1.3,0,0,1,.448-2.555c1.257.2,2.518.419,3.749.655.5.094.951.186,1.427.284a1.3,1.3,0,0,1-.507,2.544l-.017,0c-.465-.1-.926-.181-1.395-.278-1.2-.231-2.433-.446-3.661-.64Z" transform="translate(-1567.398 -472.782)" fill="url(#linear-gradient-2)"/>
          </g>
          <path id="Path_1725" data-name="Path 1725" d="M1515.85,449.66,1490.814,474.7v-7.363l17.673-17.673Z" transform="translate(-1490.814 -449.66)" fill="url(#linear-gradient-2)" style="mix-blend-mode: screen;isolation: isolate"/>
          <path id="Path_1726" data-name="Path 1726" d="M1504.7,449.66l-13.882,13.882v-3.678l10.2-10.2Z" transform="translate(-1490.814 -449.66)" fill="url(#linear-gradient-2)" style="mix-blend-mode: screen;isolation: isolate"/>
        </g>
        <g id="Group_839" data-name="Group 839" transform="translate(199.166 13.951)">
          <g id="Group_837" data-name="Group 837" transform="translate(0 10.701)">
            <g id="Group_836" data-name="Group 836" transform="translate(0 12.644)">
              <path id="Path_1727" data-name="Path 1727" d="M1751.617,506.364a1.434,1.434,0,0,1-.573-2.712c.038-.019.959-.483,2.663-1.237a1.434,1.434,0,1,1,1.161,2.622c-1.631.722-2.525,1.171-2.534,1.176A1.426,1.426,0,0,1,1751.617,506.364Z" transform="translate(-1750.255 -502.292)" fill="url(#linear-gradient-2)"/>
            </g>
            <path id="Path_1728" data-name="Path 1728" d="M1878.383,505.876a1.428,1.428,0,0,1-.744-.256c-1.551-1.078-3.143-2.123-4.736-3.1a1.434,1.434,0,0,1,1.5-2.441c1.638,1.009,3.276,2.083,4.869,3.192a1.434,1.434,0,0,1-.894,2.609Zm-115.609-8.115a1.433,1.433,0,0,1-.446-2.768c1.771-.688,3.6-1.36,5.451-2a1.434,1.434,0,1,1,.935,2.711c-1.812.624-3.611,1.284-5.348,1.958A1.415,1.415,0,0,1,1762.774,497.762Zm105.835,2.093a1.423,1.423,0,0,1-.608-.171c-1.651-.893-3.352-1.751-5.055-2.55a1.434,1.434,0,0,1,1.218-2.6c1.752.822,3.5,1.7,5.2,2.623a1.434,1.434,0,0,1-.756,2.693Zm-94.969-5.845a1.434,1.434,0,0,1-.345-2.8c1.841-.561,3.717-1.1,5.577-1.593a1.433,1.433,0,1,1,.739,2.77c-1.827.488-3.671,1.014-5.479,1.566A1.437,1.437,0,0,1,1773.641,494.009Zm84.574.968a1.4,1.4,0,0,1-.461-.1c-1.74-.7-3.528-1.358-5.313-1.96a1.434,1.434,0,0,1,.916-2.717c1.836.619,3.675,1.3,5.465,2.017a1.434,1.434,0,0,1-.607,2.762Zm-73.467-3.931a1.434,1.434,0,0,1-.246-2.83c1.88-.43,3.79-.831,5.678-1.19a1.434,1.434,0,1,1,.536,2.817c-1.854.353-3.729.746-5.575,1.169A1.438,1.438,0,0,1,1784.749,491.046Zm11.292-2.148a1.434,1.434,0,0,1-.14-2.849c1.915-.29,3.851-.545,5.755-.758a1.434,1.434,0,1,1,.318,2.849c-1.867.209-3.766.458-5.643.743A1.477,1.477,0,0,1,1796.041,488.9Zm51.295,2.406a1.486,1.486,0,0,1-.31-.05c-1.807-.5-3.658-.958-5.5-1.362a1.434,1.434,0,0,1,.614-2.8c1.893.415,3.8.886,5.652,1.4a1.434,1.434,0,0,1-.454,2.814Zm-39.872-3.678a1.434,1.434,0,0,1-.026-2.862c1.935-.136,3.886-.232,5.8-.284a1.433,1.433,0,0,1,.079,2.866c-1.875.052-3.785.146-5.68.278A1.453,1.453,0,0,1,1807.464,487.626Zm28.652,1.215a1.252,1.252,0,0,1-.161-.017c-1.846-.3-3.737-.566-5.621-.78a1.433,1.433,0,1,1,.322-2.849c1.931.218,3.871.487,5.764.8a1.434,1.434,0,0,1-.3,2.847Zm-17.162-1.527a1.434,1.434,0,0,1,.1-2.866c1.407.024,2.82.072,4.2.143.56.026,1.069.057,1.606.092a1.434,1.434,0,0,1-.164,2.863h-.018c-.524-.033-1.042-.057-1.57-.09-1.351-.069-2.732-.116-4.107-.14Z" transform="translate(-1753.506 -484.449)" fill="url(#linear-gradient-2)"/>
          </g>
          <path id="Rectangle_303" data-name="Rectangle 303" d="M3,0H27.5a0,0,0,0,1,0,0V55.134a0,0,0,0,1,0,0H3a3,3,0,0,1-3-3V3A3,3,0,0,1,3,0Z" transform="translate(149.242 55.134) rotate(180)" fill="url(#linear-gradient-2)"/>
          <path id="Path_1729" data-name="Path 1729" d="M1910.592,471.476v50.879a2.128,2.128,0,0,1-2.126,2.126H1857.58a2.128,2.128,0,0,1-2.126-2.126V471.476a2.128,2.128,0,0,1,2.126-2.126h50.886A2.128,2.128,0,0,1,1910.592,471.476Z" transform="translate(-1780.907 -469.348)" fill="url(#linear-gradient-3)"/>
          <path id="Path_1730" data-name="Path 1730" d="M1899.056,500.743a7.976,7.976,0,1,0-10.551,7.544v8.664a2.214,2.214,0,0,0,2.215,2.214h.72a2.214,2.214,0,0,0,2.214-2.214v-8.664A7.974,7.974,0,0,0,1899.056,500.743Z" transform="translate(-1788.964 -476.171)" fill="#ffe821"/>
          <path id="Path_1731" data-name="Path 1731" d="M1891.983,519.094a2.144,2.144,0,0,1-.544.068h-.716a2.209,2.209,0,0,1-2.217-2.21v-8.666a7.974,7.974,0,0,1,2.572-15.521,7.162,7.162,0,0,1,.906.053,7.973,7.973,0,0,0-1.675,15.468v8.666A2.2,2.2,0,0,0,1891.983,519.094Z" transform="translate(-1788.964 -476.171)" fill="#ff9d45"/>
          <path id="Path_1732" data-name="Path 1732" d="M1948.333,511.259a3.009,3.009,0,1,1-3.01-3.009A3.009,3.009,0,0,1,1948.333,511.259Z" transform="translate(-1806.216 -480.683)" fill="#ffe821"/>
          <g id="Group_838" data-name="Group 838" transform="translate(137.693 29.033)">
            <path id="Path_1733" data-name="Path 1733" d="M1989.19,686.662a1.716,1.716,0,0,1-1.154-1.662c.054-2.273.087-4.576.1-6.845a1.716,1.716,0,0,1,3.432.016c-.01,2.291-.043,4.616-.1,6.91a1.718,1.718,0,0,1-2.278,1.581Z" transform="translate(-1957.232 -558.724)" fill="url(#linear-gradient-35)"/>
            <path id="Path_1734" data-name="Path 1734" d="M1989.2,667.254a1.715,1.715,0,0,1-1.154-1.6c-.035-2.275-.1-4.576-.179-6.836a1.716,1.716,0,1,1,3.43-.128c.084,2.286.145,4.611.181,6.911a1.716,1.716,0,0,1-2.277,1.648Z" transform="translate(-1957.182 -553.07)" fill="url(#linear-gradient-35)"/>
            <path id="Path_1735" data-name="Path 1735" d="M1988.349,647.871a1.718,1.718,0,0,1-1.152-1.52c-.137-2.285-.3-4.578-.49-6.816a1.716,1.716,0,0,1,3.421-.288c.191,2.265.357,4.586.5,6.9a1.717,1.717,0,0,1-2.273,1.725Z" transform="translate(-1956.842 -547.427)" fill="url(#linear-gradient-37)"/>
            <path id="Path_1736" data-name="Path 1736" d="M1986.575,628.551a1.717,1.717,0,0,1-1.146-1.434c-.252-2.283-.534-4.563-.839-6.777a1.716,1.716,0,0,1,3.4-.468c.309,2.245.6,4.556.849,6.869a1.717,1.717,0,0,1-2.265,1.811Z" transform="translate(-1956.223 -541.807)" fill="url(#linear-gradient-2)"/>
            <path id="Path_1737" data-name="Path 1737" d="M1983.761,609.357a1.714,1.714,0,0,1-1.132-1.339c-.376-2.248-.789-4.505-1.229-6.71a1.716,1.716,0,1,1,3.366-.67c.446,2.239.865,4.532,1.247,6.814a1.716,1.716,0,0,1-2.252,1.906Z" transform="translate(-1955.288 -536.232)" fill="url(#linear-gradient-39)"/>
            <path id="Path_1738" data-name="Path 1738" d="M1979.783,590.372a1.717,1.717,0,0,1-1.111-1.232c-.52-2.229-1.08-4.453-1.664-6.608a1.716,1.716,0,0,1,3.312-.9c.595,2.194,1.164,4.457,1.694,6.724a1.717,1.717,0,0,1-2.232,2.013Z" transform="translate(-1954 -530.729)" fill="url(#linear-gradient-2)"/>
            <path id="Path_1739" data-name="Path 1739" d="M1974.506,571.71a1.712,1.712,0,0,1-1.078-1.112c-.681-2.187-1.4-4.36-2.148-6.459a1.715,1.715,0,1,1,3.233-1.147c.76,2.14,1.5,4.356,2.191,6.585a1.716,1.716,0,0,1-2.2,2.132Z" transform="translate(-1952.32 -525.333)" fill="url(#linear-gradient-2)"/>
            <path id="Path_1740" data-name="Path 1740" d="M1967.793,553.517a1.71,1.71,0,0,1-1.031-.981c-.85-2.112-1.75-4.214-2.676-6.249a1.716,1.716,0,0,1,3.124-1.421c.946,2.081,1.866,4.23,2.735,6.388a1.716,1.716,0,0,1-2.152,2.263Z" transform="translate(-1950.208 -520.091)" fill="url(#linear-gradient-2)"/>
            <path id="Path_1741" data-name="Path 1741" d="M1959.52,535.982a1.71,1.71,0,0,1-.966-.839c-1.035-2.019-2.124-4.026-3.241-5.966a1.716,1.716,0,0,1,2.975-1.711c1.144,1.987,2.261,4.044,3.321,6.113a1.716,1.716,0,0,1-2.088,2.4Z" transform="translate(-1947.63 -515.064)" fill="url(#linear-gradient-2)"/>
            <path id="Path_1742" data-name="Path 1742" d="M1949.6,519.329a1.708,1.708,0,0,1-.879-.69c-1.227-1.9-2.514-3.785-3.827-5.6a1.716,1.716,0,0,1,2.781-2.011c1.347,1.864,2.669,3.8,3.929,5.75a1.716,1.716,0,0,1-2,2.551Z" transform="translate(-1944.565 -510.318)" fill="url(#linear-gradient-2)"/>
          </g>
          <path id="Path_1743" data-name="Path 1743" d="M1887.917,469.35l-32.462,32.462V490.361l21.011-21.011Z" transform="translate(-1780.907 -469.348)" fill="url(#linear-gradient-2)" style="mix-blend-mode: screen;isolation: isolate"/>
          <path id="Path_1744" data-name="Path 1744" d="M1870.569,469.35l-15.115,15.115v-5.726l9.389-9.389Z" transform="translate(-1780.907 -469.348)" fill="url(#linear-gradient-2)" style="mix-blend-mode: screen;isolation: isolate"/>
        </g>
        <g id="Group_841" data-name="Group 841" transform="translate(150.755 194.71)">
          <g id="Group_840" data-name="Group 840">
            <path id="Path_1745" data-name="Path 1745" d="M1959.658,771.615a1.772,1.772,0,0,1-1.2-3.076c1.537-1.413,2.379-2.355,2.387-2.365a1.772,1.772,0,0,1,2.65,2.352c-.039.043-.956,1.074-2.64,2.622A1.763,1.763,0,0,1,1959.658,771.615Z" transform="translate(-1762.343 -736.421)" fill="url(#linear-gradient-2)"/>
            <path id="Path_1746" data-name="Path 1746" d="M1839.762,909.575c-2.066,0-4.169-.034-6.251-.1a1.772,1.772,0,1,1,.112-3.542c2.045.065,4.11.1,6.139.1l.832,0h.009a1.772,1.772,0,0,1,.009,3.543Zm7.873-.164a1.772,1.772,0,0,1-.073-3.542c2.315-.1,4.655-.24,6.954-.425a1.772,1.772,0,0,1,.285,3.532c-2.346.189-4.731.335-7.091.434Zm-21.1-.284c-.04,0-.081,0-.122,0-2.352-.159-4.732-.361-7.074-.6a1.772,1.772,0,0,1,.36-3.525c2.3.235,4.642.434,6.954.591a1.771,1.771,0,0,1-.118,3.539Zm35.12-.852a1.772,1.772,0,0,1-.211-3.53c2.306-.28,4.624-.61,6.891-.983a1.772,1.772,0,1,1,.574,3.5c-2.314.381-4.683.718-7.038,1A1.7,1.7,0,0,1,1861.658,908.274Zm-49.121-.579a1.876,1.876,0,0,1-.242-.016c-2.344-.321-4.7-.685-7.01-1.079a1.771,1.771,0,1,1,.6-3.491c2.27.387,4.589.744,6.895,1.061a1.771,1.771,0,0,1-.239,3.526Zm63-1.7a1.772,1.772,0,0,1-.361-3.506c2.246-.469,4.534-.99,6.8-1.546a1.772,1.772,0,0,1,.844,3.441c-2.306.565-4.634,1.095-6.92,1.573A1.778,1.778,0,0,1,1875.538,905.993Zm-76.864-.666a1.817,1.817,0,0,1-.358-.036c-2.3-.471-4.624-.989-6.917-1.537a1.772,1.772,0,0,1,.825-3.447c2.255.541,4.545,1.049,6.8,1.512a1.772,1.772,0,0,1-.354,3.508Zm90.531-2.684a1.772,1.772,0,0,1-.478-3.478c2.2-.617,4.453-1.286,6.694-1.987a1.771,1.771,0,1,1,1.059,3.381c-2.275.713-4.562,1.392-6.8,2.018A1.787,1.787,0,0,1,1889.205,902.642Zm-104.195-.589a1.765,1.765,0,0,1-.47-.064c-2.278-.625-4.571-1.3-6.812-1.992a1.772,1.772,0,1,1,1.052-3.384c2.2.685,4.457,1.344,6.7,1.959a1.772,1.772,0,0,1-.468,3.481Zm117.625-3.616a1.772,1.772,0,0,1-.578-3.447c2.149-.743,4.355-1.539,6.557-2.368a1.771,1.771,0,1,1,1.247,3.316c-2.231.84-4.467,1.648-6.648,2.4A1.775,1.775,0,0,1,1902.635,898.437Zm-131.066-.56a1.76,1.76,0,0,1-.582-.1c-2.227-.775-4.469-1.6-6.664-2.445a1.772,1.772,0,0,1,1.278-3.305c2.157.834,4.36,1.643,6.55,2.4a1.772,1.772,0,0,1-.582,3.445Zm144.21-4.386a1.772,1.772,0,0,1-.668-3.413c2.138-.87,4.3-1.781,6.437-2.71a1.772,1.772,0,0,1,1.415,3.248c-2.161.94-4.353,1.864-6.518,2.744A1.768,1.768,0,0,1,1915.779,893.491Zm-157.336-.692a1.777,1.777,0,0,1-.7-.143c-2.178-.931-4.358-1.91-6.479-2.909a1.771,1.771,0,1,1,1.509-3.205c2.083.98,4.223,1.942,6.362,2.856a1.772,1.772,0,0,1-.7,3.4Zm170.227-4.918a1.772,1.772,0,0,1-.747-3.379c2.088-.968,4.213-1.983,6.315-3.014a1.771,1.771,0,0,1,1.561,3.18c-2.125,1.044-4.274,2.069-6.385,3.048A1.765,1.765,0,0,1,1928.671,887.882ZM1745.712,886.8a1.766,1.766,0,0,1-.813-.2c-2.115-1.095-4.216-2.236-6.247-3.389a1.772,1.772,0,1,1,1.751-3.08c1.99,1.131,4.051,2.25,6.125,3.323a1.772,1.772,0,0,1-.816,3.345Zm195.594-5.122a1.772,1.772,0,0,1-.816-3.345c2.063-1.069,4.146-2.175,6.19-3.289a1.772,1.772,0,0,1,1.695,3.112c-2.066,1.125-4.17,2.243-6.254,3.323A1.761,1.761,0,0,1,1941.306,881.678Zm-207.825-1.839a1.758,1.758,0,0,1-.937-.269c-2.024-1.263-4.026-2.576-5.952-3.9a1.771,1.771,0,0,1,2.008-2.919c1.883,1.295,3.841,2.577,5.82,3.815a1.771,1.771,0,0,1-.94,3.274Zm220.207-4.9a1.772,1.772,0,0,1-.879-3.311c2-1.139,4.037-2.329,6.065-3.538a1.772,1.772,0,1,1,1.815,3.044c-2.048,1.22-4.108,2.423-6.124,3.573A1.774,1.774,0,0,1,1953.688,874.939Zm-231.8-3.077a1.763,1.763,0,0,1-1.07-.361c-1.911-1.451-3.783-2.948-5.566-4.452a1.771,1.771,0,1,1,2.284-2.708c1.737,1.464,3.562,2.924,5.424,4.338a1.771,1.771,0,0,1-1.072,3.182Zm243.9-4.14a1.772,1.772,0,0,1-.937-3.276c1.98-1.231,3.97-2.494,5.916-3.754a1.772,1.772,0,0,1,1.925,2.974c-1.964,1.271-3.973,2.546-5.971,3.788A1.76,1.76,0,0,1,1965.8,867.721Zm-254.652-4.934a1.765,1.765,0,0,1-1.214-.481c-1.752-1.651-3.451-3.35-5.05-5.05a1.772,1.772,0,1,1,2.581-2.428c1.551,1.65,3.2,3.3,4.9,4.9a1.771,1.771,0,0,1-1.215,3.061Zm266.471-2.713a1.771,1.771,0,0,1-.991-3.241c1.921-1.292,3.866-2.625,5.782-3.962a1.772,1.772,0,1,1,2.028,2.905c-1.932,1.349-3.895,2.693-5.832,4A1.762,1.762,0,0,1,1977.615,860.074Zm-276.092-7.54a1.767,1.767,0,0,1-1.368-.647c-1.535-1.866-3-3.782-4.345-5.695a1.771,1.771,0,0,1,2.9-2.042c1.3,1.841,2.707,3.687,4.186,5.486a1.772,1.772,0,0,1-1.368,2.9Zm287.636-.517a1.771,1.771,0,0,1-1.04-3.207c1.889-1.367,3.788-2.766,5.643-4.158a1.772,1.772,0,1,1,2.126,2.835c-1.872,1.4-3.787,2.815-5.692,4.193A1.763,1.763,0,0,1,1989.16,852.017Zm11.264-8.448a1.771,1.771,0,0,1-1.088-3.17c1.841-1.43,3.691-2.893,5.5-4.347a1.772,1.772,0,1,1,2.221,2.761c-1.824,1.468-3.69,2.943-5.547,4.385A1.766,1.766,0,0,1,2000.423,843.569Zm-306.983-2.528a1.772,1.772,0,0,1-1.528-.873c-1.231-2.09-2.365-4.226-3.37-6.349a1.772,1.772,0,1,1,3.2-1.515c.959,2.025,2.042,4.067,3.22,6.066a1.771,1.771,0,0,1-1.525,2.671Zm317.954-6.3a1.772,1.772,0,0,1-1.135-3.133c1.79-1.491,3.589-3.017,5.347-4.532a1.771,1.771,0,1,1,2.314,2.682c-1.772,1.529-3.586,3.068-5.393,4.573A1.763,1.763,0,0,1,2011.393,834.745Zm-323.941-6.4a1.774,1.774,0,0,1-1.669-1.176,67.46,67.46,0,0,1-2.061-6.913,1.772,1.772,0,1,1,3.446-.826,63.809,63.809,0,0,0,1.952,6.547,1.774,1.774,0,0,1-1.668,2.368Zm334.6-2.8a1.772,1.772,0,0,1-1.182-3.092c1.755-1.572,3.5-3.161,5.176-4.723a1.772,1.772,0,0,1,2.413,2.595c-1.7,1.577-3.454,3.182-5.227,4.768A1.762,1.762,0,0,1,2022.053,825.545Zm10.31-9.591a1.771,1.771,0,0,1-1.232-3.044c1.7-1.643,3.375-3.3,4.982-4.924a1.772,1.772,0,0,1,2.518,2.493c-1.626,1.641-3.32,3.316-5.036,4.977A1.767,1.767,0,0,1,2032.362,815.953ZM1684.2,814.712a1.771,1.771,0,0,1-1.756-1.556,69.758,69.758,0,0,1-.5-7.2,1.772,1.772,0,0,1,1.74-1.8h.033a1.772,1.772,0,0,1,1.771,1.74,65.845,65.845,0,0,0,.476,6.833,1.772,1.772,0,0,1-1.543,1.974A1.73,1.73,0,0,1,1684.2,814.712Zm358.069-8.768a1.771,1.771,0,0,1-1.287-2.988c1.62-1.716,3.214-3.448,4.736-5.148a1.772,1.772,0,0,1,2.64,2.364c-1.543,1.723-3.158,3.478-4.8,5.216A1.764,1.764,0,0,1,2042.267,805.943Zm-358.32-5.274c-.05,0-.1,0-.151-.006a1.772,1.772,0,0,1-1.617-1.914c.2-2.37.521-4.771.957-7.138a1.772,1.772,0,1,1,3.485.641c-.414,2.253-.721,4.539-.911,6.8A1.771,1.771,0,0,1,1683.947,800.669Zm367.7-5.226a1.772,1.772,0,0,1-1.355-2.911c1.541-1.833,3.018-3.657,4.388-5.422a1.772,1.772,0,0,1,2.8,2.175c-1.4,1.8-2.9,3.659-4.473,5.526A1.768,1.768,0,0,1,2051.651,795.443Zm-365.174-8.586a1.774,1.774,0,0,1-1.7-2.255c.646-2.282,1.41-4.579,2.27-6.825a1.772,1.772,0,0,1,3.309,1.268c-.822,2.148-1.553,4.341-2.171,6.522A1.772,1.772,0,0,1,1686.477,786.857Zm157.641-12.366h-.023c-1.091,0-2.2-.041-3.3-.122a1.772,1.772,0,0,1,.26-3.534c1.01.074,2.032.113,3.038.113h.021c1.218,0,2.455-.056,3.679-.167a1.772,1.772,0,0,1,.317,3.53C1846.785,774.431,1845.441,774.492,1844.118,774.492Zm-152.623-.759a1.772,1.772,0,0,1-1.592-2.546c1.037-2.133,2.183-4.26,3.407-6.323a1.771,1.771,0,0,1,3.047,1.808c-1.173,1.979-2.273,4.018-3.266,6.063A1.772,1.772,0,0,1,1691.5,773.733Zm142.493-.445a1.74,1.74,0,0,1-.415-.05,49.2,49.2,0,0,1-6.941-2.231,1.772,1.772,0,1,1,1.329-3.285,45.66,45.66,0,0,0,6.438,2.071,1.772,1.772,0,0,1-.412,3.494Zm20.894-.147a1.772,1.772,0,0,1-.428-3.491,47.808,47.808,0,0,0,6.44-2.117,1.772,1.772,0,0,1,1.338,3.281,51.217,51.217,0,0,1-6.918,2.273A1.778,1.778,0,0,1,1854.882,773.141Zm-33.911-5.069a1.765,1.765,0,0,1-.872-.23,64.974,64.974,0,0,1-6.076-3.916,1.772,1.772,0,1,1,2.079-2.869,61.42,61.42,0,0,0,5.742,3.7,1.771,1.771,0,0,1-.874,3.314Zm46.921-.194a1.772,1.772,0,0,1-.872-3.314,60.355,60.355,0,0,0,5.746-3.7,1.771,1.771,0,0,1,2.081,2.866,63.331,63.331,0,0,1-6.086,3.914A1.752,1.752,0,0,1,1867.892,767.878Zm-169.224-6.235a1.772,1.772,0,0,1-1.443-2.8c1.376-1.942,2.851-3.853,4.382-5.682a1.771,1.771,0,1,1,2.717,2.274c-1.471,1.757-2.887,3.593-4.209,5.457A1.768,1.768,0,0,1,1698.668,761.642Zm110.905-1.772a1.765,1.765,0,0,1-1.168-.44c-1.74-1.527-3.487-3.191-5.194-4.944a1.771,1.771,0,1,1,2.538-2.472c1.643,1.687,3.323,3.287,4.994,4.753a1.771,1.771,0,0,1-1.169,3.1Zm-101.882-9.007a1.772,1.772,0,0,1-1.263-3.014c1.679-1.706,3.441-3.358,5.235-4.909a1.771,1.771,0,0,1,2.317,2.681c-1.723,1.489-3.414,3.074-5.026,4.713A1.766,1.766,0,0,1,1707.692,750.863Zm92.057-1.042a1.769,1.769,0,0,1-1.348-.621q-.511-.6-1.023-1.217c-1.15-1.384-2.348-2.718-3.56-3.961a1.772,1.772,0,0,1,2.538-2.474c1.277,1.311,2.539,2.715,3.75,4.173.331.4.66.792.99,1.179a1.771,1.771,0,0,1-1.346,2.922Zm-81.415-8.144a1.771,1.771,0,0,1-1.044-3.2c1.95-1.419,3.966-2.755,5.991-3.974a1.772,1.772,0,0,1,1.828,3.036c-1.938,1.166-3.867,2.444-5.734,3.8A1.765,1.765,0,0,1,1718.334,741.677Zm71.57-1.874a1.763,1.763,0,0,1-1.119-.4,54.175,54.175,0,0,0-5.53-3.969,1.772,1.772,0,1,1,1.879-3,57.849,57.849,0,0,1,5.892,4.229,1.772,1.772,0,0,1-1.122,3.144Zm-59.521-5.358a1.772,1.772,0,0,1-.77-3.369c2.187-1.052,4.422-2,6.642-2.8a1.772,1.772,0,1,1,1.211,3.33c-2.11.767-4.235,1.664-6.317,2.666A1.768,1.768,0,0,1,1730.383,734.445ZM1778,732.388a1.776,1.776,0,0,1-.726-.156,48.206,48.206,0,0,0-6.365-2.343,1.771,1.771,0,1,1,.986-3.4,51.971,51.971,0,0,1,6.834,2.514,1.772,1.772,0,0,1-.728,3.389Zm-34.411-2.723a1.772,1.772,0,0,1-.421-3.493,61.43,61.43,0,0,1,7.12-1.311,1.771,1.771,0,1,1,.432,3.516,57.958,57.958,0,0,0-6.707,1.236A1.771,1.771,0,0,1,1743.586,729.666Zm20.941-1.181a1.775,1.775,0,0,1-.251-.018,50.173,50.173,0,0,0-6.772-.492,1.772,1.772,0,0,1,.01-3.543h.01a53.9,53.9,0,0,1,7.25.527,1.772,1.772,0,0,1-.247,3.526Z" transform="translate(-1681.939 -724.431)" fill="url(#linear-gradient-2)"/>
            <path id="Path_1747" data-name="Path 1747" d="M2215.133,806.208a1.772,1.772,0,0,1-1.451-2.785c.688-.988,1.342-1.959,1.943-2.887a1.772,1.772,0,1,1,2.974,1.926c-.623.962-1.3,1.966-2.011,2.987A1.768,1.768,0,0,1,2215.133,806.208Z" transform="translate(-1836.782 -746.371)" fill="url(#linear-gradient-2)"/>
          </g>
        </g>
        <path id="Path_1748" data-name="Path 1748" d="M1507.006,771.514a1.764,1.764,0,0,1-1.07-.361c-.236-.179-.471-.361-.706-.544a1.772,1.772,0,1,1,2.183-2.791q.33.258.665.513a1.772,1.772,0,0,1-1.073,3.182Zm-6.052-5.152a1.766,1.766,0,0,1-1.216-.483c-1.725-1.63-3.42-3.382-5.039-5.206a1.771,1.771,0,0,1,2.65-2.351c1.55,1.747,3.172,3.423,4.822,4.982a1.772,1.772,0,0,1-1.217,3.059Zm-9.408-10.581a1.77,1.77,0,0,1-1.419-.708c-1.427-1.9-2.81-3.9-4.109-5.936a1.772,1.772,0,0,1,2.988-1.906c1.251,1.963,2.582,3.885,3.956,5.715a1.772,1.772,0,0,1-1.415,2.835Zm-7.623-11.934a1.772,1.772,0,0,1-1.56-.93c-1.131-2.093-2.21-4.267-3.207-6.46a1.771,1.771,0,1,1,3.225-1.465c.963,2.119,2.005,4.219,3.1,6.241a1.772,1.772,0,0,1-1.557,2.614Zm-5.87-12.9a1.773,1.773,0,0,1-1.658-1.148c-.839-2.227-1.619-4.522-2.318-6.82a1.772,1.772,0,1,1,3.389-1.033c.677,2.226,1.433,4.447,2.245,6.6a1.772,1.772,0,0,1-1.658,2.4Zm-4.131-13.555a1.773,1.773,0,0,1-1.723-1.366c-.548-2.324-1.03-4.7-1.432-7.056a1.771,1.771,0,1,1,3.492-.6c.389,2.285.856,4.586,1.388,6.837a1.777,1.777,0,0,1-1.726,2.179Zm-2.377-13.968a1.771,1.771,0,0,1-1.759-1.585c-.252-2.383-.429-4.8-.528-7.182a1.772,1.772,0,1,1,3.54-.145c.1,2.307.267,4.646.511,6.954a1.771,1.771,0,0,1-1.575,1.948A1.888,1.888,0,0,1,1471.544,703.425Zm-.576-14.155h-.044a1.771,1.771,0,0,1-1.728-1.813c.058-2.4.2-4.819.415-7.192a1.772,1.772,0,0,1,3.528.322c-.21,2.294-.344,4.634-.4,6.955A1.772,1.772,0,0,1,1470.968,689.27Zm1.3-14.1a1.772,1.772,0,0,1-1.751-2.054c.384-2.377.856-4.757,1.4-7.074a1.772,1.772,0,0,1,3.449.813c-.527,2.235-.983,4.532-1.354,6.826A1.771,1.771,0,0,1,1472.264,675.169Zm3.254-13.781a1.774,1.774,0,0,1-1.69-2.305c.724-2.3,1.541-4.584,2.43-6.8a1.771,1.771,0,1,1,3.288,1.319c-.855,2.131-1.641,4.333-2.339,6.545A1.773,1.773,0,0,1,1475.518,661.388Zm5.275-13.139a1.773,1.773,0,0,1-1.586-2.56c1.071-2.16,2.236-4.293,3.464-6.341a1.771,1.771,0,0,1,3.039,1.821c-1.179,1.968-2.3,4.018-3.328,6.094A1.771,1.771,0,0,1,1480.793,648.249Zm207.757-1.115h-.5a1.772,1.772,0,0,1,.008-3.543h.492c2.2,0,4.363-.089,6.438-.266a1.772,1.772,0,0,1,.3,3.531C1693.115,647.042,1690.847,647.135,1688.551,647.135Zm-7.567-.325c-.05,0-.1,0-.15-.006-2.348-.2-4.756-.485-7.159-.856a1.772,1.772,0,0,1,.541-3.5c2.321.359,4.646.637,6.913.827a1.772,1.772,0,0,1-.146,3.537Zm21.17-.918a1.771,1.771,0,0,1-.339-3.51,51.106,51.106,0,0,0,6.615-1.747,1.771,1.771,0,1,1,1.142,3.353,54.656,54.656,0,0,1-7.076,1.871A1.759,1.759,0,0,1,1702.153,645.892Zm-35.17-1.226a1.769,1.769,0,0,1-.382-.043c-2.321-.51-4.668-1.1-6.975-1.757a1.772,1.772,0,0,1,.969-3.408c2.238.637,4.515,1.21,6.767,1.706a1.772,1.772,0,0,1-.378,3.5Zm48.512-3.4a1.772,1.772,0,0,1-.845-3.33,32.809,32.809,0,0,0,5.553-3.76,1.772,1.772,0,1,1,2.285,2.708,36.365,36.365,0,0,1-6.152,4.169A1.767,1.767,0,0,1,1715.495,641.268Zm-62.142-.468a1.749,1.749,0,0,1-.583-.1c-2.258-.787-4.52-1.649-6.719-2.563a1.771,1.771,0,1,1,1.359-3.272c2.136.888,4.331,1.725,6.525,2.49a1.772,1.772,0,0,1-.583,3.445Zm-165.127-4.583a1.772,1.772,0,0,1-1.378-2.883,52.485,52.485,0,0,1,4.984-5.361,1.772,1.772,0,0,1,2.421,2.587,49.013,49.013,0,0,0-4.648,5A1.767,1.767,0,0,1,1488.225,636.217Zm152.046-.862a1.752,1.752,0,0,1-.777-.181c-2.173-1.063-4.314-2.2-6.365-3.37a1.772,1.772,0,0,1,1.761-3.076c1.984,1.136,4.057,2.234,6.161,3.264a1.772,1.772,0,0,1-.78,3.363Zm85.91-3.2a1.772,1.772,0,0,1-1.424-2.825,28.536,28.536,0,0,0,3.292-5.777,1.772,1.772,0,0,1,3.26,1.387,32.071,32.071,0,0,1-3.7,6.5A1.769,1.769,0,0,1,1726.181,632.157Zm-98.352-3.588a1.771,1.771,0,0,1-.814-.2c-1.984-1.028-4.1-2.039-6.294-3a1.772,1.772,0,1,1,1.429-3.243c2.26,1,4.446,2.039,6.5,3.1a1.772,1.772,0,0,1-.816,3.345Zm-129.311-2.019a1.772,1.772,0,0,1-1.035-3.211,63.4,63.4,0,0,1,6.161-3.9,1.771,1.771,0,1,1,1.721,3.1,59.989,59.989,0,0,0-5.815,3.679A1.765,1.765,0,0,1,1498.519,626.55Zm116.356-3.715a1.754,1.754,0,0,1-.626-.116c-2.13-.806-4.354-1.588-6.609-2.324a1.772,1.772,0,0,1,1.1-3.369c2.307.753,4.583,1.553,6.763,2.379a1.772,1.772,0,0,1-.627,3.429Zm-104.008-3.19a1.772,1.772,0,0,1-.7-3.4c2.158-.928,4.438-1.789,6.773-2.557a1.772,1.772,0,0,1,1.108,3.366c-2.238.736-4.418,1.559-6.481,2.446A1.759,1.759,0,0,1,1510.866,619.646Zm220.876-.383a1.816,1.816,0,0,1-.347-.033,1.773,1.773,0,0,1-1.392-2.083,40.12,40.12,0,0,0,.677-5.308c.03-.486.054-.965.071-1.44a1.771,1.771,0,1,1,3.54.124q-.025.76-.074,1.535a43.767,43.767,0,0,1-.738,5.78A1.773,1.773,0,0,1,1731.743,619.263Zm-130.337-.828a1.806,1.806,0,0,1-.478-.065c-2.221-.621-4.507-1.21-6.794-1.751a1.771,1.771,0,1,1,.815-3.447c2.332.551,4.665,1.152,6.932,1.785a1.772,1.772,0,0,1-.475,3.479Zm-77.1-3.24a1.772,1.772,0,0,1-.422-3.493c2.271-.559,4.644-1.057,7.052-1.479a1.771,1.771,0,1,1,.613,3.489c-2.329.41-4.623.891-6.818,1.431A1.788,1.788,0,0,1,1524.3,615.195Zm63.318-.023a1.769,1.769,0,0,1-.342-.033c-2.29-.447-4.615-.856-6.909-1.214a1.771,1.771,0,1,1,.545-3.5c2.34.364,4.71.78,7.044,1.237a1.771,1.771,0,0,1-.338,3.51Zm-14-2.18a1.674,1.674,0,0,1-.206-.012c-2.334-.271-4.684-.5-6.985-.668a1.772,1.772,0,0,1,.266-3.534c2.348.176,4.746.407,7.127.682a1.772,1.772,0,0,1-.2,3.532Zm-35.373-.267a1.772,1.772,0,0,1-.2-3.532c2.325-.267,4.731-.476,7.153-.624a1.771,1.771,0,1,1,.215,3.536c-2.358.144-4.7.348-6.965.607A1.647,1.647,0,0,1,1538.249,612.725Zm21.236-.794h-.059c-2.358-.079-4.7-.1-7.01-.077h-.023a1.772,1.772,0,0,1-.022-3.543c2.363-.029,4.76,0,7.173.078a1.772,1.772,0,0,1-.058,3.542Zm172.807-6.769a1.772,1.772,0,0,1-1.76-1.587,41.294,41.294,0,0,0-1.24-6.659,1.772,1.772,0,0,1,3.416-.94,45.02,45.02,0,0,1,1.348,7.23,1.771,1.771,0,0,1-1.578,1.946A1.631,1.631,0,0,1,1732.293,605.162Zm-3.771-13.559a1.772,1.772,0,0,1-1.6-1,36.271,36.271,0,0,0-3.493-5.76,1.771,1.771,0,1,1,2.845-2.11,39.769,39.769,0,0,1,3.836,6.324,1.773,1.773,0,0,1-1.594,2.545Zm-8.367-11.329a1.767,1.767,0,0,1-1.217-.485,44.594,44.594,0,0,0-5.3-4.275,1.771,1.771,0,1,1,2.012-2.916,48.145,48.145,0,0,1,5.721,4.617,1.772,1.772,0,0,1-1.218,3.059Zm-11.6-8.068a1.771,1.771,0,0,1-.806-.195,61.035,61.035,0,0,0-6.307-2.781,1.772,1.772,0,0,1,1.248-3.316,64.691,64.691,0,0,1,6.675,2.943,1.772,1.772,0,0,1-.809,3.349Zm-13.253-5.014a1.775,1.775,0,0,1-.452-.059,53.576,53.576,0,0,0-6.728-1.368,1.771,1.771,0,0,1,.4-3.52,55.956,55.956,0,0,1,7.23,1.462,1.772,1.772,0,0,1-.448,3.486Z" transform="translate(-1469.195 -482.461)" fill="url(#linear-gradient-2)"/>
      </g>
      <g id="Group_843" data-name="Group 843" transform="translate(40.972 291.596)">
        <path id="Rectangle_304" data-name="Rectangle 304" d="M3,0H22.437a0,0,0,0,1,0,0V44.985a0,0,0,0,1,0,0H3a3,3,0,0,1-3-3V3A3,3,0,0,1,3,0Z" transform="translate(60.941 44.985) rotate(180)" fill="url(#linear-gradient-2)"/>
        <rect id="Rectangle_305" data-name="Rectangle 305" width="44.984" height="44.983" rx="3" transform="translate(0 0.003)" fill="url(#linear-gradient-3)"/>
        <path id="Path_1749" data-name="Path 1749" d="M1539.675,848.943a6.508,6.508,0,1,0-8.609,6.155v7.069a1.806,1.806,0,0,0,1.807,1.806h.587a1.807,1.807,0,0,0,1.807-1.806V855.1A6.507,6.507,0,0,0,1539.675,848.943Z" transform="translate(-1510.676 -828.894)" fill="#ffe821"/>
        <path id="Path_1750" data-name="Path 1750" d="M1533.9,863.916a1.745,1.745,0,0,1-.443.055h-.585a1.8,1.8,0,0,1-1.809-1.8V855.1a6.506,6.506,0,0,1,2.1-12.664,5.857,5.857,0,0,1,.738.043,6.5,6.5,0,0,0-1.365,12.621v7.071A1.8,1.8,0,0,0,1533.9,863.916Z" transform="translate(-1510.677 -828.894)" fill="#ff9d45"/>
        <path id="Path_1751" data-name="Path 1751" d="M1528.708,823.33l-24.6,24.6v-8.6l16-16Z" transform="translate(-1504.104 -823.327)" fill="url(#linear-gradient-2)" style="mix-blend-mode: screen;isolation: isolate"/>
        <path id="Path_1752" data-name="Path 1752" d="M1515.669,823.33,1504.1,834.895v-4.309l7.256-7.256Z" transform="translate(-1504.104 -823.327)" fill="url(#linear-gradient-2)" style="mix-blend-mode: screen;isolation: isolate"/>
      </g>
      <g id="Group_844" data-name="Group 844" transform="translate(515.091 236.227)">
        <path id="Rectangle_306" data-name="Rectangle 306" d="M3,0H22.437a0,0,0,0,1,0,0V44.985a0,0,0,0,1,0,0H3a3,3,0,0,1-3-3V3A3,3,0,0,1,3,0Z" transform="translate(60.944 44.988) rotate(180)" fill="url(#linear-gradient-2)" style="mix-blend-mode: screen;isolation: isolate"/>
        <path id="Path_1753" data-name="Path 1753" d="M2218.157,747.316v40.739a2.128,2.128,0,0,1-2.126,2.126H2175.3a2.127,2.127,0,0,1-2.126-2.126V747.316a2.127,2.127,0,0,1,2.126-2.126h40.732A2.128,2.128,0,0,1,2218.157,747.316Z" transform="translate(-2173.174 -745.19)" fill="url(#linear-gradient-3)"/>
        <path id="Path_1754" data-name="Path 1754" d="M2208.748,770.811a6.508,6.508,0,1,0-8.609,6.155v7.069a1.807,1.807,0,0,0,1.807,1.806h.588a1.806,1.806,0,0,0,1.807-1.806v-7.069A6.505,6.505,0,0,0,2208.748,770.811Z" transform="translate(-2179.747 -750.759)" fill="#ffe821"/>
        <path id="Path_1755" data-name="Path 1755" d="M2202.977,785.784a1.753,1.753,0,0,1-.443.055h-.585a1.8,1.8,0,0,1-1.809-1.8v-7.07a6.506,6.506,0,0,1,2.1-12.664,5.743,5.743,0,0,1,.738.043,6.505,6.505,0,0,0-1.366,12.621v7.07A1.8,1.8,0,0,0,2202.977,785.784Z" transform="translate(-2179.748 -750.759)" fill="#ff9d45"/>
        <path id="Path_1756" data-name="Path 1756" d="M2197.005,745.19l-23.831,23.831v-9.666l14.165-14.165Z" transform="translate(-2173.174 -745.19)" fill="url(#linear-gradient-2)" style="mix-blend-mode: screen;isolation: isolate"/>
        <path id="Path_1757" data-name="Path 1757" d="M2182.373,745.19l-9.2,9.2v-4.833l4.365-4.365Z" transform="translate(-2173.174 -745.19)" fill="url(#linear-gradient-2)" style="mix-blend-mode: screen;isolation: isolate"/>
      </g>
      <g id="Group_847" data-name="Group 847" transform="translate(93.602)">
        <path id="Path_1758" data-name="Path 1758" d="M1603.821,993.282l-4.043,15.424-5.789,7.245h-9.013l-.67-7.245,1.432-14.875,6.231-3.007Z" transform="translate(-1580.103 -580.535)" fill="#ffd0a4"/>
        <path id="Path_1759" data-name="Path 1759" d="M1582.578,1016.059l-4.092,10.928a7.224,7.224,0,0,0,7.116,8.471h36.89a3.316,3.316,0,0,0,3.051-4.615h0a7.1,7.1,0,0,0-3.539-3.657l-23.954-11.127S1588.761,1024.522,1582.578,1016.059Z" transform="translate(-1578.375 -587.887)" fill="#110c35"/>
        <path id="Path_1760" data-name="Path 1760" d="M1722.256,990.29l-.493,15.833-5.789,7.245h-9.013l-.67-7.245-3.144-15.635,2.175-8.529Z" transform="translate(-1614.731 -577.952)" fill="#ffd0a4"/>
        <path id="Path_1761" data-name="Path 1761" d="M1695.377,698.283l9.631,111.706,2.533,97.207-19.109.2-11.207-100.243-24.581-91.516,5.8-31.509Z" transform="translate(-1600.015 -491.171)" fill="url(#linear-gradient-3)"/>
        <path id="Path_1762" data-name="Path 1762" d="M1601.995,700.026V813.858l-16.323,98.029,18.165.28,33.112-102.143,11.3-110Z" transform="translate(-1580.501 -495.803)" fill="url(#linear-gradient-3)"/>
        <path id="Path_1763" data-name="Path 1763" d="M1731.667,560.275l1.234,2.932,17.337-19.893,8.057,1.256L1739.9,582.044a14.039,14.039,0,0,1-22.509.021l-4.446-5.95V561.094l9.16-4.1Z" transform="translate(-1617.587 -450.142)" fill="#ffd0a4"/>
        <path id="Path_1764" data-name="Path 1764" d="M1703.642,508.25l8.08,2.658a5.649,5.649,0,0,1,3.557,3.477l12.642,35.673s-13.677,2.458-18.719,15.841l-9.111-16.114Z" transform="translate(-1613.84 -439.925)" fill="#fff"/>
        <path id="Path_1765" data-name="Path 1765" d="M1705.856,1016.059l-4.092,10.928a7.225,7.225,0,0,0,7.117,8.471h36.889a3.316,3.316,0,0,0,3.052-4.615h0a7.1,7.1,0,0,0-3.54-3.657l-23.954-11.127S1712.039,1024.522,1705.856,1016.059Z" transform="translate(-1614.295 -587.887)" fill="#110c35"/>
        <path id="Path_1766" data-name="Path 1766" d="M1634.954,500.955l-23.214,6.908-1.174,48.612-1.86,85.546c39.547,11.546,59.94,9.234,73.868,2.89l-3.391-97.783-2.169-41-19.525-4.941Z" transform="translate(-1587.213 -437.799)" fill="#fff"/>
        <path id="Path_1767" data-name="Path 1767" d="M1682,551.715l-36.07,34.542c-11.452,8.562-18.626,7.642-28.453-1.216l-1.861-1.669,2.676-16.238,17.3,1.466,41.776-25.773Z" transform="translate(-1589.228 -449.999)" fill="#ffd0a4"/>
        <path id="Path_1768" data-name="Path 1768" d="M1606.526,510.7l-6.442,2.942a15.82,15.82,0,0,0-9.056,16.994c2.046,12.162,6.767,30.805,17.364,43.366,0,0,7.07-10.8,19.97-14.773l-6.763-16.661Z" transform="translate(-1581.999 -440.64)" fill="#fff"/>
        <g id="Group_845" data-name="Group 845" transform="translate(91.754 69.714)">
          <path id="Path_1769" data-name="Path 1769" d="M1708.276,554.8l-.3-1.122a3.441,3.441,0,0,1,.229-2.4l19.615-40.251a1.446,1.446,0,0,1,1.371-.811l28.288,1.382a.8.8,0,0,1,.739.6l.344,1.351Z" transform="translate(-1707.856 -510.21)" fill="#cdc9d3"/>
          <path id="Path_1770" data-name="Path 1770" d="M1730.211,511.411l27.274,1.306a1.274,1.274,0,0,1,1.074,1.854l-21.635,42.214a1.275,1.275,0,0,1-1.212.691l-26.211-1.612a1.275,1.275,0,0,1-1.066-1.834l20.573-41.907A1.274,1.274,0,0,1,1730.211,511.411Z" transform="translate(-1707.986 -510.559)" fill="#e4dfea"/>
          <path id="Path_1771" data-name="Path 1771" d="M1737.952,514.344l-1.456,3.028a1.129,1.129,0,0,0,.916,1.614l3.016.274a1.13,1.13,0,0,0,1.1-.605l1.61-3.11a1.129,1.129,0,0,0-.934-1.645l-3.17-.193A1.128,1.128,0,0,0,1737.952,514.344Z" transform="translate(-1716.169 -511.228)" fill="#cdc9d3"/>
        </g>
        <path id="Path_1772" data-name="Path 1772" d="M1768.527,523.964c2.278.677,7.353,2.4,10.452,5.073a2.931,2.931,0,0,1,.592,3.74l-4.924,8.11a4.482,4.482,0,0,1-3.831,2.156h-3.46l-4.63-7.961a3.078,3.078,0,0,1-.179-2.753,45.037,45.037,0,0,1,4.029-7.716A1.775,1.775,0,0,1,1768.527,523.964Z" transform="translate(-1631.968 -444.481)" fill="#ffd0a4"/>
        <path id="Path_1773" data-name="Path 1773" d="M1723.311,533.117l-8.33-1.8a2.315,2.315,0,0,0-1.876.409l-10.345,7.735v5.836l4.636,3.053h4.37l4.512-2.9h0l5.821-1.122,3.88.631a1.454,1.454,0,0,0,1.672-1.227l1.047-7.243Z" transform="translate(-1614.618 -446.629)" fill="#ffd0a4"/>
        <path id="Path_1774" data-name="Path 1774" d="M1685.138,447.32s3.075-7.455,2.808-14.885c0,0,8.573-5.629,3.927-13.735s-30.764-9.457-37.069-1.8c0,0-10.132-1.709-11.483,12.092s4.279,40.549,4.279,40.549Z" transform="translate(-1597.238 -411.83)" fill="#1a134f"/>
        <path id="Path_1775" data-name="Path 1775" d="M1685.182,440.312s1.362,38.4-18.521,35.952v8.971a11.4,11.4,0,0,1-12.966,11.292h0A11.4,11.4,0,0,1,1644.1,482.9l3.494-16.716s-11.31-6.188-5.99-14.572c5.872-9.253,10.6,5.439,10.6,5.439,3.773-1.375,5.216-12.716,6.364-21.007C1661.344,439.949,1669.819,441.531,1685.182,440.312Z" transform="translate(-1596.385 -418.886)" fill="#ffd0a4"/>
        <path id="Path_1776" data-name="Path 1776" d="M1673.024,490.26s-6.621-1.594-11-6.176c0,0,3.28,10.694,11,13.017Z" transform="translate(-1602.748 -432.883)" fill="#ce9d80"/>
        <g id="Group_846" data-name="Group 846" transform="translate(68.054 42.523)">
          <path id="Path_1777" data-name="Path 1777" d="M1682.1,476.769a10.252,10.252,0,0,1-7.453-3.334.969.969,0,0,1,1.473-1.259,8.15,8.15,0,0,0,6.812,2.593.969.969,0,0,1,.251,1.922A9.275,9.275,0,0,1,1682.1,476.769Z" transform="translate(-1674.412 -471.838)" fill="#966039"/>
        </g>
      </g>
    </g>
    <ellipse id="Ellipse_542" data-name="Ellipse 542" cx="92.807" cy="9.087" rx="92.807" ry="9.087" transform="translate(1762.488 847.694)" fill="url(#radial-gradient)" style="mix-blend-mode: multiply;isolation: isolate"/>
    <ellipse id="Ellipse_543" data-name="Ellipse 543" cx="92.807" cy="9.087" rx="92.807" ry="9.087" transform="translate(1491.513 847.694)" fill="url(#radial-gradient-2)" style="mix-blend-mode: multiply;isolation: isolate"/>
  </g>
</svg>
