<svg xmlns="http://www.w3.org/2000/svg" xmlns:xlink="http://www.w3.org/1999/xlink" width="768.755" height="481.122" viewBox="0 0 768.755 481.122">
  <defs>
    <radialGradient id="radial-gradient" cx="0.5" cy="0.5" r="0.5" gradientTransform="translate(0)" gradientUnits="objectBoundingBox">
      <stop offset="0" stop-color="#2c3d8b"/>
      <stop offset="0.405" stop-color="#258acd"/>
      <stop offset="0.722" stop-color="#2558a3"/>
      <stop offset="0.976" stop-color="#1f9ada"/>
    </radialGradient>
    <linearGradient id="linear-gradient" x1="0" y1="0.5" x2="1" y2="0.5" gradientTransform="matrix(1, 0, 0, 1, 0, 0)" xlink:href="#radial-gradient"/>
    <linearGradient id="linear-gradient-2" x1="0" y1="0.5" x2="3.839" y2="0.5" gradientTransform="matrix(1, 0, 0, 1, 0, 0)" xlink:href="#radial-gradient"/>
    <linearGradient id="linear-gradient-3" x1="-0.091" y1="0.5" x2="4.098" y2="0.5" gradientTransform="matrix(1, 0, 0, 1, 0, 0)" xlink:href="#radial-gradient"/>
    <linearGradient id="linear-gradient-8" x1="0" y1="0.5" x2="1" y2="0.5" gradientTransform="matrix(1, 0, 0, 1, 0, 0)" xlink:href="#radial-gradient"/>
    <linearGradient id="linear-gradient-36" x1="0" y1="0.5" x2="1" y2="0.5" gradientTransform="matrix(1, 0, 0, 1, 0, 0)" xlink:href="#radial-gradient"/>
    <radialGradient id="radial-gradient-2" cx="0.5" cy="0.5" r="0.566" gradientTransform="translate(0.1) scale(0.8 1)" gradientUnits="objectBoundingBox">
      <stop offset="0" stop-color="#2c3d8b"/>
      <stop offset="0.976" stop-color="#1f9ada"/>
    </radialGradient>
    <radialGradient id="radial-gradient-3" cx="0.5" cy="0.5" r="0.566" xlink:href="#radial-gradient-2"/>
    <radialGradient id="radial-gradient-4" cx="0.5" cy="0.5" r="0.589" gradientTransform="translate(0.125) scale(0.75 1)" xlink:href="#radial-gradient-2"/>
    <radialGradient id="radial-gradient-5" cx="0.5" cy="0.5" r="0.589" gradientTransform="translate(0.125) scale(0.75 1)" xlink:href="#radial-gradient-2"/>
    <radialGradient id="radial-gradient-6" cx="0.5" cy="0.5" r="1.564" gradientTransform="translate(0.384) scale(0.232 1)" xlink:href="#radial-gradient-2"/>
    <radialGradient id="radial-gradient-7" cx="0.5" cy="0.5" r="2.72" gradientTransform="translate(0.434) scale(0.131 1)" xlink:href="#radial-gradient-2"/>
    <radialGradient id="radial-gradient-8" cx="0.5" cy="0.5" r="0.425" gradientTransform="translate(-0.25) scale(1.5 1)" xlink:href="#radial-gradient-2"/>
    <radialGradient id="radial-gradient-9" cx="0.5" cy="0.5" r="1.711" gradientTransform="translate(0.394) scale(0.211 1)" xlink:href="#radial-gradient-2"/>
  </defs>
  <g id="Group_1163" data-name="Group 1163" transform="translate(-1320.047 -163.022)">
    <circle id="Ellipse_568" data-name="Ellipse 568" cx="129.734" cy="129.734" r="129.734" transform="translate(1829.333 300.673)" fill="url(#radial-gradient)"/>
    <path id="Path_2606" data-name="Path 2606" d="M1825.27,539.628a11.832,11.832,0,0,0-11.482,9,146.625,146.625,0,0,1-80.48-32.17,11.827,11.827,0,0,0-16.681-15.752,146.766,146.766,0,0,1-37.794-87.426,11.824,11.824,0,0,0,0-22.955,146.758,146.758,0,0,1,37.8-87.426,11.829,11.829,0,0,0,16.681-15.752,146.625,146.625,0,0,1,80.142-32.142,11.8,11.8,0,1,0,.895-4.952,151.468,151.468,0,0,0-84.234,33.432,11.711,11.711,0,0,0-10.3-1.966l-42.069-66.638v-.078H1556.732a7.779,7.779,0,1,0,.177,3.545h118.834l40.8,64.636a11.829,11.829,0,0,0-3.405,16.525,151.6,151.6,0,0,0-39.175,90.632,11.834,11.834,0,0,0-9.732,10.22h-113.9a7.874,7.874,0,1,0-.177,3.546h114.176a11.84,11.84,0,0,0,9.631,9.558,151.6,151.6,0,0,0,39.175,90.629,11.829,11.829,0,0,0,3.405,16.525l-40.8,64.636H1556.908a7.873,7.873,0,1,0-.177,3.545h121.014v-.078l42.069-66.638a11.724,11.724,0,0,0,10.294-1.966,151.47,151.47,0,0,0,83.508,33.372,11.834,11.834,0,1,0,11.653-13.867Z" transform="translate(133.36 28.602)" fill="url(#linear-gradient)"/>
    <path id="Path_2607" data-name="Path 2607" d="M1420.524,330.672h63.407v-3.545H1420.7a7.876,7.876,0,1,0-.178,3.545Z" transform="translate(52.872 97.928)" fill="url(#linear-gradient-2)"/>
    <path id="Path_2609" data-name="Path 2609" d="M1463.908,443.61h-56.656a7.877,7.877,0,1,0-.178,3.545h56.835Z" transform="translate(44.52 170.251)" fill="url(#linear-gradient-3)"/>
    <g id="Group_1082" data-name="Group 1082" transform="translate(1901.921 348.149)">
      <g id="Group_1081" data-name="Group 1081" transform="translate(3.95)">
        <g id="Group_1080" data-name="Group 1080">
          <g id="Group_1079" data-name="Group 1079">
            <path id="Path_2610" data-name="Path 2610" d="M1780.7,367.7a23.447,23.447,0,0,0-5.436-29.672v-13.9h2.133a2.132,2.132,0,0,0,2.131-2.131v-6.4h2.131a2.131,2.131,0,0,0,1.214-3.879l-49.027-34.107a2.13,2.13,0,0,0-2.43,0l-49.027,34.107a2.131,2.131,0,0,0,1.214,3.879h2.132V322a2.132,2.132,0,0,0,2.133,2.131H1690v34.105h-2.133a2.132,2.132,0,0,0-2.131,2.132v6.779a6.4,6.4,0,0,0-4.263,6.012v4.263a2.132,2.132,0,0,0,2.132,2.131h98.056a2.132,2.132,0,0,0,2.132-2.131v-4.263A6.4,6.4,0,0,0,1780.7,367.7Zm-5.436-47.832h-17.052V315.6h17.052ZM1771,324.129v11.1a23.238,23.238,0,0,0-8.526-2.472v-8.633Zm-38.368-42.164,42.227,29.374H1690.4Zm-23.449,76.269h-2.131V324.129h2.131a2.132,2.132,0,0,0,2.133-2.131v-6.4h8.526V322a2.132,2.132,0,0,0,2.131,2.131h2.132v34.105h-2.132a2.132,2.132,0,0,0-2.131,2.132v6.4h-8.528v-6.4A2.131,2.131,0,0,0,1709.179,358.234ZM1724.1,362.5h13.706a23.314,23.314,0,0,0,1.684,4.265H1724.1V362.5Zm4.263-4.263V324.129h8.528v34.105Zm10.659-38.368H1724.1V315.6h17.053v4.265Zm2.131,4.263h2.131a2.132,2.132,0,0,0,2.132-2.131v-6.4h8.528V322a2.131,2.131,0,0,0,2.131,2.131h2.132v8.633a23.447,23.447,0,0,0-17.053,9.891ZM1690,315.6h17.052v4.263H1690Zm12.789,8.528v34.105h-8.526V324.129ZM1690,362.5h17.052v4.265H1690Zm-4.264,12.79v-2.132a2.132,2.132,0,0,1,2.131-2.132h54.4a23.628,23.628,0,0,0,4.626,4.263Zm93.793,0h-5.756a23.631,23.631,0,0,0,4.477-4.072,2.135,2.135,0,0,1,1.279,1.94Zm-19.185,0a19.185,19.185,0,1,1,19.185-19.185A19.184,19.184,0,0,1,1760.339,375.287Z" transform="translate(-1681.468 -277.235)" fill="#fff"/>
            <path id="Path_2611" data-name="Path 2611" d="M1746.008,299.8l-23.448-17.053-2.621,3.453,18.14,13.2h-38.2v4.263h44.766a2.136,2.136,0,0,0,1.363-3.858Z" transform="translate(-1670.037 -273.815)" fill="#fff"/>
            <path id="Path_2612" data-name="Path 2612" d="M1737.656,320.95h-2.131v-4.263h-4.263v4.263h-2.131a4.263,4.263,0,0,0-4.265,4.263v4.263a4.263,4.263,0,0,0,4.265,4.263h8.526V338h-8.526V335.87h-4.265V338a4.265,4.265,0,0,0,4.265,4.265h2.131v4.263h4.263v-4.263h2.131a4.263,4.263,0,0,0,4.263-4.265v-4.263a4.263,4.263,0,0,0-4.263-4.263h-8.526v-4.263h8.526v2.131h4.263v-2.131A4.262,4.262,0,0,0,1737.656,320.95Z" transform="translate(-1654.523 -252.74)" fill="#fff"/>
          </g>
        </g>
      </g>
      <text id="LIQUDITY_PROVIDER" data-name="LIQUDITY PROVIDER" transform="translate(54 131.574)" fill="#fff" font-size="19" font-family="Montserrat-Black, Montserrat" font-weight="800"><tspan x="-48.63" y="0">LIQUDITY</tspan><tspan x="-53.827" y="23">PROVIDER</tspan></text>
    </g>
    <text id="Major_Banks" data-name="Major Banks" transform="translate(1592.571 244.902)" fill="#747474" font-size="19" font-family="Montserrat-Bold, Montserrat" font-weight="700"><tspan x="-28.167" y="0">Major</tspan><tspan x="-30.837" y="23">Banks</tspan></text>
    <text id="ECN_Account" data-name="ECN Account" transform="translate(1593.789 425.566)" fill="#747474" font-size="19" font-family="Montserrat-Bold, Montserrat" font-weight="700"><tspan x="-20.995" y="0">ECN</tspan><tspan x="-41.771" y="23">Account</tspan></text>
    <text id="Commercial_Companies" data-name="Commercial Companies" transform="translate(1591.533 616.144)" fill="#747474" font-size="19" font-family="Montserrat-Bold, Montserrat" font-weight="700"><tspan x="-60.192" y="0">Commercial</tspan><tspan x="-55.765" y="23">Companies</tspan></text>
    <g id="Group_1141" data-name="Group 1141" transform="translate(1566.107 535.333)">
      <g id="Group_1084" data-name="Group 1084" transform="translate(19.856 18.911)">
        <g id="Group_1083" data-name="Group 1083">
          <rect id="Rectangle_942" data-name="Rectangle 942" width="1.891" height="1.891" fill="url(#linear-gradient)"/>
        </g>
      </g>
      <g id="Group_1086" data-name="Group 1086" transform="translate(19.856 22.693)">
        <g id="Group_1085" data-name="Group 1085">
          <rect id="Rectangle_943" data-name="Rectangle 943" width="1.891" height="1.891" fill="url(#linear-gradient)"/>
        </g>
      </g>
      <g id="Group_1088" data-name="Group 1088" transform="translate(19.856 26.475)">
        <g id="Group_1087" data-name="Group 1087">
          <rect id="Rectangle_944" data-name="Rectangle 944" width="1.891" height="1.891" fill="url(#linear-gradient)"/>
        </g>
      </g>
      <g id="Group_1090" data-name="Group 1090" transform="translate(19.856 30.257)">
        <g id="Group_1089" data-name="Group 1089">
          <rect id="Rectangle_945" data-name="Rectangle 945" width="1.891" height="1.891" fill="url(#linear-gradient)"/>
        </g>
      </g>
      <g id="Group_1092" data-name="Group 1092" transform="translate(23.638 18.911)">
        <g id="Group_1091" data-name="Group 1091">
          <rect id="Rectangle_946" data-name="Rectangle 946" width="1.891" height="1.891" fill="url(#linear-gradient-8)"/>
        </g>
      </g>
      <g id="Group_1094" data-name="Group 1094" transform="translate(23.638 22.693)">
        <g id="Group_1093" data-name="Group 1093">
          <rect id="Rectangle_947" data-name="Rectangle 947" width="1.891" height="1.891" fill="url(#linear-gradient-8)"/>
        </g>
      </g>
      <g id="Group_1096" data-name="Group 1096" transform="translate(23.638 26.475)">
        <g id="Group_1095" data-name="Group 1095">
          <rect id="Rectangle_948" data-name="Rectangle 948" width="1.891" height="1.891" fill="url(#linear-gradient-8)"/>
        </g>
      </g>
      <g id="Group_1098" data-name="Group 1098" transform="translate(23.638 30.257)">
        <g id="Group_1097" data-name="Group 1097">
          <rect id="Rectangle_949" data-name="Rectangle 949" width="1.891" height="1.891" fill="url(#linear-gradient-8)"/>
        </g>
      </g>
      <g id="Group_1100" data-name="Group 1100" transform="translate(27.421 18.911)">
        <g id="Group_1099" data-name="Group 1099">
          <rect id="Rectangle_950" data-name="Rectangle 950" width="1.891" height="1.891" fill="url(#linear-gradient)"/>
        </g>
      </g>
      <g id="Group_1102" data-name="Group 1102" transform="translate(27.421 22.693)">
        <g id="Group_1101" data-name="Group 1101">
          <rect id="Rectangle_951" data-name="Rectangle 951" width="1.891" height="1.891" fill="url(#linear-gradient)"/>
        </g>
      </g>
      <g id="Group_1104" data-name="Group 1104" transform="translate(27.421 26.475)">
        <g id="Group_1103" data-name="Group 1103">
          <rect id="Rectangle_952" data-name="Rectangle 952" width="1.891" height="1.891" fill="url(#linear-gradient)"/>
        </g>
      </g>
      <g id="Group_1106" data-name="Group 1106" transform="translate(27.421 30.257)">
        <g id="Group_1105" data-name="Group 1105">
          <rect id="Rectangle_953" data-name="Rectangle 953" width="1.891" height="1.891" fill="url(#linear-gradient)"/>
        </g>
      </g>
      <g id="Group_1108" data-name="Group 1108" transform="translate(31.203 18.911)">
        <g id="Group_1107" data-name="Group 1107">
          <rect id="Rectangle_954" data-name="Rectangle 954" width="1.891" height="1.891" fill="url(#linear-gradient)"/>
        </g>
      </g>
      <g id="Group_1110" data-name="Group 1110" transform="translate(23.638 15.129)">
        <g id="Group_1109" data-name="Group 1109">
          <rect id="Rectangle_955" data-name="Rectangle 955" width="1.891" height="1.891" fill="url(#linear-gradient-8)"/>
        </g>
      </g>
      <g id="Group_1112" data-name="Group 1112" transform="translate(27.421 15.129)">
        <g id="Group_1111" data-name="Group 1111">
          <rect id="Rectangle_956" data-name="Rectangle 956" width="1.891" height="1.891" fill="url(#linear-gradient)"/>
        </g>
      </g>
      <g id="Group_1114" data-name="Group 1114" transform="translate(31.203 15.129)">
        <g id="Group_1113" data-name="Group 1113">
          <rect id="Rectangle_957" data-name="Rectangle 957" width="1.891" height="1.891" fill="url(#linear-gradient)"/>
        </g>
      </g>
      <g id="Group_1116" data-name="Group 1116" transform="translate(31.203 22.693)">
        <g id="Group_1115" data-name="Group 1115">
          <rect id="Rectangle_958" data-name="Rectangle 958" width="1.891" height="1.891" fill="url(#linear-gradient)"/>
        </g>
      </g>
      <g id="Group_1118" data-name="Group 1118" transform="translate(31.203 26.475)">
        <g id="Group_1117" data-name="Group 1117">
          <rect id="Rectangle_959" data-name="Rectangle 959" width="1.891" height="1.891" fill="url(#linear-gradient)"/>
        </g>
      </g>
      <g id="Group_1120" data-name="Group 1120" transform="translate(31.203 30.257)">
        <g id="Group_1119" data-name="Group 1119">
          <rect id="Rectangle_960" data-name="Rectangle 960" width="1.891" height="1.891" fill="url(#linear-gradient)"/>
        </g>
      </g>
      <g id="Group_1122" data-name="Group 1122" transform="translate(34.985 18.911)">
        <g id="Group_1121" data-name="Group 1121">
          <rect id="Rectangle_961" data-name="Rectangle 961" width="1.891" height="1.891" fill="url(#linear-gradient-8)"/>
        </g>
      </g>
      <g id="Group_1124" data-name="Group 1124" transform="translate(34.985 22.693)">
        <g id="Group_1123" data-name="Group 1123">
          <rect id="Rectangle_962" data-name="Rectangle 962" width="1.891" height="1.891" fill="url(#linear-gradient-8)"/>
        </g>
      </g>
      <g id="Group_1126" data-name="Group 1126" transform="translate(34.985 26.475)">
        <g id="Group_1125" data-name="Group 1125">
          <rect id="Rectangle_963" data-name="Rectangle 963" width="1.891" height="1.891" fill="url(#linear-gradient-8)"/>
        </g>
      </g>
      <g id="Group_1128" data-name="Group 1128" transform="translate(34.985 30.257)">
        <g id="Group_1127" data-name="Group 1127">
          <rect id="Rectangle_964" data-name="Rectangle 964" width="1.891" height="1.891" fill="url(#linear-gradient-8)"/>
        </g>
      </g>
      <g id="Group_1130" data-name="Group 1130">
        <g id="Group_1129" data-name="Group 1129">
          <path id="Path_2613" data-name="Path 2613" d="M1527.64,406.9h-14.184V393.662a.945.945,0,0,0-.945-.945h-24.584a.945.945,0,0,0-.945.945h0V406.9H1472.8a.948.948,0,0,0-.947.945h0v34.039a.946.946,0,0,0,.945.947h1.977a5.8,5.8,0,0,0-.086.945V448.5a.945.945,0,0,0,.945.945H1524.8a.945.945,0,0,0,.945-.945h0v-4.728a5.624,5.624,0,0,0-.084-.945h1.976a.945.945,0,0,0,.945-.945v-34.04A.943.943,0,0,0,1527.64,406.9Zm-15.129,26.474a1.892,1.892,0,1,1-1.892-1.89A1.892,1.892,0,0,1,1512.511,433.374Zm-22.693-1.89a1.891,1.891,0,1,1-1.892,1.89A1.89,1.89,0,0,1,1489.818,431.484Zm-5.673,16.073h-7.565v-3.781a3.782,3.782,0,0,1,7.565,0Zm-5.673-11.346a1.891,1.891,0,1,1,1.89,1.892A1.89,1.89,0,0,1,1478.472,436.21Zm5.816,3.478a5.7,5.7,0,0,0-1.19-.88,3.782,3.782,0,1,0-5.47,0,5.706,5.706,0,0,0-2.171,2.13h-1.713V408.791h13.238V430.9a3.732,3.732,0,0,0,.1,5.073A5.691,5.691,0,0,0,1484.288,439.689Zm9.312,7.868h-7.565v-6.618a3.782,3.782,0,0,1,7.565,0Zm11.346,0h-9.455v-6.618a4.727,4.727,0,1,1,9.455,0Zm-7.565-16.073a2.837,2.837,0,1,1,2.837,2.837A2.836,2.836,0,0,1,1497.381,431.484Zm8.6,6.2a6.661,6.661,0,0,0-2.713-2.619,4.721,4.721,0,1,0-6.091,0,6.654,6.654,0,0,0-2.712,2.619,5.713,5.713,0,0,0-1.906-1.716,3.756,3.756,0,0,0-3.683-6.245V394.609h22.693v35.118a3.766,3.766,0,0,0-3.681,6.245A5.708,5.708,0,0,0,1505.977,437.689Zm8.424,6.087v3.781h-7.563v-6.618a3.781,3.781,0,1,1,7.563,0Zm9.456,3.781h-7.565v-3.781a3.782,3.782,0,0,1,7.565,0Zm-5.673-11.346a1.891,1.891,0,1,1,1.89,1.892A1.89,1.89,0,0,1,1518.184,436.21Zm8.51,4.728h-1.713a5.708,5.708,0,0,0-2.171-2.13,3.782,3.782,0,1,0-5.47,0,2.445,2.445,0,0,1-3.984-2.837,3.732,3.732,0,0,0,.1-5.073V408.791h13.238v32.147Z" transform="translate(-1471.852 -392.717)" fill="url(#linear-gradient)"/>
        </g>
      </g>
      <g id="Group_1132" data-name="Group 1132" transform="translate(44.44 21.747)">
        <g id="Group_1131" data-name="Group 1131">
          <rect id="Rectangle_965" data-name="Rectangle 965" width="1.891" height="15.128" fill="url(#linear-gradient)"/>
        </g>
      </g>
      <g id="Group_1134" data-name="Group 1134" transform="translate(50.113 21.747)">
        <g id="Group_1133" data-name="Group 1133">
          <rect id="Rectangle_966" data-name="Rectangle 966" width="1.891" height="15.128" fill="url(#linear-gradient)"/>
        </g>
      </g>
      <g id="Group_1136" data-name="Group 1136" transform="translate(4.728 21.747)">
        <g id="Group_1135" data-name="Group 1135">
          <rect id="Rectangle_967" data-name="Rectangle 967" width="1.891" height="15.128" fill="url(#linear-gradient)"/>
        </g>
      </g>
      <g id="Group_1138" data-name="Group 1138" transform="translate(10.401 21.747)">
        <g id="Group_1137" data-name="Group 1137">
          <rect id="Rectangle_968" data-name="Rectangle 968" width="1.891" height="15.128" fill="url(#linear-gradient)"/>
        </g>
      </g>
      <g id="Group_1140" data-name="Group 1140" transform="translate(21.747 3.782)">
        <g id="Group_1139" data-name="Group 1139">
          <path id="Path_2614" data-name="Path 2614" d="M1497.562,395.05h-11.348a.945.945,0,0,0-.945.945v7.565a.946.946,0,0,0,.945.947h11.346a.946.946,0,0,0,.947-.945V396A.947.947,0,0,0,1497.562,395.05Zm-.946,7.565h-9.455v-5.673h9.455Z" transform="translate(-1485.269 -395.05)" fill="url(#linear-gradient)"/>
        </g>
      </g>
    </g>
    <g id="Group_1150" data-name="Group 1150" transform="translate(1566.107 163.022)">
      <g id="Group_1143" data-name="Group 1143">
        <g id="Group_1142" data-name="Group 1142">
          <path id="Path_2615" data-name="Path 2615" d="M1527.638,210.3h-1.892v-.945a2.839,2.839,0,0,0-1.89-2.663V187.431a2.837,2.837,0,0,0,1.89-2.663v-.945a2.837,2.837,0,0,0,0-5.673h-.678l-24.355-14.988a.947.947,0,0,0-.99,0l-24.355,14.988h-.679a2.837,2.837,0,0,0,0,5.673v.945a2.839,2.839,0,0,0,1.892,2.663v19.258a2.84,2.84,0,0,0-1.892,2.663v.945h-1.89a.948.948,0,0,0-.947.947v7.563a.948.948,0,0,0,.947.947h54.839a.946.946,0,0,0,.945-.947v-7.563A.946.946,0,0,0,1527.638,210.3Zm-3.781-25.529a.947.947,0,0,1-.947.947h-3.781a.945.945,0,0,1-.945-.947v-.945h5.673Zm-.947,23.639a.946.946,0,0,1,.947.945v.945h-5.673v-.945a.945.945,0,0,1,.945-.945Zm-2.837-1.892V187.6h1.892v18.911Zm-45.385-24.584a.945.945,0,0,1,0-1.89h6.62V178.15h-2.333l21.242-13.072,21.243,13.072h-34.479v1.892h38.765a.945.945,0,1,1,0,1.89Zm18.911,24.757V187.431a2.837,2.837,0,0,0,1.892-2.663v-.945h9.455v.945a2.836,2.836,0,0,0,1.892,2.663v19.258a2.838,2.838,0,0,0-1.892,2.663v.945h-9.455v-.945A2.839,2.839,0,0,0,1493.6,206.689Zm-.945,1.718a.945.945,0,0,1,.945.945v.945h-5.673v-.945a.945.945,0,0,1,.945-.945Zm-2.837-1.892V187.6h1.89v18.911Zm2.837-20.8h-3.783a.945.945,0,0,1-.945-.947v-.945h5.673v.945A.945.945,0,0,1,1492.655,185.715Zm14.183,23.637a.945.945,0,0,1,.945-.945h3.781a.945.945,0,0,1,.947.945v.945h-5.673Zm1.89-2.837V187.6h1.892v18.911Zm2.837-20.8h-3.781a.945.945,0,0,1-.945-.947v-.945h5.673v.945A.946.946,0,0,1,1511.564,185.715Zm-34.039,0a.945.945,0,0,1-.945-.947v-.945h5.673v.945a.945.945,0,0,1-.945.947Zm2.837,1.89v18.911h-1.89V187.6Zm-3.781,21.747a.945.945,0,0,1,.945-.945h3.783a.945.945,0,0,1,.945.945v.945h-5.673Zm7.565,8.51h-10.4v-5.673h10.4Zm-1.892-11.173V187.431a2.837,2.837,0,0,0,1.892-2.663v-.945h1.89v.945a2.839,2.839,0,0,0,1.892,2.663v19.258a2.84,2.84,0,0,0-1.892,2.663v.945h-1.89v-.945A2.838,2.838,0,0,0,1482.253,206.689Zm32.147,11.173h-28.366V215.97h22.692v-1.89h-22.692v-1.892H1514.4Zm-1.89-11.173V187.431a2.837,2.837,0,0,0,1.89-2.663v-.945h1.892v.945a2.836,2.836,0,0,0,1.892,2.663v19.258a2.838,2.838,0,0,0-1.892,2.663v.945H1514.4v-.945A2.839,2.839,0,0,0,1512.511,206.689Zm14.183,11.173h-10.4v-5.673h10.4Z" transform="translate(-1471.852 -163.022)" fill="url(#linear-gradient)"/>
        </g>
      </g>
      <g id="Group_1145" data-name="Group 1145" transform="translate(38.767 51.058)">
        <g id="Group_1144" data-name="Group 1144">
          <rect id="Rectangle_969" data-name="Rectangle 969" width="1.891" height="1.891" fill="url(#linear-gradient)"/>
        </g>
      </g>
      <g id="Group_1147" data-name="Group 1147" transform="translate(11.347 15.128)">
        <g id="Group_1146" data-name="Group 1146">
          <rect id="Rectangle_970" data-name="Rectangle 970" width="1.891" height="1.891" fill="url(#linear-gradient-8)"/>
        </g>
      </g>
      <g id="Group_1149" data-name="Group 1149" transform="translate(24.584 5.674)">
        <g id="Group_1148" data-name="Group 1148">
          <path id="Path_2616" data-name="Path 2616" d="M1490.8,166.522a3.782,3.782,0,1,0,3.783,3.782A3.783,3.783,0,0,0,1490.8,166.522Zm0,5.673a1.891,1.891,0,1,1,1.892-1.892A1.89,1.89,0,0,1,1490.8,172.2Z" transform="translate(-1487.019 -166.522)" fill="url(#linear-gradient-36)"/>
        </g>
      </g>
    </g>
    <path id="Path_2617" data-name="Path 2617" d="M1517.237,297.406a11.346,11.346,0,1,0-10.27-16.136l-3.039-1.122a4.444,4.444,0,0,0,.073-.707,4.768,4.768,0,1,0-.723,2.483l3.033,1.118a11.132,11.132,0,0,0,.156,6.561l-10.4,4.407a11.293,11.293,0,0,0-14.031-5.32l-2.616-5.5a4.7,4.7,0,1,0-2.84.973,4.617,4.617,0,0,0,1.136-.154l2.613,5.492a11.326,11.326,0,0,0-.606,19.214l-1.73,3.109a4.641,4.641,0,0,0-1.413-.24,4.784,4.784,0,1,0,3.067,1.159l1.733-3.115a11.247,11.247,0,0,0,11.55-1.345l3.722,4.094a11.294,11.294,0,0,0-3.052,7.717,11.488,11.488,0,0,0,.141,1.7l-4.378,1.039a4.7,4.7,0,1,0,.455,1.992c0-.052-.015-.1-.016-.154l4.372-1.036a11.341,11.341,0,1,0,20.765-8.9l5.555-3.611a4.807,4.807,0,1,0-1.028-1.587l-5.566,3.618a11.42,11.42,0,0,0-4.225-3.355L1514.289,297A11.346,11.346,0,0,0,1517.237,297.406Zm-17.964-15.128a2.837,2.837,0,1,1,2.837-2.837A2.841,2.841,0,0,1,1499.273,282.279Zm-25.529-2.837a2.837,2.837,0,1,1,2.837,2.837A2.84,2.84,0,0,1,1473.744,279.442Zm2.837,39.712a2.837,2.837,0,1,1,2.837-2.837A2.841,2.841,0,0,1,1476.58,319.154Zm8.51,8.51a2.837,2.837,0,1,1,2.837-2.837A2.841,2.841,0,0,1,1485.09,327.664Zm38.767-22.692a2.837,2.837,0,1,1-2.837,2.837A2.841,2.841,0,0,1,1523.857,304.971Zm-12.188-11.286a4.742,4.742,0,0,1,4.623-3.843h1.892a4.743,4.743,0,0,1,4.623,3.843,9.387,9.387,0,0,1-11.137,0Zm5.568-5.733a2.837,2.837,0,1,1,2.837-2.837A2.842,2.842,0,0,1,1517.237,287.952Zm0-11.346a9.44,9.44,0,0,1,7.137,15.638,6.694,6.694,0,0,0-3.764-3.825,4.727,4.727,0,1,0-6.745,0,6.7,6.7,0,0,0-3.765,3.825,9.442,9.442,0,0,1,7.137-15.638ZM1476.58,299.3a9.456,9.456,0,1,1,16.578,6.2,6.693,6.693,0,0,0-3.77-3.84,4.728,4.728,0,1,0-6.743,0,6.693,6.693,0,0,0-3.76,3.809A9.4,9.4,0,0,1,1476.58,299.3Zm6.6-.947a2.837,2.837,0,1,1,2.837,2.837A2.841,2.841,0,0,1,1483.18,298.351Zm-2.73,8.558a4.742,4.742,0,0,1,4.62-3.83h1.891a4.738,4.738,0,0,1,4.625,3.854,9.382,9.382,0,0,1-11.136-.024Zm18.911,20.8a4.742,4.742,0,0,1,4.619-3.83h1.892a4.741,4.741,0,0,1,4.624,3.856,9.385,9.385,0,0,1-11.135-.026Zm5.565-5.72a2.837,2.837,0,1,1,2.837-2.837A2.842,2.842,0,0,1,1504.926,321.991Zm9.474-1.892a9.406,9.406,0,0,1-2.331,6.2,6.7,6.7,0,0,0-3.77-3.84,4.727,4.727,0,1,0-6.745,0,6.7,6.7,0,0,0-3.76,3.809A9.45,9.45,0,1,1,1514.4,320.1Zm-6.5-10.944a11.2,11.2,0,0,0-9.845,1.955l-3.722-4.094a11.27,11.27,0,0,0,2.479-11.262l10.4-4.407a11.419,11.419,0,0,0,5.305,5.017Z" transform="translate(94.254 69.349)" fill="url(#linear-gradient)"/>
    <g id="Group_1152" data-name="Group 1152" transform="translate(1357.092 367.404)">
      <text id="Trader" transform="translate(42 81.504)" fill="#747474" font-size="19" font-family="Montserrat-Bold, Montserrat" font-weight="700"><tspan x="-32.367" y="0">Trader</tspan></text>
      <g id="Group_1151" data-name="Group 1151" transform="translate(15.391 0)">
        <path id="Path_2618" data-name="Path 2618" d="M1384.483,289.116q5.728,0,11.459,0c.827,0,1.174.358,1.174,1.2q0,8.865,0,17.729c0,1.018-.308,1.332-1.3,1.332q-9.75,0-19.5.016a.888.888,0,0,1-.864-.457,7.432,7.432,0,0,0-3.151-2.754.748.748,0,0,1-.522-.8c.02-4.981.011-9.962.015-14.945,0-1.028.3-1.329,1.3-1.329Q1378.784,289.111,1384.483,289.116Zm9.836,4.352-4.367,4.407-3.041-3.208-5.159,5.2-2.828-2.974-5.65,5.662,1.48,1.477,4.256-4.41,2.982,3.117,5.135-5.163,2.815,2.986,5.722-5.718Zm-20.484-.342h6v-1.952h-6Zm17.251,12.23v1.971h3.966v-1.971Zm-8.189.006h-3.979v1.948h3.979Zm6.08.01H1385v1.953h3.974Z" transform="translate(-1340.369 -289.114)" fill="url(#radial-gradient-2)"/>
        <path id="Path_2619" data-name="Path 2619" d="M1365.09,289.115q5.667,0,11.335,0c1.007,0,1.3.313,1.3,1.332q0,7.44.01,14.881a.784.784,0,0,1-.514.862,7.416,7.416,0,0,0-3.19,2.8.785.785,0,0,1-.766.4q-9.752-.01-19.5,0c-1.083,0-1.367-.3-1.367-1.4q0-8.833,0-17.668c0-.848.344-1.2,1.17-1.2Q1359.33,289.113,1365.09,289.115Zm10.57,5.038V292.2h-4.983v1.948Zm-13.085-1.969v1.952h4.989v-1.952Zm-.016,14.118h4.989V304.35h-4.989Zm-8.081-1.968V306.3h4.961v-1.971Zm21.211-4.015h-5.009v1.927h5.009Zm-8.119-.021h-4.991v1.948h4.991Zm-8.108,1.969V300.3h-5v1.969Zm11.218-6.028v1.952h4.992v-1.952Zm-3.112.016h-4.986v1.95h4.986Zm-8.108-4.047h-5v1.934h5Zm-4.987,4.03v1.95h4.986v-1.95Zm16.212,8.109v1.95h3.976v-1.95Z" transform="translate(-1352.397 -289.115)" fill="url(#radial-gradient-3)"/>
        <path id="Path_2620" data-name="Path 2620" d="M1372.458,315.581a2.142,2.142,0,0,1,.906-2.391,7.853,7.853,0,0,0,3.1-6.3c.015-.443.006-.887.013-1.329a.646.646,0,0,1,.053-.159c.188-.008.392-.028.6-.028q9.118,0,18.235,0c1.086,0,1.368.289,1.368,1.392q0,7.756,0,15.513c0,1.018-.306,1.332-1.3,1.332-3.631,0-7.26-.006-10.891.01a.944.944,0,0,1-.912-.488,4.879,4.879,0,0,0-3.01-2.05c-1.611-.405-3.221-.815-4.837-1.2-.371-.088-.585-.235-.648-.631s-.206-.771-.288-1.162A3.06,3.06,0,0,0,1372.458,315.581Zm6.041,1.913h6.025v-1.939H1378.5Zm6.044-5.992h-6.022v1.935h6.022Zm-.023-2.1v-1.947h-5.986V309.4Zm3.14-1.989v1.968h1.926V307.41Zm-.024,6.022h1.97v-1.94h-1.97Zm5.069.011h1.956V311.5H1392.7Zm-3.1,2.1h-1.957v1.945h1.957Zm3.122-.018v1.968h1.922v-1.968Zm-5.093,6.022h1.947v-1.952h-1.947Zm7.054-1.934h-1.972v1.927h1.972Zm-1.98-12.184v1.96h1.948v-1.96Z" transform="translate(-1339.983 -279.021)" fill="url(#radial-gradient-4)"/>
        <path id="Path_2621" data-name="Path 2621" d="M1372.588,305.391a30.037,30.037,0,0,0,.259,3.055,7.292,7.292,0,0,0,2.9,4.738,2.118,2.118,0,0,1,.911,2.4c-1.76.379-2.319,1.783-2.584,3.367a1.108,1.108,0,0,1-1.029,1.018c-1.519.332-3.025.731-4.532,1.122a5.262,5.262,0,0,0-3.1,2.145.986.986,0,0,1-.7.37c-3.713.023-7.428.018-11.142.015-.833,0-1.174-.353-1.174-1.206q-.005-7.914,0-15.83c0-.827.34-1.2,1.109-1.206q9.433-.007,18.867,0A2.046,2.046,0,0,1,1372.588,305.391Zm-1.984,10.156h-8.025v1.95h8.025Zm.005-4.054h-8.025v1.953h8.025Zm-8.053-2.112h8.049v-1.948h-8.049Zm-3.1.015V307.44h-4.982V309.4Zm.01,2.106h-5.009v1.943h5.009Zm-4.992,4.026V317.5h4.981v-1.971Zm-.029,6.015h5v-1.932h-5Zm8.117-1.96v1.968h2.97v-1.968Z" transform="translate(-1352.397 -279.022)" fill="url(#radial-gradient-5)"/>
        <path id="Path_2622" data-name="Path 2622" d="M1360.381,322.526c.535-1.384,1.024-2.773,1.606-4.124a2.861,2.861,0,0,1,2.084-1.6q2.723-.681,5.451-1.344a3.231,3.231,0,0,1,.749-.076c3.694,0,7.39-.057,11.08.029a16.76,16.76,0,0,1,3.324.674c1.046.245,2.082.527,3.117.8a2.651,2.651,0,0,1,1.845,1.516c.578,1.35,1.075,2.736,1.611,4.12Z" transform="translate(-1347.44 -272.816)" fill="url(#radial-gradient-6)"/>
        <path id="Path_2623" data-name="Path 2623" d="M1396.51,326.049h-38.5c.055-.415.076-.8.162-1.178a5.026,5.026,0,0,1,4.8-3.864q14.309-.01,28.615,0A5,5,0,0,1,1396.51,326.049Z" transform="translate(-1348.912 -269.317)" fill="url(#radial-gradient-7)"/>
        <path id="Path_2624" data-name="Path 2624" d="M1374.3,318.59h-4.093c0-.311.007-.6,0-.885a3.13,3.13,0,0,0-1.327-2.6,6.136,6.136,0,0,1-2.725-5.461,34.42,34.42,0,0,1,.149-4.412,5.99,5.99,0,0,1,6.563-4.848,6.069,6.069,0,0,1,5.44,5.971c0,1.621.016,3.25-.143,4.858a4.721,4.721,0,0,1-1.95,3.36A3.918,3.918,0,0,0,1374.3,318.59Z" transform="translate(-1343.859 -282.131)" fill="url(#radial-gradient-8)"/>
        <path id="Path_2625" data-name="Path 2625" d="M1376.512,314.888h-9.558c.1-.408.169-.789.272-1.162a1.07,1.07,0,0,1,1.157-.856c2.192.016,4.384,0,6.576.006.841,0,1.118.222,1.323,1.041C1376.359,314.222,1376.428,314.527,1376.512,314.888Z" transform="translate(-1343.359 -274.365)" fill="url(#radial-gradient-9)"/>
      </g>
    </g>
    <g id="Group_1162" data-name="Group 1162" transform="translate(1320.047 356.348)">
      <g id="Group_1157" data-name="Group 1157" transform="translate(0 0)">
        <path id="Path_2626" data-name="Path 2626" d="M1336.546,282.293h-3.666v7.944h-12.833V293.9h12.833v7.944h3.666V293.9h12.833v-3.667h-12.833Z" transform="translate(-1320.047 -282.293)" fill="#cc001e"/>
        <g id="Group_1153" data-name="Group 1153" transform="translate(17.854 13.178)">
          <path id="Path_2627" data-name="Path 2627" d="M1333.965,290.423l6.772,3.763v-3.763Z" transform="translate(-1329.26 -290.423)" fill="#004493"/>
          <path id="Path_2628" data-name="Path 2628" d="M1331.062,290.423l11.478,6.376V295l-8.232-4.573Z" transform="translate(-1331.062 -290.423)" fill="#004493"/>
          <path id="Path_2629" data-name="Path 2629" d="M1339.482,296.149l-8.42-4.678v4.678Z" transform="translate(-1331.062 -289.773)" fill="#004493"/>
        </g>
        <path id="Path_2630" data-name="Path 2630" d="M1331.062,290.423l11.478,6.376V295l-8.232-4.573Z" transform="translate(-1313.208 -277.245)" fill="#edecec"/>
        <path id="Path_2631" data-name="Path 2631" d="M1331.062,290.423l11.478,6.376V295l-8.232-4.573Z" transform="translate(-1313.208 -277.245)" fill="#cc001e"/>
        <g id="Group_1154" data-name="Group 1154" transform="translate(0 13.178)">
          <path id="Path_2632" data-name="Path 2632" d="M1325.222,290.423l-5.175,2.875v-2.875Z" transform="translate(-1320.047 -290.423)" fill="#004493"/>
          <path id="Path_2633" data-name="Path 2633" d="M1330.965,290.924v5.566h-10.018Z" transform="translate(-1319.487 -290.113)" fill="#004493"/>
        </g>
        <path id="Path_2634" data-name="Path 2634" d="M1328.279,290.423,1320.047,295v1.8h0l11.478-6.376Z" transform="translate(-1320.047 -277.245)" fill="#cc001e"/>
        <g id="Group_1155" data-name="Group 1155">
          <path id="Path_2635" data-name="Path 2635" d="M1326.819,287.668l-6.772-3.763v3.763Z" transform="translate(-1320.047 -281.292)" fill="#004493"/>
          <path id="Path_2636" data-name="Path 2636" d="M1331.525,288.67l-11.478-6.376v1.8l8.232,4.573Z" transform="translate(-1320.047 -282.293)" fill="#004493"/>
          <path id="Path_2637" data-name="Path 2637" d="M1321.933,282.293l8.421,4.678v-4.678Z" transform="translate(-1318.876 -282.293)" fill="#004493"/>
        </g>
        <path id="Path_2638" data-name="Path 2638" d="M1331.525,288.67l-11.478-6.376v1.8l8.232,4.573Z" transform="translate(-1320.047 -282.293)" fill="#edecec"/>
        <path id="Path_2639" data-name="Path 2639" d="M1331.525,288.67l-11.478-6.376v1.8l8.232,4.573Z" transform="translate(-1320.047 -282.293)" fill="#cc001e"/>
        <g id="Group_1156" data-name="Group 1156" transform="translate(17.854 0)">
          <path id="Path_2640" data-name="Path 2640" d="M1334.95,287.329l5.175-2.875v2.875Z" transform="translate(-1328.648 -280.952)" fill="#004493"/>
          <path id="Path_2641" data-name="Path 2641" d="M1331.062,287.859v-5.566h10.017Z" transform="translate(-1331.062 -282.293)" fill="#004493"/>
        </g>
        <path id="Path_2642" data-name="Path 2642" d="M1334.308,288.67l8.232-4.573v-1.8h0l-11.478,6.376Z" transform="translate(-1313.208 -282.293)" fill="#cc001e"/>
      </g>
      <g id="Group_1161" data-name="Group 1161" transform="translate(14.245 9.023)">
        <rect id="Rectangle_971" data-name="Rectangle 971" width="33.006" height="22.309" fill="#fff"/>
        <g id="Group_1160" data-name="Group 1160" transform="translate(1.58 1.376)">
          <path id="Path_2643" data-name="Path 2643" d="M1359.142,308.265h-28.818a.515.515,0,0,1-.514-.515V289.224a.515.515,0,0,1,.514-.515h28.818a.515.515,0,0,1,.514.515V307.75A.515.515,0,0,1,1359.142,308.265Z" transform="translate(-1329.81 -288.709)" fill="#f3f2f2"/>
          <g id="Group_1158" data-name="Group 1158">
            <path id="Path_2644" data-name="Path 2644" d="M1359.656,290.215H1329.81v-.99a.515.515,0,0,1,.514-.515h28.818a.515.515,0,0,1,.514.515v.99Z" transform="translate(-1329.81 -288.709)" fill="#e13446"/>
            <rect id="Rectangle_972" data-name="Rectangle 972" width="29.846" height="1.504" transform="translate(0 6.018)" fill="#e13446"/>
            <rect id="Rectangle_973" data-name="Rectangle 973" width="29.846" height="1.504" transform="translate(0 3.009)" fill="#e13446"/>
            <path id="Path_2645" data-name="Path 2645" d="M1359.656,295.782h-29.332a.515.515,0,0,1-.514-.515v-.989h29.845Z" transform="translate(-1329.81 -285.251)" fill="#e13446"/>
            <rect id="Rectangle_974" data-name="Rectangle 974" width="29.846" height="1.504" transform="translate(0 15.043)" fill="#e13446"/>
            <path id="Path_2646" data-name="Path 2646" d="M1359.142,301.35h-28.818a.515.515,0,0,1-.514-.515v-.989h29.845v.989A.515.515,0,0,1,1359.142,301.35Z" transform="translate(-1329.81 -281.794)" fill="#e13446"/>
            <rect id="Rectangle_975" data-name="Rectangle 975" width="29.846" height="1.504" transform="translate(0 12.035)" fill="#e13446"/>
          </g>
          <path id="Path_2647" data-name="Path 2647" d="M1343.189,288.71h-12.865a.514.514,0,0,0-.514.514v9.5a.515.515,0,0,0,.514.515h12.865a.516.516,0,0,0,.516-.515v-9.5A.514.514,0,0,0,1343.189,288.71Z" transform="translate(-1329.81 -288.708)" fill="#233888"/>
          <g id="Group_1159" data-name="Group 1159" transform="translate(0.83 1.149)">
            <path id="Path_2648" data-name="Path 2648" d="M1330.936,289.451l.115.342.36,0a.048.048,0,0,1,.027.087l-.288.214.109.342a.049.049,0,0,1-.074.055l-.293-.209-.293.209a.049.049,0,0,1-.074-.055l.109-.342-.288-.214a.048.048,0,0,1,.027-.087l.36,0,.115-.342A.048.048,0,0,1,1330.936,289.451Z" transform="translate(-1330.322 -289.418)" fill="#f3f2f2"/>
            <path id="Path_2649" data-name="Path 2649" d="M1330.936,290.554l.115.34.36,0a.048.048,0,0,1,.027.087l-.288.214.109.344a.048.048,0,0,1-.074.053l-.293-.209-.293.209a.048.048,0,0,1-.074-.053l.109-.344-.288-.214a.048.048,0,0,1,.027-.087l.36,0,.115-.34A.047.047,0,0,1,1330.936,290.554Z" transform="translate(-1330.322 -288.733)" fill="#f3f2f2"/>
            <path id="Path_2650" data-name="Path 2650" d="M1330.936,291.656l.115.342.36,0a.048.048,0,0,1,.027.088l-.288.214.109.342a.049.049,0,0,1-.074.055l-.293-.209-.293.209a.049.049,0,0,1-.074-.055l.109-.342-.288-.214a.048.048,0,0,1,.027-.088l.36,0,.115-.342A.048.048,0,0,1,1330.936,291.656Z" transform="translate(-1330.322 -288.049)" fill="#f3f2f2"/>
            <path id="Path_2651" data-name="Path 2651" d="M1330.936,292.759l.115.34.36,0a.048.048,0,0,1,.027.088l-.288.214.109.344a.049.049,0,0,1-.074.054l-.293-.209-.293.209a.048.048,0,0,1-.074-.054l.109-.344-.288-.214a.048.048,0,0,1,.027-.088l.36,0,.115-.34A.047.047,0,0,1,1330.936,292.759Z" transform="translate(-1330.322 -287.364)" fill="#f3f2f2"/>
            <path id="Path_2652" data-name="Path 2652" d="M1330.936,293.861l.115.342.36,0a.048.048,0,0,1,.027.088l-.288.214.109.344a.049.049,0,0,1-.074.055l-.293-.211-.293.211a.049.049,0,0,1-.074-.055l.109-.342-.288-.214a.049.049,0,0,1,.027-.089l.36,0,.115-.342A.048.048,0,0,1,1330.936,293.861Z" transform="translate(-1330.322 -286.68)" fill="#f3f2f2"/>
            <path id="Path_2653" data-name="Path 2653" d="M1331.792,289.992l.113.34.36,0a.049.049,0,0,1,.029.087l-.29.214.109.344a.048.048,0,0,1-.075.054l-.292-.209-.293.209a.048.048,0,0,1-.075-.054l.109-.344-.29-.214a.049.049,0,0,1,.029-.087l.36,0,.113-.34A.048.048,0,0,1,1331.792,289.992Z" transform="translate(-1329.791 -289.082)" fill="#f3f2f2"/>
            <path id="Path_2654" data-name="Path 2654" d="M1331.792,291.094l.113.342.36,0a.049.049,0,0,1,.029.087l-.29.214.109.342a.049.049,0,0,1-.075.055l-.292-.209-.293.209a.049.049,0,0,1-.075-.055l.109-.342-.29-.214a.049.049,0,0,1,.029-.087l.36,0,.113-.342A.049.049,0,0,1,1331.792,291.094Z" transform="translate(-1329.791 -288.398)" fill="#f3f2f2"/>
            <path id="Path_2655" data-name="Path 2655" d="M1331.792,292.2l.113.34.36,0a.049.049,0,0,1,.029.088l-.29.214.109.344a.048.048,0,0,1-.075.053l-.292-.209-.293.209a.048.048,0,0,1-.075-.053l.109-.344-.29-.214a.049.049,0,0,1,.029-.088l.36,0,.113-.34A.048.048,0,0,1,1331.792,292.2Z" transform="translate(-1329.791 -287.713)" fill="#f3f2f2"/>
            <path id="Path_2656" data-name="Path 2656" d="M1331.792,293.3l.113.342.36,0a.048.048,0,0,1,.029.088l-.29.214.109.342a.049.049,0,0,1-.075.055l-.292-.209-.293.209a.049.049,0,0,1-.075-.055l.109-.342-.29-.214a.049.049,0,0,1,.029-.088l.36,0,.113-.342A.049.049,0,0,1,1331.792,293.3Z" transform="translate(-1329.791 -287.029)" fill="#f3f2f2"/>
            <path id="Path_2657" data-name="Path 2657" d="M1332.648,289.451l.114.342.36,0a.049.049,0,0,1,.029.087l-.29.214.109.342a.049.049,0,0,1-.074.055l-.293-.209-.292.209a.049.049,0,0,1-.075-.055l.109-.342-.29-.214a.049.049,0,0,1,.029-.087l.36,0,.113-.342A.049.049,0,0,1,1332.648,289.451Z" transform="translate(-1329.259 -289.418)" fill="#f3f2f2"/>
            <path id="Path_2658" data-name="Path 2658" d="M1332.648,290.554l.114.34.36,0a.049.049,0,0,1,.029.087l-.29.214.109.344a.048.048,0,0,1-.074.053l-.293-.209-.292.209a.048.048,0,0,1-.075-.053l.109-.344-.29-.214a.049.049,0,0,1,.029-.087l.36,0,.113-.34A.048.048,0,0,1,1332.648,290.554Z" transform="translate(-1329.259 -288.733)" fill="#f3f2f2"/>
            <path id="Path_2659" data-name="Path 2659" d="M1332.648,291.656l.114.342.36,0a.049.049,0,0,1,.029.088l-.29.214.109.342a.049.049,0,0,1-.074.055l-.293-.209-.292.209a.049.049,0,0,1-.075-.055l.109-.342-.29-.214a.048.048,0,0,1,.029-.088l.36,0,.113-.342A.049.049,0,0,1,1332.648,291.656Z" transform="translate(-1329.259 -288.049)" fill="#f3f2f2"/>
            <path id="Path_2660" data-name="Path 2660" d="M1332.648,292.759l.114.34.36,0a.049.049,0,0,1,.029.088l-.29.214.109.344a.048.048,0,0,1-.074.054l-.293-.209-.292.209a.048.048,0,0,1-.075-.054l.109-.344-.29-.214a.049.049,0,0,1,.029-.088l.36,0,.113-.34A.048.048,0,0,1,1332.648,292.759Z" transform="translate(-1329.259 -287.364)" fill="#f3f2f2"/>
            <path id="Path_2661" data-name="Path 2661" d="M1332.648,293.861l.114.342.36,0a.049.049,0,0,1,.029.088l-.29.214.109.344a.049.049,0,0,1-.074.055l-.293-.211-.292.211a.049.049,0,0,1-.075-.055l.109-.344-.29-.214a.049.049,0,0,1,.029-.088l.36,0,.113-.342A.049.049,0,0,1,1332.648,293.861Z" transform="translate(-1329.259 -286.68)" fill="#f3f2f2"/>
            <path id="Path_2662" data-name="Path 2662" d="M1333.5,289.992l.115.34.36,0a.048.048,0,0,1,.027.087l-.288.214.109.344a.049.049,0,0,1-.075.054l-.293-.209-.293.209a.049.049,0,0,1-.075-.054l.109-.344-.289-.214a.049.049,0,0,1,.028-.087l.36,0,.115-.34A.047.047,0,0,1,1333.5,289.992Z" transform="translate(-1328.728 -289.082)" fill="#f3f2f2"/>
            <path id="Path_2663" data-name="Path 2663" d="M1333.5,291.094l.115.342.36,0a.048.048,0,0,1,.027.087l-.288.214.109.342a.049.049,0,0,1-.075.055l-.293-.209-.293.209a.049.049,0,0,1-.075-.055l.109-.342-.289-.214a.049.049,0,0,1,.028-.087l.36,0,.115-.342A.048.048,0,0,1,1333.5,291.094Z" transform="translate(-1328.728 -288.398)" fill="#f3f2f2"/>
            <path id="Path_2664" data-name="Path 2664" d="M1333.5,292.2l.115.34.36,0a.048.048,0,0,1,.027.088l-.288.214.109.344a.049.049,0,0,1-.075.053l-.293-.209-.293.209a.049.049,0,0,1-.075-.053l.109-.344-.289-.214a.049.049,0,0,1,.028-.088l.36,0,.115-.34A.047.047,0,0,1,1333.5,292.2Z" transform="translate(-1328.728 -287.713)" fill="#f3f2f2"/>
            <path id="Path_2665" data-name="Path 2665" d="M1333.5,293.3l.115.342.36,0a.048.048,0,0,1,.027.088l-.288.214.109.342a.049.049,0,0,1-.075.055l-.293-.209-.293.209a.049.049,0,0,1-.075-.055l.109-.342-.289-.214a.049.049,0,0,1,.028-.088l.36,0,.115-.342A.048.048,0,0,1,1333.5,293.3Z" transform="translate(-1328.728 -287.029)" fill="#f3f2f2"/>
            <path id="Path_2666" data-name="Path 2666" d="M1334.359,289.451l.113.342.361,0a.049.049,0,0,1,.027.087l-.29.214.109.342a.049.049,0,0,1-.075.055l-.292-.209-.293.209a.049.049,0,0,1-.075-.055l.109-.342-.29-.214a.049.049,0,0,1,.029-.087l.36,0,.114-.342A.049.049,0,0,1,1334.359,289.451Z" transform="translate(-1328.197 -289.418)" fill="#f3f2f2"/>
            <path id="Path_2667" data-name="Path 2667" d="M1334.359,290.554l.113.34.361,0a.049.049,0,0,1,.027.087l-.29.214.109.344a.048.048,0,0,1-.075.053l-.292-.209-.293.209a.048.048,0,0,1-.075-.053l.109-.344-.29-.214a.049.049,0,0,1,.029-.087l.36,0,.114-.34A.048.048,0,0,1,1334.359,290.554Z" transform="translate(-1328.197 -288.733)" fill="#f3f2f2"/>
            <path id="Path_2668" data-name="Path 2668" d="M1334.359,291.656l.113.342.361,0a.048.048,0,0,1,.027.088l-.29.214.109.342a.049.049,0,0,1-.075.055l-.292-.209-.293.209a.049.049,0,0,1-.075-.055l.109-.342-.29-.214a.049.049,0,0,1,.029-.088l.36,0,.114-.342A.049.049,0,0,1,1334.359,291.656Z" transform="translate(-1328.197 -288.049)" fill="#f3f2f2"/>
            <path id="Path_2669" data-name="Path 2669" d="M1334.359,292.759l.113.34.361,0a.049.049,0,0,1,.027.088l-.29.214.109.344a.048.048,0,0,1-.075.054l-.292-.209-.293.209a.048.048,0,0,1-.075-.054l.109-.344-.29-.214a.049.049,0,0,1,.029-.088l.36,0,.114-.34A.048.048,0,0,1,1334.359,292.759Z" transform="translate(-1328.197 -287.364)" fill="#f3f2f2"/>
            <path id="Path_2670" data-name="Path 2670" d="M1334.359,293.861l.113.342.361,0a.049.049,0,0,1,.027.088l-.29.214.109.344a.049.049,0,0,1-.075.055l-.292-.211-.293.211a.049.049,0,0,1-.075-.055l.109-.344-.29-.214a.049.049,0,0,1,.029-.088l.36,0,.114-.342A.049.049,0,0,1,1334.359,293.861Z" transform="translate(-1328.197 -286.68)" fill="#f3f2f2"/>
            <path id="Path_2671" data-name="Path 2671" d="M1335.215,289.992l.114.34.36,0a.049.049,0,0,1,.029.087l-.29.214.109.344a.048.048,0,0,1-.075.054l-.293-.209-.292.209a.048.048,0,0,1-.075-.054l.109-.344-.29-.214a.049.049,0,0,1,.029-.087l.36,0,.113-.34A.048.048,0,0,1,1335.215,289.992Z" transform="translate(-1327.666 -289.082)" fill="#f3f2f2"/>
            <path id="Path_2672" data-name="Path 2672" d="M1335.215,291.094l.114.342.36,0a.049.049,0,0,1,.029.087l-.29.214.109.342a.049.049,0,0,1-.075.055l-.293-.209-.292.209a.049.049,0,0,1-.075-.055l.109-.342-.29-.214a.049.049,0,0,1,.029-.087l.36,0,.113-.342A.049.049,0,0,1,1335.215,291.094Z" transform="translate(-1327.666 -288.398)" fill="#f3f2f2"/>
            <path id="Path_2673" data-name="Path 2673" d="M1335.215,292.2l.114.34.36,0a.049.049,0,0,1,.029.088l-.29.214.109.344a.048.048,0,0,1-.075.053l-.293-.209-.292.209a.048.048,0,0,1-.075-.053l.109-.344-.29-.214a.049.049,0,0,1,.029-.088l.36,0,.113-.34A.048.048,0,0,1,1335.215,292.2Z" transform="translate(-1327.666 -287.713)" fill="#f3f2f2"/>
            <path id="Path_2674" data-name="Path 2674" d="M1335.215,293.3l.114.342.36,0a.049.049,0,0,1,.029.088l-.29.214.109.342a.049.049,0,0,1-.075.055l-.293-.209-.292.209a.049.049,0,0,1-.075-.055l.109-.342-.29-.214a.049.049,0,0,1,.029-.088l.36,0,.113-.342A.049.049,0,0,1,1335.215,293.3Z" transform="translate(-1327.666 -287.029)" fill="#f3f2f2"/>
            <path id="Path_2675" data-name="Path 2675" d="M1336.072,289.451l.113.342.36,0a.049.049,0,0,1,.029.087l-.29.214.109.342a.049.049,0,0,1-.075.055l-.293-.209-.293.209a.048.048,0,0,1-.073-.055l.109-.342-.29-.214a.049.049,0,0,1,.027-.087l.361,0,.114-.342A.049.049,0,0,1,1336.072,289.451Z" transform="translate(-1327.134 -289.418)" fill="#f3f2f2"/>
            <path id="Path_2676" data-name="Path 2676" d="M1336.072,290.554l.113.34.36,0a.049.049,0,0,1,.029.087l-.29.214.109.344a.048.048,0,0,1-.075.053l-.293-.209-.293.209a.047.047,0,0,1-.073-.053l.109-.344-.29-.214a.049.049,0,0,1,.027-.087l.361,0,.114-.34A.048.048,0,0,1,1336.072,290.554Z" transform="translate(-1327.134 -288.733)" fill="#f3f2f2"/>
            <path id="Path_2677" data-name="Path 2677" d="M1336.072,291.656l.113.342.36,0a.049.049,0,0,1,.029.088l-.29.214.109.342a.049.049,0,0,1-.075.055l-.293-.209-.293.209a.048.048,0,0,1-.073-.055l.109-.342-.29-.214a.048.048,0,0,1,.027-.088l.361,0,.114-.342A.049.049,0,0,1,1336.072,291.656Z" transform="translate(-1327.134 -288.049)" fill="#f3f2f2"/>
            <path id="Path_2678" data-name="Path 2678" d="M1336.072,292.759l.113.34.36,0a.049.049,0,0,1,.029.088l-.29.214.109.344a.048.048,0,0,1-.075.054l-.293-.209-.293.209a.047.047,0,0,1-.073-.054l.109-.344-.29-.214a.049.049,0,0,1,.027-.088l.361,0,.114-.34A.048.048,0,0,1,1336.072,292.759Z" transform="translate(-1327.134 -287.364)" fill="#f3f2f2"/>
            <path id="Path_2679" data-name="Path 2679" d="M1336.072,293.861l.113.342.36,0a.049.049,0,0,1,.029.088l-.29.214.109.344a.049.049,0,0,1-.075.055l-.293-.211-.293.211a.048.048,0,0,1-.073-.055l.109-.344-.29-.214a.049.049,0,0,1,.027-.088l.361,0,.114-.342A.049.049,0,0,1,1336.072,293.861Z" transform="translate(-1327.134 -286.68)" fill="#f3f2f2"/>
            <path id="Path_2680" data-name="Path 2680" d="M1336.926,289.992l.115.34.36,0a.049.049,0,0,1,.027.087l-.288.214.109.344a.049.049,0,0,1-.075.054l-.293-.209-.293.209a.049.049,0,0,1-.075-.054l.109-.344-.289-.214a.048.048,0,0,1,.028-.087l.36,0,.115-.34A.047.047,0,0,1,1336.926,289.992Z" transform="translate(-1326.603 -289.082)" fill="#f3f2f2"/>
            <path id="Path_2681" data-name="Path 2681" d="M1336.926,291.094l.115.342.36,0a.049.049,0,0,1,.027.087l-.288.214.109.342a.049.049,0,0,1-.075.055l-.293-.209-.293.209a.049.049,0,0,1-.075-.055l.109-.342-.289-.214a.048.048,0,0,1,.028-.087l.36,0,.115-.342A.048.048,0,0,1,1336.926,291.094Z" transform="translate(-1326.603 -288.398)" fill="#f3f2f2"/>
            <path id="Path_2682" data-name="Path 2682" d="M1336.926,292.2l.115.34.36,0a.049.049,0,0,1,.027.088l-.288.214.109.344a.049.049,0,0,1-.075.053l-.293-.209-.293.209a.049.049,0,0,1-.075-.053l.109-.344-.289-.214a.048.048,0,0,1,.028-.088l.36,0,.115-.34A.047.047,0,0,1,1336.926,292.2Z" transform="translate(-1326.603 -287.713)" fill="#f3f2f2"/>
            <path id="Path_2683" data-name="Path 2683" d="M1336.926,293.3l.115.342.36,0a.048.048,0,0,1,.027.088l-.288.214.109.342a.049.049,0,0,1-.075.055l-.293-.209-.293.209a.049.049,0,0,1-.075-.055l.109-.342-.289-.214a.048.048,0,0,1,.028-.088l.36,0,.115-.342A.048.048,0,0,1,1336.926,293.3Z" transform="translate(-1326.603 -287.029)" fill="#f3f2f2"/>
            <path id="Path_2684" data-name="Path 2684" d="M1337.782,289.451l.113.342.36,0a.049.049,0,0,1,.029.087l-.29.214.109.342a.049.049,0,0,1-.075.055l-.292-.209-.293.209a.049.049,0,0,1-.075-.055l.109-.342-.29-.214a.049.049,0,0,1,.029-.087l.36,0,.113-.342A.049.049,0,0,1,1337.782,289.451Z" transform="translate(-1326.072 -289.418)" fill="#f3f2f2"/>
            <path id="Path_2685" data-name="Path 2685" d="M1337.782,290.554l.113.34.36,0a.049.049,0,0,1,.029.087l-.29.214.109.344a.048.048,0,0,1-.075.053l-.292-.209-.293.209a.048.048,0,0,1-.075-.053l.109-.344-.29-.214a.049.049,0,0,1,.029-.087l.36,0,.113-.34A.048.048,0,0,1,1337.782,290.554Z" transform="translate(-1326.072 -288.733)" fill="#f3f2f2"/>
            <path id="Path_2686" data-name="Path 2686" d="M1337.782,291.656l.113.342.36,0a.049.049,0,0,1,.029.088l-.29.214.109.342a.049.049,0,0,1-.075.055l-.292-.209-.293.209a.049.049,0,0,1-.075-.055l.109-.342-.29-.214a.048.048,0,0,1,.029-.088l.36,0,.113-.342A.049.049,0,0,1,1337.782,291.656Z" transform="translate(-1326.072 -288.049)" fill="#f3f2f2"/>
            <path id="Path_2687" data-name="Path 2687" d="M1337.782,292.759l.113.34.36,0a.049.049,0,0,1,.029.088l-.29.214.109.344a.048.048,0,0,1-.075.054l-.292-.209-.293.209a.048.048,0,0,1-.075-.054l.109-.344-.29-.214a.049.049,0,0,1,.029-.088l.36,0,.113-.34A.048.048,0,0,1,1337.782,292.759Z" transform="translate(-1326.072 -287.364)" fill="#f3f2f2"/>
            <path id="Path_2688" data-name="Path 2688" d="M1337.782,293.861l.113.342.36,0a.049.049,0,0,1,.029.088l-.29.214.109.344a.049.049,0,0,1-.075.055l-.292-.211-.293.211a.049.049,0,0,1-.075-.055l.109-.344-.29-.214a.049.049,0,0,1,.029-.088l.36,0,.113-.342A.049.049,0,0,1,1337.782,293.861Z" transform="translate(-1326.072 -286.68)" fill="#f3f2f2"/>
          </g>
        </g>
      </g>
    </g>
  </g>
</svg>